<?xml version="1.0" encoding="UTF-8"?>
<svg width="65px" height="362px" viewBox="0 0 65 362" version="1.1" xmlns="http://www.w3.org/2000/svg" xmlns:xlink="http://www.w3.org/1999/xlink" style="background: #FFFFFF;">
    <!-- Generator: Sketch 43.2 (39069) - http://www.bohemiancoding.com/sketch -->
    <title>Artboard Copy 2</title>
    <desc>Created with Sketch.</desc>
    <defs></defs>
    <g id="Page-1" stroke="none" stroke-width="1" fill="none" fill-rule="evenodd">
        <g id="Artboard-Copy-2">
            <path d="M-122.772,148.288 L-119.748,148.288 L-119.748,150.248 L-119.692,150.248 C-119.243998,149.407996 -118.618671,148.806002 -117.816,148.442 C-117.013329,148.077998 -116.145338,147.896 -115.212,147.896 C-114.073328,147.896 -113.079338,148.096665 -112.23,148.498 C-111.380662,148.899335 -110.676003,149.449996 -110.116,150.15 C-109.555997,150.850004 -109.136001,151.666662 -108.856,152.6 C-108.575999,153.533338 -108.436,154.531995 -108.436,155.596 C-108.436,156.566672 -108.561999,157.509329 -108.814,158.424 C-109.066001,159.338671 -109.448664,160.145997 -109.962,160.846 C-110.475336,161.546004 -111.123996,162.105998 -111.908,162.526 C-112.692004,162.946002 -113.615995,163.156 -114.68,163.156 C-115.146669,163.156 -115.613331,163.114 -116.08,163.03 C-116.546669,162.946 -116.994665,162.810668 -117.424,162.624 C-117.853335,162.437332 -118.249998,162.199335 -118.614,161.91 C-118.978002,161.620665 -119.281332,161.280002 -119.524,160.888 L-119.58,160.888 L-119.58,168.112 L-122.772,168.112 L-122.772,148.288 Z M-111.628,155.54 C-111.628,154.886663 -111.711999,154.252003 -111.88,153.636 C-112.048001,153.019997 -112.299998,152.474002 -112.636,151.998 C-112.972002,151.521998 -113.391997,151.139335 -113.896,150.85 C-114.400003,150.560665 -114.978663,150.416 -115.632,150.416 C-116.976007,150.416 -117.988663,150.882662 -118.67,151.816 C-119.351337,152.749338 -119.692,153.990659 -119.692,155.54 C-119.692,156.268004 -119.603334,156.944664 -119.426,157.57 C-119.248666,158.195336 -118.982668,158.731998 -118.628,159.18 C-118.273332,159.628002 -117.848669,159.982665 -117.354,160.244 C-116.859331,160.505335 -116.285337,160.636 -115.632,160.636 C-114.903996,160.636 -114.288003,160.486668 -113.784,160.188 C-113.279997,159.889332 -112.864668,159.502002 -112.538,159.026 C-112.211332,158.549998 -111.978001,158.00867 -111.838,157.402 C-111.697999,156.79533 -111.628,156.17467 -111.628,155.54 Z M-99.112,163.156 C-100.269339,163.156 -101.300662,162.964669 -102.206,162.582 C-103.111338,162.199331 -103.876664,161.672003 -104.502,161 C-105.127336,160.327997 -105.603332,159.525338 -105.93,158.592 C-106.256668,157.658662 -106.42,156.632006 -106.42,155.512 C-106.42,154.410661 -106.256668,153.393338 -105.93,152.46 C-105.603332,151.526662 -105.127336,150.724003 -104.502,150.052 C-103.876664,149.379997 -103.111338,148.852669 -102.206,148.47 C-101.300662,148.087331 -100.269339,147.896 -99.112,147.896 C-97.9546609,147.896 -96.9233379,148.087331 -96.018,148.47 C-95.1126621,148.852669 -94.3473365,149.379997 -93.722,150.052 C-93.0966635,150.724003 -92.6206683,151.526662 -92.294,152.46 C-91.9673317,153.393338 -91.804,154.410661 -91.804,155.512 C-91.804,156.632006 -91.9673317,157.658662 -92.294,158.592 C-92.6206683,159.525338 -93.0966635,160.327997 -93.722,161 C-94.3473365,161.672003 -95.1126621,162.199331 -96.018,162.582 C-96.9233379,162.964669 -97.9546609,163.156 -99.112,163.156 Z M-99.112,160.636 C-98.4026631,160.636 -97.7866693,160.486668 -97.264,160.188 C-96.7413307,159.889332 -96.3120017,159.497336 -95.976,159.012 C-95.6399983,158.526664 -95.3926675,157.98067 -95.234,157.374 C-95.0753325,156.76733 -94.996,156.14667 -94.996,155.512 C-94.996,154.895997 -95.0753325,154.280003 -95.234,153.664 C-95.3926675,153.047997 -95.6399983,152.502002 -95.976,152.026 C-96.3120017,151.549998 -96.7413307,151.162668 -97.264,150.864 C-97.7866693,150.565332 -98.4026631,150.416 -99.112,150.416 C-99.8213369,150.416 -100.437331,150.565332 -100.96,150.864 C-101.482669,151.162668 -101.911998,151.549998 -102.248,152.026 C-102.584002,152.502002 -102.831333,153.047997 -102.99,153.664 C-103.148667,154.280003 -103.228,154.895997 -103.228,155.512 C-103.228,156.14667 -103.148667,156.76733 -102.99,157.374 C-102.831333,157.98067 -102.584002,158.526664 -102.248,159.012 C-101.911998,159.497336 -101.482669,159.889332 -100.96,160.188 C-100.437331,160.486668 -99.8213369,160.636 -99.112,160.636 Z M-89.06,142.772 L-85.868,142.772 L-85.868,154.14 L-80.1,148.288 L-76.18,148.288 L-81.724,153.608 L-75.648,162.764 L-79.54,162.764 L-83.964,155.736 L-85.868,157.584 L-85.868,162.764 L-89.06,162.764 L-89.06,142.772 Z M-64.168,154.252 C-64.2053335,153.747997 -64.3126658,153.262669 -64.49,152.796 C-64.6673342,152.329331 -64.9099985,151.923335 -65.218,151.578 C-65.5260015,151.232665 -65.8993311,150.952668 -66.338,150.738 C-66.7766689,150.523332 -67.266664,150.416 -67.808,150.416 C-68.3680028,150.416 -68.8766644,150.513999 -69.334,150.71 C-69.7913356,150.906001 -70.1833317,151.176665 -70.51,151.522 C-70.8366683,151.867335 -71.097999,152.273331 -71.294,152.74 C-71.490001,153.206669 -71.5973332,153.710664 -71.616,154.252 L-64.168,154.252 Z M-71.616,156.352 C-71.616,156.912003 -71.5366675,157.453331 -71.378,157.976 C-71.2193325,158.498669 -70.9813349,158.955998 -70.664,159.348 C-70.3466651,159.740002 -69.9453358,160.052666 -69.46,160.286 C-68.9746642,160.519335 -68.3960034,160.636 -67.724,160.636 C-66.790662,160.636 -66.0393362,160.435335 -65.47,160.034 C-64.9006638,159.632665 -64.4760014,159.030671 -64.196,158.228 L-61.172,158.228 C-61.3400008,159.012004 -61.6293313,159.711997 -62.04,160.328 C-62.4506687,160.944003 -62.9453304,161.461998 -63.524,161.882 C-64.1026696,162.302002 -64.7513297,162.619332 -65.47,162.834 C-66.1886703,163.048668 -66.9399961,163.156 -67.724,163.156 C-68.8626724,163.156 -69.8706623,162.969335 -70.748,162.596 C-71.6253377,162.222665 -72.3673303,161.700003 -72.974,161.028 C-73.5806697,160.355997 -74.0379985,159.553338 -74.346,158.62 C-74.6540015,157.686662 -74.808,156.660006 -74.808,155.54 C-74.808,154.513328 -74.6446683,153.538005 -74.318,152.614 C-73.9913317,151.689995 -73.5246697,150.878004 -72.918,150.178 C-72.3113303,149.477997 -71.578671,148.922669 -70.72,148.512 C-69.861329,148.101331 -68.8906721,147.896 -67.808,147.896 C-66.6693276,147.896 -65.6473379,148.133998 -64.742,148.61 C-63.8366621,149.086002 -63.0853363,149.715996 -62.488,150.5 C-61.8906637,151.284004 -61.456668,152.184662 -61.186,153.202 C-60.915332,154.219338 -60.8453327,155.269328 -60.976,156.352 L-71.616,156.352 Z M-58.54,148.288 L-55.544,148.288 L-55.544,151.088 L-55.488,151.088 C-55.3946662,150.695998 -55.212668,150.313335 -54.942,149.94 C-54.671332,149.566665 -54.3446686,149.226002 -53.962,148.918 C-53.5793314,148.609998 -53.154669,148.362668 -52.688,148.176 C-52.221331,147.989332 -51.7453358,147.896 -51.26,147.896 C-50.8866648,147.896 -50.6300007,147.905333 -50.49,147.924 C-50.3499993,147.942667 -50.2053341,147.961333 -50.056,147.98 L-50.056,151.06 C-50.2800011,151.022666 -50.5086655,150.99 -50.742,150.962 C-50.9753345,150.934 -51.2039989,150.92 -51.428,150.92 C-51.969336,150.92 -52.4779976,151.027332 -52.954,151.242 C-53.4300024,151.456668 -53.8453316,151.773998 -54.2,152.194 C-54.5546684,152.614002 -54.8346656,153.131997 -55.04,153.748 C-55.2453344,154.364003 -55.348,155.073329 -55.348,155.876 L-55.348,162.764 L-58.54,162.764 L-58.54,148.288 Z M-51.008,158.984 L-47.116,158.984 L-47.116,162.764 L-51.008,162.764 L-51.008,158.984 Z M-33.704,153.132 C-33.8346673,152.235996 -34.1939971,151.559336 -34.782,151.102 C-35.3700029,150.644664 -36.1119955,150.416 -37.008,150.416 C-37.4186687,150.416 -37.857331,150.485999 -38.324,150.626 C-38.790669,150.766001 -39.219998,151.027331 -39.612,151.41 C-40.004002,151.792669 -40.3306654,152.324663 -40.592,153.006 C-40.8533346,153.687337 -40.984,154.578661 -40.984,155.68 C-40.984,156.277336 -40.9140007,156.874664 -40.774,157.472 C-40.6339993,158.069336 -40.4100015,158.601331 -40.102,159.068 C-39.7939985,159.534669 -39.3973358,159.912665 -38.912,160.202 C-38.4266642,160.491335 -37.8386701,160.636 -37.148,160.636 C-36.214662,160.636 -35.4446697,160.34667 -34.838,159.768 C-34.2313303,159.18933 -33.8533341,158.377339 -33.704,157.332 L-30.512,157.332 C-30.8106682,159.217343 -31.524661,160.659328 -32.654,161.658 C-33.783339,162.656672 -35.281324,163.156 -37.148,163.156 C-38.2866724,163.156 -39.2899957,162.964669 -40.158,162.582 C-41.0260043,162.199331 -41.7586637,161.67667 -42.356,161.014 C-42.9533363,160.35133 -43.4059985,159.562671 -43.714,158.648 C-44.0220015,157.733329 -44.176,156.744005 -44.176,155.68 C-44.176,154.597328 -44.0266682,153.580005 -43.728,152.628 C-43.4293318,151.675995 -42.9813363,150.850004 -42.384,150.15 C-41.7866637,149.449996 -41.0446711,148.899335 -40.158,148.498 C-39.2713289,148.096665 -38.2306726,147.896 -37.036,147.896 C-36.1959958,147.896 -35.3980038,148.003332 -34.642,148.218 C-33.8859962,148.432668 -33.2140029,148.754665 -32.626,149.184 C-32.0379971,149.613335 -31.5573352,150.154663 -31.184,150.808 C-30.8106648,151.461337 -30.586667,152.235996 -30.512,153.132 L-33.704,153.132 Z M-27.824,142.772 L-24.632,142.772 L-24.632,162.764 L-27.824,162.764 L-27.824,142.772 Z M-14.524,163.156 C-15.6813391,163.156 -16.7126621,162.964669 -17.618,162.582 C-18.5233379,162.199331 -19.2886635,161.672003 -19.914,161 C-20.5393365,160.327997 -21.0153317,159.525338 -21.342,158.592 C-21.6686683,157.658662 -21.832,156.632006 -21.832,155.512 C-21.832,154.410661 -21.6686683,153.393338 -21.342,152.46 C-21.0153317,151.526662 -20.5393365,150.724003 -19.914,150.052 C-19.2886635,149.379997 -18.5233379,148.852669 -17.618,148.47 C-16.7126621,148.087331 -15.6813391,147.896 -14.524,147.896 C-13.3666609,147.896 -12.3353379,148.087331 -11.43,148.47 C-10.5246621,148.852669 -9.75933646,149.379997 -9.134,150.052 C-8.50866354,150.724003 -8.0326683,151.526662 -7.706,152.46 C-7.3793317,153.393338 -7.216,154.410661 -7.216,155.512 C-7.216,156.632006 -7.3793317,157.658662 -7.706,158.592 C-8.0326683,159.525338 -8.50866354,160.327997 -9.134,161 C-9.75933646,161.672003 -10.5246621,162.199331 -11.43,162.582 C-12.3353379,162.964669 -13.3666609,163.156 -14.524,163.156 Z M-14.524,160.636 C-13.8146631,160.636 -13.1986693,160.486668 -12.676,160.188 C-12.1533307,159.889332 -11.7240017,159.497336 -11.388,159.012 C-11.0519983,158.526664 -10.8046675,157.98067 -10.646,157.374 C-10.4873325,156.76733 -10.408,156.14667 -10.408,155.512 C-10.408,154.895997 -10.4873325,154.280003 -10.646,153.664 C-10.8046675,153.047997 -11.0519983,152.502002 -11.388,152.026 C-11.7240017,151.549998 -12.1533307,151.162668 -12.676,150.864 C-13.1986693,150.565332 -13.8146631,150.416 -14.524,150.416 C-15.2333369,150.416 -15.8493307,150.565332 -16.372,150.864 C-16.8946693,151.162668 -17.3239983,151.549998 -17.66,152.026 C-17.9960017,152.502002 -18.2433325,153.047997 -18.402,153.664 C-18.5606675,154.280003 -18.64,154.895997 -18.64,155.512 C-18.64,156.14667 -18.5606675,156.76733 -18.402,157.374 C-18.2433325,157.98067 -17.9960017,158.526664 -17.66,159.012 C-17.3239983,159.497336 -16.8946693,159.889332 -16.372,160.188 C-15.8493307,160.486668 -15.2333369,160.636 -14.524,160.636 Z M8.156,162.764 L5.02,162.764 L5.02,160.748 L4.964,160.748 C4.57199804,161.476004 3.98867054,162.059331 3.214,162.498 C2.43932946,162.936669 1.65067068,163.156 0.848,163.156 C-1.05600952,163.156 -2.43266242,162.684671 -3.282,161.742 C-4.13133758,160.799329 -4.556,159.37601 -4.556,157.472 L-4.556,148.288 L-1.364,148.288 L-1.364,157.164 C-1.364,158.43334 -1.12133576,159.329331 -0.636,159.852 C-0.15066424,160.374669 0.53066228,160.636 1.408,160.636 C2.08000336,160.636 2.63999776,160.533334 3.088,160.328 C3.53600224,160.122666 3.8999986,159.847335 4.18,159.502 C4.4600014,159.156665 4.66066606,158.741336 4.782,158.256 C4.90333394,157.770664 4.964,157.248003 4.964,156.688 L4.964,148.288 L8.156,148.288 L8.156,162.764 Z M25.152,162.764 L22.128,162.764 L22.128,160.804 L22.072,160.804 C21.6426645,161.644004 21.0173374,162.245998 20.196,162.61 C19.3746626,162.974002 18.5066712,163.156 17.592,163.156 C16.4533276,163.156 15.4593376,162.955335 14.61,162.554 C13.7606624,162.152665 13.0560028,161.60667 12.496,160.916 C11.9359972,160.22533 11.5160014,159.408671 11.236,158.466 C10.9559986,157.523329 10.816,156.510672 10.816,155.428 C10.816,154.121327 10.9933316,152.992005 11.348,152.04 C11.7026684,151.087995 12.1739971,150.304003 12.762,149.688 C13.3500029,149.071997 14.0219962,148.619335 14.778,148.33 C15.5340038,148.040665 16.3039961,147.896 17.088,147.896 C17.5360022,147.896 17.993331,147.938 18.46,148.022 C18.926669,148.106 19.3746645,148.241332 19.804,148.428 C20.2333355,148.614668 20.6299982,148.852665 20.994,149.142 C21.3580018,149.431335 21.6613321,149.771998 21.904,150.164 L21.96,150.164 L21.96,142.772 L25.152,142.772 L25.152,162.764 Z M14.008,155.68 C14.008,156.296003 14.0873325,156.902664 14.246,157.5 C14.4046675,158.097336 14.6473317,158.629331 14.974,159.096 C15.3006683,159.562669 15.7159975,159.935999 16.22,160.216 C16.7240025,160.496001 17.3213299,160.636 18.012,160.636 C18.7213369,160.636 19.3326641,160.486668 19.846,160.188 C20.3593359,159.889332 20.7793317,159.497336 21.106,159.012 C21.4326683,158.526664 21.6753325,157.98067 21.834,157.374 C21.9926675,156.76733 22.072,156.14667 22.072,155.512 C22.072,153.906659 21.7126703,152.656004 20.994,151.76 C20.2753297,150.863996 19.3000062,150.416 18.068,150.416 C17.3213296,150.416 16.6913359,150.569998 16.178,150.878 C15.6646641,151.186002 15.2446683,151.587331 14.918,152.082 C14.5913317,152.576669 14.3580007,153.136664 14.218,153.762 C14.0779993,154.387336 14.008,155.026663 14.008,155.68 Z M27.168,148.288 L29.576,148.288 L29.576,143.948 L32.768,143.948 L32.768,148.288 L35.652,148.288 L35.652,150.668 L32.768,150.668 L32.768,158.396 C32.768,158.732002 32.7819999,159.021332 32.81,159.264 C32.8380001,159.506668 32.9033328,159.711999 33.006,159.88 C33.1086672,160.048001 33.2626656,160.174 33.468,160.258 C33.6733344,160.342 33.9533316,160.384 34.308,160.384 C34.5320011,160.384 34.7559989,160.379333 34.98,160.37 C35.2040011,160.360667 35.4279989,160.328 35.652,160.272 L35.652,162.736 C35.2973316,162.773334 34.9520017,162.810666 34.616,162.848 C34.2799983,162.885334 33.9346684,162.904 33.58,162.904 C32.7399958,162.904 32.0633359,162.824667 31.55,162.666 C31.0366641,162.507333 30.6353348,162.274002 30.346,161.966 C30.0566652,161.657998 29.8606672,161.270669 29.758,160.804 C29.6553328,160.337331 29.5946668,159.805336 29.576,159.208 L29.576,150.668 L27.168,150.668 L27.168,148.288 Z M37.948,148.288 L40.944,148.288 L40.944,151.088 L41,151.088 C41.0933338,150.695998 41.275332,150.313335 41.546,149.94 C41.816668,149.566665 42.1433314,149.226002 42.526,148.918 C42.9086686,148.609998 43.333331,148.362668 43.8,148.176 C44.266669,147.989332 44.7426642,147.896 45.228,147.896 C45.6013352,147.896 45.8579993,147.905333 45.998,147.924 C46.1380007,147.942667 46.2826659,147.961333 46.432,147.98 L46.432,151.06 C46.2079989,151.022666 45.9793345,150.99 45.746,150.962 C45.5126655,150.934 45.2840011,150.92 45.06,150.92 C44.518664,150.92 44.0100024,151.027332 43.534,151.242 C43.0579976,151.456668 42.6426684,151.773998 42.288,152.194 C41.9333316,152.614002 41.6533344,153.131997 41.448,153.748 C41.2426656,154.364003 41.14,155.073329 41.14,155.876 L41.14,162.764 L37.948,162.764 L37.948,148.288 Z M60.516,162.764 L57.38,162.764 L57.38,160.748 L57.324,160.748 C56.931998,161.476004 56.3486705,162.059331 55.574,162.498 C54.7993295,162.936669 54.0106707,163.156 53.208,163.156 C51.3039905,163.156 49.9273376,162.684671 49.078,161.742 C48.2286624,160.799329 47.804,159.37601 47.804,157.472 L47.804,148.288 L50.996,148.288 L50.996,157.164 C50.996,158.43334 51.2386642,159.329331 51.724,159.852 C52.2093358,160.374669 52.8906623,160.636 53.768,160.636 C54.4400034,160.636 54.9999978,160.533334 55.448,160.328 C55.8960022,160.122666 56.2599986,159.847335 56.54,159.502 C56.8200014,159.156665 57.0206661,158.741336 57.142,158.256 C57.2633339,157.770664 57.324,157.248003 57.324,156.688 L57.324,148.288 L60.516,148.288 L60.516,162.764 Z M66.284,158.116 C66.3773338,159.049338 66.7319969,159.702665 67.348,160.076 C67.9640031,160.449335 68.701329,160.636 69.56,160.636 C69.8586682,160.636 70.1993314,160.612667 70.582,160.566 C70.9646686,160.519333 71.3239983,160.430667 71.66,160.3 C71.9960017,160.169333 72.2713323,159.978001 72.486,159.726 C72.7006677,159.473999 72.7986668,159.142669 72.78,158.732 C72.7613332,158.321331 72.6120014,157.985335 72.332,157.724 C72.0519986,157.462665 71.6926689,157.252667 71.254,157.094 C70.8153311,156.935333 70.3160028,156.800001 69.756,156.688 C69.1959972,156.575999 68.6266696,156.454667 68.048,156.324 C67.4506637,156.193333 66.8766694,156.034668 66.326,155.848 C65.7753306,155.661332 65.2806689,155.409335 64.842,155.092 C64.4033311,154.774665 64.0533346,154.368669 63.792,153.874 C63.5306654,153.379331 63.4,152.768004 63.4,152.04 C63.4,151.255996 63.5913314,150.598003 63.974,150.066 C64.3566686,149.533997 64.8419971,149.104668 65.43,148.778 C66.0180029,148.451332 66.6713297,148.222667 67.39,148.092 C68.1086703,147.961333 68.7946634,147.896 69.448,147.896 C70.1946704,147.896 70.9086633,147.975333 71.59,148.134 C72.2713367,148.292667 72.8873306,148.549332 73.438,148.904 C73.9886694,149.258668 74.4459982,149.720664 74.81,150.29 C75.1740018,150.859336 75.4026662,151.545329 75.496,152.348 L72.164,152.348 C72.0146659,151.582663 71.6646694,151.069335 71.114,150.808 C70.5633306,150.546665 69.9333369,150.416 69.224,150.416 C68.9999989,150.416 68.7340015,150.434666 68.426,150.472 C68.1179985,150.509334 67.828668,150.579333 67.558,150.682 C67.287332,150.784667 67.0586676,150.933999 66.872,151.13 C66.6853324,151.326001 66.592,151.582665 66.592,151.9 C66.592,152.292002 66.727332,152.609332 66.998,152.852 C67.268668,153.094668 67.6233311,153.295333 68.062,153.454 C68.5006689,153.612667 68.9999972,153.747999 69.56,153.86 C70.1200028,153.972001 70.6986637,154.093333 71.296,154.224 C71.8746696,154.354667 72.4439972,154.513332 73.004,154.7 C73.5640028,154.886668 74.0633311,155.138665 74.502,155.456 C74.9406689,155.773335 75.295332,156.174664 75.566,156.66 C75.836668,157.145336 75.972,157.742663 75.972,158.452 C75.972,159.310671 75.776002,160.038664 75.384,160.636 C74.991998,161.233336 74.4833365,161.718665 73.858,162.092 C73.2326635,162.465335 72.5373372,162.735999 71.772,162.904 C71.0066628,163.072001 70.2506704,163.156 69.504,163.156 C68.5893288,163.156 67.7446705,163.053334 66.97,162.848 C66.1953295,162.642666 65.5233362,162.330002 64.954,161.91 C64.3846638,161.489998 63.9366683,160.967336 63.61,160.342 C63.2833317,159.716664 63.1106668,158.974671 63.092,158.116 L66.284,158.116 Z M76.952,148.288 L79.36,148.288 L79.36,143.948 L82.552,143.948 L82.552,148.288 L85.436,148.288 L85.436,150.668 L82.552,150.668 L82.552,158.396 C82.552,158.732002 82.5659999,159.021332 82.594,159.264 C82.6220001,159.506668 82.6873328,159.711999 82.79,159.88 C82.8926672,160.048001 83.0466656,160.174 83.252,160.258 C83.4573344,160.342 83.7373316,160.384 84.092,160.384 C84.3160011,160.384 84.5399989,160.379333 84.764,160.37 C84.9880011,160.360667 85.2119989,160.328 85.436,160.272 L85.436,162.736 C85.0813316,162.773334 84.7360017,162.810666 84.4,162.848 C84.0639983,162.885334 83.7186684,162.904 83.364,162.904 C82.5239958,162.904 81.8473359,162.824667 81.334,162.666 C80.8206641,162.507333 80.4193348,162.274002 80.13,161.966 C79.8406652,161.657998 79.6446672,161.270669 79.542,160.804 C79.4393328,160.337331 79.3786668,159.805336 79.36,159.208 L79.36,150.668 L76.952,150.668 L76.952,148.288 Z M87.984,158.984 L91.876,158.984 L91.876,162.764 L87.984,162.764 L87.984,158.984 Z M105.288,153.132 C105.157333,152.235996 104.798003,151.559336 104.21,151.102 C103.621997,150.644664 102.880004,150.416 101.984,150.416 C101.573331,150.416 101.134669,150.485999 100.668,150.626 C100.201331,150.766001 99.772002,151.027331 99.38,151.41 C98.987998,151.792669 98.6613346,152.324663 98.4,153.006 C98.1386654,153.687337 98.008,154.578661 98.008,155.68 C98.008,156.277336 98.0779993,156.874664 98.218,157.472 C98.3580007,158.069336 98.5819985,158.601331 98.89,159.068 C99.1980015,159.534669 99.5946642,159.912665 100.08,160.202 C100.565336,160.491335 101.15333,160.636 101.844,160.636 C102.777338,160.636 103.54733,160.34667 104.154,159.768 C104.76067,159.18933 105.138666,158.377339 105.288,157.332 L108.48,157.332 C108.181332,159.217343 107.467339,160.659328 106.338,161.658 C105.208661,162.656672 103.710676,163.156 101.844,163.156 C100.705328,163.156 99.7020043,162.964669 98.834,162.582 C97.9659957,162.199331 97.2333363,161.67667 96.636,161.014 C96.0386637,160.35133 95.5860015,159.562671 95.278,158.648 C94.9699985,157.733329 94.816,156.744005 94.816,155.68 C94.816,154.597328 94.9653318,153.580005 95.264,152.628 C95.5626682,151.675995 96.0106637,150.850004 96.608,150.15 C97.2053363,149.449996 97.9473289,148.899335 98.834,148.498 C99.7206711,148.096665 100.761327,147.896 101.956,147.896 C102.796004,147.896 103.593996,148.003332 104.35,148.218 C105.106004,148.432668 105.777997,148.754665 106.366,149.184 C106.954003,149.613335 107.434665,150.154663 107.808,150.808 C108.181335,151.461337 108.405333,152.235996 108.48,153.132 L105.288,153.132 Z M117.72,163.156 C116.562661,163.156 115.531338,162.964669 114.626,162.582 C113.720662,162.199331 112.955336,161.672003 112.33,161 C111.704664,160.327997 111.228668,159.525338 110.902,158.592 C110.575332,157.658662 110.412,156.632006 110.412,155.512 C110.412,154.410661 110.575332,153.393338 110.902,152.46 C111.228668,151.526662 111.704664,150.724003 112.33,150.052 C112.955336,149.379997 113.720662,148.852669 114.626,148.47 C115.531338,148.087331 116.562661,147.896 117.72,147.896 C118.877339,147.896 119.908662,148.087331 120.814,148.47 C121.719338,148.852669 122.484664,149.379997 123.11,150.052 C123.735336,150.724003 124.211332,151.526662 124.538,152.46 C124.864668,153.393338 125.028,154.410661 125.028,155.512 C125.028,156.632006 124.864668,157.658662 124.538,158.592 C124.211332,159.525338 123.735336,160.327997 123.11,161 C122.484664,161.672003 121.719338,162.199331 120.814,162.582 C119.908662,162.964669 118.877339,163.156 117.72,163.156 Z M117.72,160.636 C118.429337,160.636 119.045331,160.486668 119.568,160.188 C120.090669,159.889332 120.519998,159.497336 120.856,159.012 C121.192002,158.526664 121.439333,157.98067 121.598,157.374 C121.756667,156.76733 121.836,156.14667 121.836,155.512 C121.836,154.895997 121.756667,154.280003 121.598,153.664 C121.439333,153.047997 121.192002,152.502002 120.856,152.026 C120.519998,151.549998 120.090669,151.162668 119.568,150.864 C119.045331,150.565332 118.429337,150.416 117.72,150.416 C117.010663,150.416 116.394669,150.565332 115.872,150.864 C115.349331,151.162668 114.920002,151.549998 114.584,152.026 C114.247998,152.502002 114.000667,153.047997 113.842,153.664 C113.683333,154.280003 113.604,154.895997 113.604,155.512 C113.604,156.14667 113.683333,156.76733 113.842,157.374 C114.000667,157.98067 114.247998,158.526664 114.584,159.012 C114.920002,159.497336 115.349331,159.889332 115.872,160.188 C116.394669,160.486668 117.010663,160.636 117.72,160.636 Z M127.688,148.288 L130.712,148.288 L130.712,150.304 L130.796,150.304 C131.038668,149.949332 131.299999,149.622668 131.58,149.324 C131.860001,149.025332 132.172665,148.773334 132.518,148.568 C132.863335,148.362666 133.259998,148.199334 133.708,148.078 C134.156002,147.956666 134.66933,147.896 135.248,147.896 C136.125338,147.896 136.941996,148.091998 137.698,148.484 C138.454004,148.876002 138.990665,149.482663 139.308,150.304 C139.849336,149.55733 140.474663,148.969335 141.184,148.54 C141.893337,148.110665 142.779995,147.896 143.844,147.896 C145.374674,147.896 146.564662,148.26933 147.414,149.016 C148.263338,149.76267 148.688,151.013325 148.688,152.768 L148.688,162.764 L145.496,162.764 L145.496,154.308 C145.496,153.72933 145.477334,153.202002 145.44,152.726 C145.402666,152.249998 145.295334,151.839335 145.118,151.494 C144.940666,151.148665 144.674668,150.882668 144.32,150.696 C143.965332,150.509332 143.480003,150.416 142.864,150.416 C141.781328,150.416 140.997336,150.751997 140.512,151.424 C140.026664,152.096003 139.784,153.047994 139.784,154.28 L139.784,162.764 L136.592,162.764 L136.592,153.468 C136.592,152.459995 136.410002,151.699336 136.046,151.186 C135.681998,150.672664 135.014672,150.416 134.044,150.416 C133.633331,150.416 133.236669,150.499999 132.854,150.668 C132.471331,150.836001 132.135335,151.078665 131.846,151.396 C131.556665,151.713335 131.323334,152.105331 131.146,152.572 C130.968666,153.038669 130.88,153.570664 130.88,154.168 L130.88,162.764 L127.688,162.764 L127.688,148.288 Z M152.3,158.984 L156.192,158.984 L156.192,162.764 L152.3,162.764 L152.3,158.984 Z M169.604,153.132 C169.473333,152.235996 169.114003,151.559336 168.526,151.102 C167.937997,150.644664 167.196004,150.416 166.3,150.416 C165.889331,150.416 165.450669,150.485999 164.984,150.626 C164.517331,150.766001 164.088002,151.027331 163.696,151.41 C163.303998,151.792669 162.977335,152.324663 162.716,153.006 C162.454665,153.687337 162.324,154.578661 162.324,155.68 C162.324,156.277336 162.393999,156.874664 162.534,157.472 C162.674001,158.069336 162.897998,158.601331 163.206,159.068 C163.514002,159.534669 163.910664,159.912665 164.396,160.202 C164.881336,160.491335 165.46933,160.636 166.16,160.636 C167.093338,160.636 167.86333,160.34667 168.47,159.768 C169.07667,159.18933 169.454666,158.377339 169.604,157.332 L172.796,157.332 C172.497332,159.217343 171.783339,160.659328 170.654,161.658 C169.524661,162.656672 168.026676,163.156 166.16,163.156 C165.021328,163.156 164.018004,162.964669 163.15,162.582 C162.281996,162.199331 161.549336,161.67667 160.952,161.014 C160.354664,160.35133 159.902002,159.562671 159.594,158.648 C159.285998,157.733329 159.132,156.744005 159.132,155.68 C159.132,154.597328 159.281332,153.580005 159.58,152.628 C159.878668,151.675995 160.326664,150.850004 160.924,150.15 C161.521336,149.449996 162.263329,148.899335 163.15,148.498 C164.036671,148.096665 165.077327,147.896 166.272,147.896 C167.112004,147.896 167.909996,148.003332 168.666,148.218 C169.422004,148.432668 170.093997,148.754665 170.682,149.184 C171.270003,149.613335 171.750665,150.154663 172.124,150.808 C172.497335,151.461337 172.721333,152.235996 172.796,153.132 L169.604,153.132 Z M175.4,148.288 L178.424,148.288 L178.424,150.416 L178.48,150.472 C178.965336,149.669329 179.599996,149.039336 180.384,148.582 C181.168004,148.124664 182.035995,147.896 182.988,147.896 C184.574675,147.896 185.825329,148.306663 186.74,149.128 C187.654671,149.949337 188.112,151.181325 188.112,152.824 L188.112,162.764 L184.92,162.764 L184.92,153.664 C184.882666,152.525328 184.640002,151.699336 184.192,151.186 C183.743998,150.672664 183.044005,150.416 182.092,150.416 C181.550664,150.416 181.065335,150.513999 180.636,150.71 C180.206665,150.906001 179.842668,151.176665 179.544,151.522 C179.245332,151.867335 179.012001,152.273331 178.844,152.74 C178.675999,153.206669 178.592,153.701331 178.592,154.224 L178.592,162.764 L175.4,162.764 L175.4,148.288 Z" id="poker.cloudtrust.com" fill="#D1D6DD" transform="translate(32.670000, 155.442000) rotate(90.000000) translate(-32.670000, -155.442000) "></path>
            <path d="M26.3,332 L40.78,332 L40.78,336.08 L29.7,336.08 L28.26,343.2 L28.34,343.28 C28.9533364,342.586663 29.7333286,342.060002 30.68,341.7 C31.6266714,341.339998 32.566662,341.16 33.5,341.16 C34.8866736,341.16 36.1266612,341.393331 37.22,341.86 C38.3133388,342.326669 39.2333296,342.979996 39.98,343.82 C40.7266704,344.660004 41.2933314,345.653328 41.68,346.8 C42.0666686,347.946672 42.26,349.18666 42.26,350.52 C42.26,351.640006 42.0800018,352.793327 41.72,353.98 C41.3599982,355.166673 40.7866706,356.246662 40,357.22 C39.2133294,358.193338 38.2066728,358.99333 36.98,359.62 C35.7533272,360.24667 34.2866752,360.56 32.58,360.56 C31.2199932,360.56 29.9600058,360.380002 28.8,360.02 C27.6399942,359.659998 26.6200044,359.120004 25.74,358.4 C24.8599956,357.679996 24.1600026,356.793339 23.64,355.74 C23.1199974,354.686661 22.8333336,353.45334 22.78,352.04 L27.34,352.04 C27.473334,353.560008 27.9933288,354.726663 28.9,355.54 C29.8066712,356.353337 31.0066592,356.76 32.5,356.76 C33.4600048,356.76 34.27333,356.600002 34.94,356.28 C35.60667,355.959998 36.1466646,355.520003 36.56,354.96 C36.9733354,354.399997 37.2666658,353.74667 37.44,353 C37.6133342,352.25333 37.7,351.453338 37.7,350.6 C37.7,349.826663 37.5933344,349.08667 37.38,348.38 C37.1666656,347.67333 36.8466688,347.053336 36.42,346.52 C35.9933312,345.986664 35.4400034,345.560002 34.76,345.24 C34.0799966,344.919998 33.2866712,344.76 32.38,344.76 C31.4199952,344.76 30.5200042,344.939998 29.68,345.3 C28.8399958,345.660002 28.2333352,346.333328 27.86,347.32 L23.3,347.32 L26.3,332 Z" id="5" fill="#3E4F67"></path>
        </g>
    </g>
</svg>