<?xml version="1.0" encoding="UTF-8"?>
<svg width="65px" height="362px" viewBox="0 0 65 362" version="1.1" xmlns="http://www.w3.org/2000/svg" xmlns:xlink="http://www.w3.org/1999/xlink">
    <!-- Generator: Sketch 43.2 (39069) - http://www.bohemiancoding.com/sketch -->
    <title>Artboard</title>
    <desc>Created with Sketch.</desc>
    <defs></defs>
    <g id="Page-1" stroke="none" stroke-width="1" fill="none" fill-rule="evenodd">
        <g id="Artboard">
            <path d="M0,337.351488 C0.987972008,337.351488 1.94848594,337.269159 2.88157061,337.104497 C3.81465529,336.939835 4.65853539,336.665402 5.41323623,336.281191 C6.16793706,335.896979 6.81285356,335.403001 7.34800507,334.79924 C7.88315657,334.195479 8.23305807,333.454511 8.39772008,332.576314 L12.2260925,332.576314 L12.2260925,361.39202 L7.08043065,361.39202 L7.08043065,341.056365 L0,341.056365 L0,337.351488 Z M32.150095,332 C34.20837,332 35.8892694,332.473396 37.1928436,333.420203 C38.4964177,334.367009 39.5118182,335.574512 40.2390754,337.042749 C40.9663325,338.510985 41.4603111,340.123276 41.721026,341.879671 C41.9817408,343.636065 42.1120963,345.337547 42.1120963,346.984167 C42.1120963,348.630787 41.9817408,350.332269 41.721026,352.088664 C41.4603111,353.845058 40.9663325,355.45735 40.2390754,356.925586 C39.5118182,358.393822 38.4964177,359.601325 37.1928436,360.548132 C35.8892694,361.494938 34.20837,361.968334 32.150095,361.968334 C30.09182,361.968334 28.4109206,361.494938 27.1073464,360.548132 C25.8037722,359.601325 24.7883718,358.393822 24.0611146,356.925586 C23.3338575,355.45735 22.8398789,353.845058 22.579164,352.088664 C22.3184492,350.332269 22.1880937,348.630787 22.1880937,346.984167 C22.1880937,345.337547 22.3184492,343.636065 22.579164,341.879671 C22.8398789,340.123276 23.3338575,338.510985 24.0611146,337.042749 C24.7883718,335.574512 25.8037722,334.367009 27.1073464,333.420203 C28.4109206,332.473396 30.09182,332 32.150095,332 Z M32.150095,358.057631 C33.1655107,358.057631 34.0162516,357.762616 34.7023433,357.172578 C35.3884349,356.582539 35.9304392,355.786684 36.3283724,354.784991 C36.7263056,353.783297 37.0075989,352.610097 37.1722609,351.265358 C37.3369229,349.920618 37.4192527,348.493569 37.4192527,346.984167 C37.4192527,345.474766 37.3369229,344.054577 37.1722609,342.723559 C37.0075989,341.392541 36.7263056,340.219342 36.3283724,339.203927 C35.9304392,338.188511 35.3884349,337.385796 34.7023433,336.795757 C34.0162516,336.205718 33.1655107,335.910703 32.150095,335.910703 C31.1072357,335.910703 30.2496339,336.205718 29.5772641,336.795757 C28.9048943,337.385796 28.3697508,338.188511 27.9718176,339.203927 C27.5738844,340.219342 27.2925911,341.392541 27.1279291,342.723559 C26.9632671,344.054577 26.8809373,345.474766 26.8809373,346.984167 C26.8809373,348.493569 26.9632671,349.920618 27.1279291,351.265358 C27.2925911,352.610097 27.5738844,353.783297 27.9718176,354.784991 C28.3697508,355.786684 28.9048943,356.582539 29.5772641,357.172578 C30.2496339,357.762616 31.1072357,358.057631 32.150095,358.057631 Z M55.0379987,332 C57.0962737,332 58.7771731,332.473396 60.0807473,333.420203 C61.3843215,334.367009 62.3997219,335.574512 63.1269791,337.042749 C63.8542363,338.510985 64.3482149,340.123276 64.6089297,341.879671 C64.8696445,343.636065 65,345.337547 65,346.984167 C65,348.630787 64.8696445,350.332269 64.6089297,352.088664 C64.3482149,353.845058 63.8542363,355.45735 63.1269791,356.925586 C62.3997219,358.393822 61.3843215,359.601325 60.0807473,360.548132 C58.7771731,361.494938 57.0962737,361.968334 55.0379987,361.968334 C52.9797237,361.968334 51.2988243,361.494938 49.9952502,360.548132 C48.691676,359.601325 47.6762755,358.393822 46.9490184,356.925586 C46.2217612,355.45735 45.7277826,353.845058 45.4670678,352.088664 C45.2063529,350.332269 45.0759975,348.630787 45.0759975,346.984167 C45.0759975,345.337547 45.2063529,343.636065 45.4670678,341.879671 C45.7277826,340.123276 46.2217612,338.510985 46.9490184,337.042749 C47.6762755,335.574512 48.691676,334.367009 49.9952502,333.420203 C51.2988243,332.473396 52.9797237,332 55.0379987,332 Z M55.0379987,358.057631 C56.0534144,358.057631 56.9041553,357.762616 57.590247,357.172578 C58.2763387,356.582539 58.818343,355.786684 59.2162761,354.784991 C59.6142093,353.783297 59.8955027,352.610097 60.0601647,351.265358 C60.2248267,349.920618 60.3071564,348.493569 60.3071564,346.984167 C60.3071564,345.474766 60.2248267,344.054577 60.0601647,342.723559 C59.8955027,341.392541 59.6142093,340.219342 59.2162761,339.203927 C58.818343,338.188511 58.2763387,337.385796 57.590247,336.795757 C56.9041553,336.205718 56.0534144,335.910703 55.0379987,335.910703 C53.9951394,335.910703 53.1375377,336.205718 52.4651678,336.795757 C51.792798,337.385796 51.2576545,338.188511 50.8597213,339.203927 C50.4617882,340.219342 50.1804948,341.392541 50.0158328,342.723559 C49.8511708,344.054577 49.768841,345.474766 49.768841,346.984167 C49.768841,348.493569 49.8511708,349.920618 50.0158328,351.265358 C50.1804948,352.610097 50.4617882,353.783297 50.8597213,354.784991 C51.2576545,355.786684 51.792798,356.582539 52.4651678,357.172578 C53.1375377,357.762616 53.9951394,358.057631 55.0379987,358.057631 Z" id="100" fill="#3E4F67"></path>
            <path d="M-123,148.516 L-119.976,148.516 L-119.976,150.476 L-119.92,150.476 C-119.471998,149.635996 -118.846671,149.034002 -118.044,148.67 C-117.241329,148.305998 -116.373338,148.124 -115.44,148.124 C-114.301328,148.124 -113.307338,148.324665 -112.458,148.726 C-111.608662,149.127335 -110.904003,149.677996 -110.344,150.378 C-109.783997,151.078003 -109.364001,151.894662 -109.084,152.828 C-108.803999,153.761338 -108.664,154.759995 -108.664,155.824 C-108.664,156.794672 -108.789999,157.737329 -109.042,158.652 C-109.294001,159.566671 -109.676664,160.373997 -110.19,161.074 C-110.703336,161.774003 -111.351996,162.333998 -112.136,162.754 C-112.920004,163.174002 -113.843995,163.384 -114.908,163.384 C-115.374669,163.384 -115.841331,163.342 -116.308,163.258 C-116.774669,163.174 -117.222665,163.038668 -117.652,162.852 C-118.081335,162.665332 -118.477998,162.427335 -118.842,162.138 C-119.206002,161.848665 -119.509332,161.508002 -119.752,161.116 L-119.808,161.116 L-119.808,168.34 L-123,168.34 L-123,148.516 Z M-111.856,155.768 C-111.856,155.114663 -111.939999,154.480003 -112.108,153.864 C-112.276001,153.247997 -112.527998,152.702002 -112.864,152.226 C-113.200002,151.749998 -113.619997,151.367335 -114.124,151.078 C-114.628003,150.788665 -115.206663,150.644 -115.86,150.644 C-117.204007,150.644 -118.216663,151.110662 -118.898,152.044 C-119.579337,152.977338 -119.92,154.218659 -119.92,155.768 C-119.92,156.496004 -119.831334,157.172664 -119.654,157.798 C-119.476666,158.423336 -119.210668,158.959998 -118.856,159.408 C-118.501332,159.856002 -118.076669,160.210665 -117.582,160.472 C-117.087331,160.733335 -116.513337,160.864 -115.86,160.864 C-115.131996,160.864 -114.516003,160.714668 -114.012,160.416 C-113.507997,160.117332 -113.092668,159.730002 -112.766,159.254 C-112.439332,158.777998 -112.206001,158.23667 -112.066,157.63 C-111.925999,157.02333 -111.856,156.40267 -111.856,155.768 Z M-99.34,163.384 C-100.497339,163.384 -101.528662,163.192669 -102.434,162.81 C-103.339338,162.427331 -104.104664,161.900003 -104.73,161.228 C-105.355336,160.555997 -105.831332,159.753338 -106.158,158.82 C-106.484668,157.886662 -106.648,156.860006 -106.648,155.74 C-106.648,154.638661 -106.484668,153.621338 -106.158,152.688 C-105.831332,151.754662 -105.355336,150.952003 -104.73,150.28 C-104.104664,149.607997 -103.339338,149.080669 -102.434,148.698 C-101.528662,148.315331 -100.497339,148.124 -99.34,148.124 C-98.1826609,148.124 -97.1513379,148.315331 -96.246,148.698 C-95.3406621,149.080669 -94.5753365,149.607997 -93.95,150.28 C-93.3246635,150.952003 -92.8486683,151.754662 -92.522,152.688 C-92.1953317,153.621338 -92.032,154.638661 -92.032,155.74 C-92.032,156.860006 -92.1953317,157.886662 -92.522,158.82 C-92.8486683,159.753338 -93.3246635,160.555997 -93.95,161.228 C-94.5753365,161.900003 -95.3406621,162.427331 -96.246,162.81 C-97.1513379,163.192669 -98.1826609,163.384 -99.34,163.384 Z M-99.34,160.864 C-98.6306631,160.864 -98.0146693,160.714668 -97.492,160.416 C-96.9693307,160.117332 -96.5400017,159.725336 -96.204,159.24 C-95.8679983,158.754664 -95.6206675,158.20867 -95.462,157.602 C-95.3033325,156.99533 -95.224,156.37467 -95.224,155.74 C-95.224,155.123997 -95.3033325,154.508003 -95.462,153.892 C-95.6206675,153.275997 -95.8679983,152.730002 -96.204,152.254 C-96.5400017,151.777998 -96.9693307,151.390668 -97.492,151.092 C-98.0146693,150.793332 -98.6306631,150.644 -99.34,150.644 C-100.049337,150.644 -100.665331,150.793332 -101.188,151.092 C-101.710669,151.390668 -102.139998,151.777998 -102.476,152.254 C-102.812002,152.730002 -103.059333,153.275997 -103.218,153.892 C-103.376667,154.508003 -103.456,155.123997 -103.456,155.74 C-103.456,156.37467 -103.376667,156.99533 -103.218,157.602 C-103.059333,158.20867 -102.812002,158.754664 -102.476,159.24 C-102.139998,159.725336 -101.710669,160.117332 -101.188,160.416 C-100.665331,160.714668 -100.049337,160.864 -99.34,160.864 Z M-89.288,143 L-86.096,143 L-86.096,154.368 L-80.328,148.516 L-76.408,148.516 L-81.952,153.836 L-75.876,162.992 L-79.768,162.992 L-84.192,155.964 L-86.096,157.812 L-86.096,162.992 L-89.288,162.992 L-89.288,143 Z M-64.396,154.48 C-64.4333335,153.975997 -64.5406658,153.490669 -64.718,153.024 C-64.8953342,152.557331 -65.1379985,152.151335 -65.446,151.806 C-65.7540015,151.460665 -66.1273311,151.180668 -66.566,150.966 C-67.0046689,150.751332 -67.494664,150.644 -68.036,150.644 C-68.5960028,150.644 -69.1046644,150.741999 -69.562,150.938 C-70.0193356,151.134001 -70.4113317,151.404665 -70.738,151.75 C-71.0646683,152.095335 -71.325999,152.501331 -71.522,152.968 C-71.718001,153.434669 -71.8253332,153.938664 -71.844,154.48 L-64.396,154.48 Z M-71.844,156.58 C-71.844,157.140003 -71.7646675,157.681331 -71.606,158.204 C-71.4473325,158.726669 -71.2093349,159.183998 -70.892,159.576 C-70.5746651,159.968002 -70.1733358,160.280665 -69.688,160.514 C-69.2026642,160.747334 -68.6240034,160.864 -67.952,160.864 C-67.018662,160.864 -66.2673362,160.663335 -65.698,160.262 C-65.1286638,159.860665 -64.7040014,159.258671 -64.424,158.456 L-61.4,158.456 C-61.5680008,159.240004 -61.8573313,159.939997 -62.268,160.556 C-62.6786687,161.172003 -63.1733304,161.689998 -63.752,162.11 C-64.3306696,162.530002 -64.9793297,162.847332 -65.698,163.062 C-66.4166703,163.276668 -67.1679961,163.384 -67.952,163.384 C-69.0906724,163.384 -70.0986623,163.197335 -70.976,162.824 C-71.8533377,162.450665 -72.5953303,161.928003 -73.202,161.256 C-73.8086697,160.583997 -74.2659985,159.781338 -74.574,158.848 C-74.8820015,157.914662 -75.036,156.888006 -75.036,155.768 C-75.036,154.741328 -74.8726683,153.766005 -74.546,152.842 C-74.2193317,151.917995 -73.7526697,151.106003 -73.146,150.406 C-72.5393303,149.705996 -71.806671,149.150669 -70.948,148.74 C-70.089329,148.329331 -69.1186721,148.124 -68.036,148.124 C-66.8973276,148.124 -65.8753379,148.361998 -64.97,148.838 C-64.0646621,149.314002 -63.3133363,149.943996 -62.716,150.728 C-62.1186637,151.512004 -61.684668,152.412662 -61.414,153.43 C-61.143332,154.447338 -61.0733327,155.497328 -61.204,156.58 L-71.844,156.58 Z M-58.768,148.516 L-55.772,148.516 L-55.772,151.316 L-55.716,151.316 C-55.6226662,150.923998 -55.440668,150.541335 -55.17,150.168 C-54.899332,149.794665 -54.5726686,149.454002 -54.19,149.146 C-53.8073314,148.837998 -53.382669,148.590668 -52.916,148.404 C-52.449331,148.217332 -51.9733358,148.124 -51.488,148.124 C-51.1146648,148.124 -50.8580007,148.133333 -50.718,148.152 C-50.5779993,148.170667 -50.4333341,148.189333 -50.284,148.208 L-50.284,151.288 C-50.5080011,151.250666 -50.7366655,151.218 -50.97,151.19 C-51.2033345,151.162 -51.4319989,151.148 -51.656,151.148 C-52.197336,151.148 -52.7059976,151.255332 -53.182,151.47 C-53.6580024,151.684668 -54.0733316,152.001998 -54.428,152.422 C-54.7826684,152.842002 -55.0626656,153.359997 -55.268,153.976 C-55.4733344,154.592003 -55.576,155.301329 -55.576,156.104 L-55.576,162.992 L-58.768,162.992 L-58.768,148.516 Z M-51.236,159.212 L-47.344,159.212 L-47.344,162.992 L-51.236,162.992 L-51.236,159.212 Z M-33.932,153.36 C-34.0626673,152.463996 -34.4219971,151.787336 -35.01,151.33 C-35.5980029,150.872664 -36.3399955,150.644 -37.236,150.644 C-37.6466687,150.644 -38.085331,150.713999 -38.552,150.854 C-39.018669,150.994001 -39.447998,151.255331 -39.84,151.638 C-40.232002,152.020669 -40.5586654,152.552663 -40.82,153.234 C-41.0813346,153.915337 -41.212,154.806661 -41.212,155.908 C-41.212,156.505336 -41.1420007,157.102664 -41.002,157.7 C-40.8619993,158.297336 -40.6380015,158.829331 -40.33,159.296 C-40.0219985,159.762669 -39.6253358,160.140665 -39.14,160.43 C-38.6546642,160.719335 -38.0666701,160.864 -37.376,160.864 C-36.442662,160.864 -35.6726697,160.57467 -35.066,159.996 C-34.4593303,159.41733 -34.0813341,158.605339 -33.932,157.56 L-30.74,157.56 C-31.0386682,159.445343 -31.752661,160.887328 -32.882,161.886 C-34.011339,162.884672 -35.509324,163.384 -37.376,163.384 C-38.5146724,163.384 -39.5179957,163.192669 -40.386,162.81 C-41.2540043,162.427331 -41.9866637,161.90467 -42.584,161.242 C-43.1813363,160.57933 -43.6339985,159.790671 -43.942,158.876 C-44.2500015,157.961329 -44.404,156.972005 -44.404,155.908 C-44.404,154.825328 -44.2546682,153.808005 -43.956,152.856 C-43.6573318,151.903995 -43.2093363,151.078003 -42.612,150.378 C-42.0146637,149.677996 -41.2726711,149.127335 -40.386,148.726 C-39.4993289,148.324665 -38.4586726,148.124 -37.264,148.124 C-36.4239958,148.124 -35.6260038,148.231332 -34.87,148.446 C-34.1139962,148.660668 -33.4420029,148.982665 -32.854,149.412 C-32.2659971,149.841335 -31.7853352,150.382663 -31.412,151.036 C-31.0386648,151.689337 -30.814667,152.463996 -30.74,153.36 L-33.932,153.36 Z M-28.052,143 L-24.86,143 L-24.86,162.992 L-28.052,162.992 L-28.052,143 Z M-14.752,163.384 C-15.9093391,163.384 -16.9406621,163.192669 -17.846,162.81 C-18.7513379,162.427331 -19.5166635,161.900003 -20.142,161.228 C-20.7673365,160.555997 -21.2433317,159.753338 -21.57,158.82 C-21.8966683,157.886662 -22.06,156.860006 -22.06,155.74 C-22.06,154.638661 -21.8966683,153.621338 -21.57,152.688 C-21.2433317,151.754662 -20.7673365,150.952003 -20.142,150.28 C-19.5166635,149.607997 -18.7513379,149.080669 -17.846,148.698 C-16.9406621,148.315331 -15.9093391,148.124 -14.752,148.124 C-13.5946609,148.124 -12.5633379,148.315331 -11.658,148.698 C-10.7526621,149.080669 -9.98733646,149.607997 -9.362,150.28 C-8.73666354,150.952003 -8.2606683,151.754662 -7.934,152.688 C-7.6073317,153.621338 -7.444,154.638661 -7.444,155.74 C-7.444,156.860006 -7.6073317,157.886662 -7.934,158.82 C-8.2606683,159.753338 -8.73666354,160.555997 -9.362,161.228 C-9.98733646,161.900003 -10.7526621,162.427331 -11.658,162.81 C-12.5633379,163.192669 -13.5946609,163.384 -14.752,163.384 Z M-14.752,160.864 C-14.0426631,160.864 -13.4266693,160.714668 -12.904,160.416 C-12.3813307,160.117332 -11.9520017,159.725336 -11.616,159.24 C-11.2799983,158.754664 -11.0326675,158.20867 -10.874,157.602 C-10.7153325,156.99533 -10.636,156.37467 -10.636,155.74 C-10.636,155.123997 -10.7153325,154.508003 -10.874,153.892 C-11.0326675,153.275997 -11.2799983,152.730002 -11.616,152.254 C-11.9520017,151.777998 -12.3813307,151.390668 -12.904,151.092 C-13.4266693,150.793332 -14.0426631,150.644 -14.752,150.644 C-15.4613369,150.644 -16.0773307,150.793332 -16.6,151.092 C-17.1226693,151.390668 -17.5519983,151.777998 -17.888,152.254 C-18.2240017,152.730002 -18.4713325,153.275997 -18.63,153.892 C-18.7886675,154.508003 -18.868,155.123997 -18.868,155.74 C-18.868,156.37467 -18.7886675,156.99533 -18.63,157.602 C-18.4713325,158.20867 -18.2240017,158.754664 -17.888,159.24 C-17.5519983,159.725336 -17.1226693,160.117332 -16.6,160.416 C-16.0773307,160.714668 -15.4613369,160.864 -14.752,160.864 Z M7.928,162.992 L4.792,162.992 L4.792,160.976 L4.736,160.976 C4.34399804,161.704004 3.76067054,162.287331 2.986,162.726 C2.21132946,163.164669 1.42267068,163.384 0.62,163.384 C-1.28400952,163.384 -2.66066242,162.912671 -3.51,161.97 C-4.35933758,161.027329 -4.784,159.60401 -4.784,157.7 L-4.784,148.516 L-1.592,148.516 L-1.592,157.392 C-1.592,158.66134 -1.34933576,159.557331 -0.864,160.08 C-0.37866424,160.602669 0.30266228,160.864 1.18,160.864 C1.85200336,160.864 2.41199776,160.761334 2.86,160.556 C3.30800224,160.350666 3.6719986,160.075335 3.952,159.73 C4.2320014,159.384665 4.43266606,158.969336 4.554,158.484 C4.67533394,157.998664 4.736,157.476003 4.736,156.916 L4.736,148.516 L7.928,148.516 L7.928,162.992 Z M24.924,162.992 L21.9,162.992 L21.9,161.032 L21.844,161.032 C21.4146645,161.872004 20.7893374,162.473998 19.968,162.838 C19.1466626,163.202002 18.2786712,163.384 17.364,163.384 C16.2253276,163.384 15.2313376,163.183335 14.382,162.782 C13.5326624,162.380665 12.8280028,161.83467 12.268,161.144 C11.7079972,160.45333 11.2880014,159.636671 11.008,158.694 C10.7279986,157.751329 10.588,156.738672 10.588,155.656 C10.588,154.349327 10.7653316,153.220005 11.12,152.268 C11.4746684,151.315995 11.9459971,150.532003 12.534,149.916 C13.1220029,149.299997 13.7939962,148.847335 14.55,148.558 C15.3060038,148.268665 16.0759961,148.124 16.86,148.124 C17.3080022,148.124 17.765331,148.166 18.232,148.25 C18.698669,148.334 19.1466645,148.469332 19.576,148.656 C20.0053355,148.842668 20.4019982,149.080665 20.766,149.37 C21.1300018,149.659335 21.4333321,149.999998 21.676,150.392 L21.732,150.392 L21.732,143 L24.924,143 L24.924,162.992 Z M13.78,155.908 C13.78,156.524003 13.8593325,157.130664 14.018,157.728 C14.1766675,158.325336 14.4193317,158.857331 14.746,159.324 C15.0726683,159.790669 15.4879975,160.163999 15.992,160.444 C16.4960025,160.724001 17.0933299,160.864 17.784,160.864 C18.4933369,160.864 19.1046641,160.714668 19.618,160.416 C20.1313359,160.117332 20.5513317,159.725336 20.878,159.24 C21.2046683,158.754664 21.4473325,158.20867 21.606,157.602 C21.7646675,156.99533 21.844,156.37467 21.844,155.74 C21.844,154.134659 21.4846703,152.884004 20.766,151.988 C20.0473297,151.091996 19.0720062,150.644 17.84,150.644 C17.0933296,150.644 16.4633359,150.797998 15.95,151.106 C15.4366641,151.414002 15.0166683,151.815331 14.69,152.31 C14.3633317,152.804669 14.1300007,153.364664 13.99,153.99 C13.8499993,154.615336 13.78,155.254663 13.78,155.908 Z M26.94,148.516 L29.348,148.516 L29.348,144.176 L32.54,144.176 L32.54,148.516 L35.424,148.516 L35.424,150.896 L32.54,150.896 L32.54,158.624 C32.54,158.960002 32.5539999,159.249332 32.582,159.492 C32.6100001,159.734668 32.6753328,159.939999 32.778,160.108 C32.8806672,160.276001 33.0346656,160.402 33.24,160.486 C33.4453344,160.57 33.7253316,160.612 34.08,160.612 C34.3040011,160.612 34.5279989,160.607333 34.752,160.598 C34.9760011,160.588667 35.1999989,160.556 35.424,160.5 L35.424,162.964 C35.0693316,163.001334 34.7240017,163.038666 34.388,163.076 C34.0519983,163.113334 33.7066684,163.132 33.352,163.132 C32.5119958,163.132 31.8353359,163.052667 31.322,162.894 C30.8086641,162.735333 30.4073348,162.502002 30.118,162.194 C29.8286652,161.885998 29.6326672,161.498669 29.53,161.032 C29.4273328,160.565331 29.3666668,160.033336 29.348,159.436 L29.348,150.896 L26.94,150.896 L26.94,148.516 Z M37.72,148.516 L40.716,148.516 L40.716,151.316 L40.772,151.316 C40.8653338,150.923998 41.047332,150.541335 41.318,150.168 C41.588668,149.794665 41.9153314,149.454002 42.298,149.146 C42.6806686,148.837998 43.105331,148.590668 43.572,148.404 C44.038669,148.217332 44.5146642,148.124 45,148.124 C45.3733352,148.124 45.6299993,148.133333 45.77,148.152 C45.9100007,148.170667 46.0546659,148.189333 46.204,148.208 L46.204,151.288 C45.9799989,151.250666 45.7513345,151.218 45.518,151.19 C45.2846655,151.162 45.0560011,151.148 44.832,151.148 C44.290664,151.148 43.7820024,151.255332 43.306,151.47 C42.8299976,151.684668 42.4146684,152.001998 42.06,152.422 C41.7053316,152.842002 41.4253344,153.359997 41.22,153.976 C41.0146656,154.592003 40.912,155.301329 40.912,156.104 L40.912,162.992 L37.72,162.992 L37.72,148.516 Z M60.288,162.992 L57.152,162.992 L57.152,160.976 L57.096,160.976 C56.703998,161.704004 56.1206705,162.287331 55.346,162.726 C54.5713295,163.164669 53.7826707,163.384 52.98,163.384 C51.0759905,163.384 49.6993376,162.912671 48.85,161.97 C48.0006624,161.027329 47.576,159.60401 47.576,157.7 L47.576,148.516 L50.768,148.516 L50.768,157.392 C50.768,158.66134 51.0106642,159.557331 51.496,160.08 C51.9813358,160.602669 52.6626623,160.864 53.54,160.864 C54.2120034,160.864 54.7719978,160.761334 55.22,160.556 C55.6680022,160.350666 56.0319986,160.075335 56.312,159.73 C56.5920014,159.384665 56.7926661,158.969336 56.914,158.484 C57.0353339,157.998664 57.096,157.476003 57.096,156.916 L57.096,148.516 L60.288,148.516 L60.288,162.992 Z M66.056,158.344 C66.1493338,159.277338 66.5039969,159.930665 67.12,160.304 C67.7360031,160.677335 68.473329,160.864 69.332,160.864 C69.6306682,160.864 69.9713314,160.840667 70.354,160.794 C70.7366686,160.747333 71.0959983,160.658667 71.432,160.528 C71.7680017,160.397333 72.0433323,160.206001 72.258,159.954 C72.4726677,159.701999 72.5706668,159.370669 72.552,158.96 C72.5333332,158.549331 72.3840014,158.213335 72.104,157.952 C71.8239986,157.690665 71.4646689,157.480667 71.026,157.322 C70.5873311,157.163333 70.0880028,157.028001 69.528,156.916 C68.9679972,156.803999 68.3986696,156.682667 67.82,156.552 C67.2226637,156.421333 66.6486694,156.262668 66.098,156.076 C65.5473306,155.889332 65.0526689,155.637335 64.614,155.32 C64.1753311,155.002665 63.8253346,154.596669 63.564,154.102 C63.3026654,153.607331 63.172,152.996004 63.172,152.268 C63.172,151.483996 63.3633314,150.826003 63.746,150.294 C64.1286686,149.761997 64.6139971,149.332668 65.202,149.006 C65.7900029,148.679332 66.4433297,148.450667 67.162,148.32 C67.8806703,148.189333 68.5666634,148.124 69.22,148.124 C69.9666704,148.124 70.6806633,148.203333 71.362,148.362 C72.0433367,148.520667 72.6593306,148.777332 73.21,149.132 C73.7606694,149.486668 74.2179982,149.948664 74.582,150.518 C74.9460018,151.087336 75.1746662,151.773329 75.268,152.576 L71.936,152.576 C71.7866659,151.810663 71.4366694,151.297335 70.886,151.036 C70.3353306,150.774665 69.7053369,150.644 68.996,150.644 C68.7719989,150.644 68.5060015,150.662666 68.198,150.7 C67.8899985,150.737334 67.600668,150.807333 67.33,150.91 C67.059332,151.012667 66.8306676,151.161999 66.644,151.358 C66.4573324,151.554001 66.364,151.810665 66.364,152.128 C66.364,152.520002 66.499332,152.837332 66.77,153.08 C67.040668,153.322668 67.3953311,153.523333 67.834,153.682 C68.2726689,153.840667 68.7719972,153.975999 69.332,154.088 C69.8920028,154.200001 70.4706637,154.321333 71.068,154.452 C71.6466696,154.582667 72.2159972,154.741332 72.776,154.928 C73.3360028,155.114668 73.8353311,155.366665 74.274,155.684 C74.7126689,156.001335 75.067332,156.402664 75.338,156.888 C75.608668,157.373336 75.744,157.970663 75.744,158.68 C75.744,159.538671 75.548002,160.266664 75.156,160.864 C74.763998,161.461336 74.2553365,161.946665 73.63,162.32 C73.0046635,162.693335 72.3093372,162.963999 71.544,163.132 C70.7786628,163.300001 70.0226704,163.384 69.276,163.384 C68.3613288,163.384 67.5166705,163.281334 66.742,163.076 C65.9673295,162.870666 65.2953362,162.558002 64.726,162.138 C64.1566638,161.717998 63.7086683,161.195336 63.382,160.57 C63.0553317,159.944664 62.8826668,159.202671 62.864,158.344 L66.056,158.344 Z M76.724,148.516 L79.132,148.516 L79.132,144.176 L82.324,144.176 L82.324,148.516 L85.208,148.516 L85.208,150.896 L82.324,150.896 L82.324,158.624 C82.324,158.960002 82.3379999,159.249332 82.366,159.492 C82.3940001,159.734668 82.4593328,159.939999 82.562,160.108 C82.6646672,160.276001 82.8186656,160.402 83.024,160.486 C83.2293344,160.57 83.5093316,160.612 83.864,160.612 C84.0880011,160.612 84.3119989,160.607333 84.536,160.598 C84.7600011,160.588667 84.9839989,160.556 85.208,160.5 L85.208,162.964 C84.8533316,163.001334 84.5080017,163.038666 84.172,163.076 C83.8359983,163.113334 83.4906684,163.132 83.136,163.132 C82.2959958,163.132 81.6193359,163.052667 81.106,162.894 C80.5926641,162.735333 80.1913348,162.502002 79.902,162.194 C79.6126652,161.885998 79.4166672,161.498669 79.314,161.032 C79.2113328,160.565331 79.1506668,160.033336 79.132,159.436 L79.132,150.896 L76.724,150.896 L76.724,148.516 Z M87.756,159.212 L91.648,159.212 L91.648,162.992 L87.756,162.992 L87.756,159.212 Z M105.06,153.36 C104.929333,152.463996 104.570003,151.787336 103.982,151.33 C103.393997,150.872664 102.652004,150.644 101.756,150.644 C101.345331,150.644 100.906669,150.713999 100.44,150.854 C99.973331,150.994001 99.544002,151.255331 99.152,151.638 C98.759998,152.020669 98.4333346,152.552663 98.172,153.234 C97.9106654,153.915337 97.78,154.806661 97.78,155.908 C97.78,156.505336 97.8499993,157.102664 97.99,157.7 C98.1300007,158.297336 98.3539985,158.829331 98.662,159.296 C98.9700015,159.762669 99.3666642,160.140665 99.852,160.43 C100.337336,160.719335 100.92533,160.864 101.616,160.864 C102.549338,160.864 103.31933,160.57467 103.926,159.996 C104.53267,159.41733 104.910666,158.605339 105.06,157.56 L108.252,157.56 C107.953332,159.445343 107.239339,160.887328 106.11,161.886 C104.980661,162.884672 103.482676,163.384 101.616,163.384 C100.477328,163.384 99.4740043,163.192669 98.606,162.81 C97.7379957,162.427331 97.0053363,161.90467 96.408,161.242 C95.8106637,160.57933 95.3580015,159.790671 95.05,158.876 C94.7419985,157.961329 94.588,156.972005 94.588,155.908 C94.588,154.825328 94.7373318,153.808005 95.036,152.856 C95.3346682,151.903995 95.7826637,151.078003 96.38,150.378 C96.9773363,149.677996 97.7193289,149.127335 98.606,148.726 C99.4926711,148.324665 100.533327,148.124 101.728,148.124 C102.568004,148.124 103.365996,148.231332 104.122,148.446 C104.878004,148.660668 105.549997,148.982665 106.138,149.412 C106.726003,149.841335 107.206665,150.382663 107.58,151.036 C107.953335,151.689337 108.177333,152.463996 108.252,153.36 L105.06,153.36 Z M117.492,163.384 C116.334661,163.384 115.303338,163.192669 114.398,162.81 C113.492662,162.427331 112.727336,161.900003 112.102,161.228 C111.476664,160.555997 111.000668,159.753338 110.674,158.82 C110.347332,157.886662 110.184,156.860006 110.184,155.74 C110.184,154.638661 110.347332,153.621338 110.674,152.688 C111.000668,151.754662 111.476664,150.952003 112.102,150.28 C112.727336,149.607997 113.492662,149.080669 114.398,148.698 C115.303338,148.315331 116.334661,148.124 117.492,148.124 C118.649339,148.124 119.680662,148.315331 120.586,148.698 C121.491338,149.080669 122.256664,149.607997 122.882,150.28 C123.507336,150.952003 123.983332,151.754662 124.31,152.688 C124.636668,153.621338 124.8,154.638661 124.8,155.74 C124.8,156.860006 124.636668,157.886662 124.31,158.82 C123.983332,159.753338 123.507336,160.555997 122.882,161.228 C122.256664,161.900003 121.491338,162.427331 120.586,162.81 C119.680662,163.192669 118.649339,163.384 117.492,163.384 Z M117.492,160.864 C118.201337,160.864 118.817331,160.714668 119.34,160.416 C119.862669,160.117332 120.291998,159.725336 120.628,159.24 C120.964002,158.754664 121.211333,158.20867 121.37,157.602 C121.528667,156.99533 121.608,156.37467 121.608,155.74 C121.608,155.123997 121.528667,154.508003 121.37,153.892 C121.211333,153.275997 120.964002,152.730002 120.628,152.254 C120.291998,151.777998 119.862669,151.390668 119.34,151.092 C118.817331,150.793332 118.201337,150.644 117.492,150.644 C116.782663,150.644 116.166669,150.793332 115.644,151.092 C115.121331,151.390668 114.692002,151.777998 114.356,152.254 C114.019998,152.730002 113.772667,153.275997 113.614,153.892 C113.455333,154.508003 113.376,155.123997 113.376,155.74 C113.376,156.37467 113.455333,156.99533 113.614,157.602 C113.772667,158.20867 114.019998,158.754664 114.356,159.24 C114.692002,159.725336 115.121331,160.117332 115.644,160.416 C116.166669,160.714668 116.782663,160.864 117.492,160.864 Z M127.46,148.516 L130.484,148.516 L130.484,150.532 L130.568,150.532 C130.810668,150.177332 131.071999,149.850668 131.352,149.552 C131.632001,149.253332 131.944665,149.001334 132.29,148.796 C132.635335,148.590666 133.031998,148.427334 133.48,148.306 C133.928002,148.184666 134.44133,148.124 135.02,148.124 C135.897338,148.124 136.713996,148.319998 137.47,148.712 C138.226004,149.104002 138.762665,149.710663 139.08,150.532 C139.621336,149.78533 140.246663,149.197335 140.956,148.768 C141.665337,148.338665 142.551995,148.124 143.616,148.124 C145.146674,148.124 146.336662,148.49733 147.186,149.244 C148.035338,149.99067 148.46,151.241325 148.46,152.996 L148.46,162.992 L145.268,162.992 L145.268,154.536 C145.268,153.95733 145.249334,153.430002 145.212,152.954 C145.174666,152.477998 145.067334,152.067335 144.89,151.722 C144.712666,151.376665 144.446668,151.110668 144.092,150.924 C143.737332,150.737332 143.252003,150.644 142.636,150.644 C141.553328,150.644 140.769336,150.979997 140.284,151.652 C139.798664,152.324003 139.556,153.275994 139.556,154.508 L139.556,162.992 L136.364,162.992 L136.364,153.696 C136.364,152.687995 136.182002,151.927336 135.818,151.414 C135.453998,150.900664 134.786672,150.644 133.816,150.644 C133.405331,150.644 133.008669,150.727999 132.626,150.896 C132.243331,151.064001 131.907335,151.306665 131.618,151.624 C131.328665,151.941335 131.095334,152.333331 130.918,152.8 C130.740666,153.266669 130.652,153.798664 130.652,154.396 L130.652,162.992 L127.46,162.992 L127.46,148.516 Z M152.072,159.212 L155.964,159.212 L155.964,162.992 L152.072,162.992 L152.072,159.212 Z M169.376,153.36 C169.245333,152.463996 168.886003,151.787336 168.298,151.33 C167.709997,150.872664 166.968004,150.644 166.072,150.644 C165.661331,150.644 165.222669,150.713999 164.756,150.854 C164.289331,150.994001 163.860002,151.255331 163.468,151.638 C163.075998,152.020669 162.749335,152.552663 162.488,153.234 C162.226665,153.915337 162.096,154.806661 162.096,155.908 C162.096,156.505336 162.165999,157.102664 162.306,157.7 C162.446001,158.297336 162.669998,158.829331 162.978,159.296 C163.286002,159.762669 163.682664,160.140665 164.168,160.43 C164.653336,160.719335 165.24133,160.864 165.932,160.864 C166.865338,160.864 167.63533,160.57467 168.242,159.996 C168.84867,159.41733 169.226666,158.605339 169.376,157.56 L172.568,157.56 C172.269332,159.445343 171.555339,160.887328 170.426,161.886 C169.296661,162.884672 167.798676,163.384 165.932,163.384 C164.793328,163.384 163.790004,163.192669 162.922,162.81 C162.053996,162.427331 161.321336,161.90467 160.724,161.242 C160.126664,160.57933 159.674002,159.790671 159.366,158.876 C159.057998,157.961329 158.904,156.972005 158.904,155.908 C158.904,154.825328 159.053332,153.808005 159.352,152.856 C159.650668,151.903995 160.098664,151.078003 160.696,150.378 C161.293336,149.677996 162.035329,149.127335 162.922,148.726 C163.808671,148.324665 164.849327,148.124 166.044,148.124 C166.884004,148.124 167.681996,148.231332 168.438,148.446 C169.194004,148.660668 169.865997,148.982665 170.454,149.412 C171.042003,149.841335 171.522665,150.382663 171.896,151.036 C172.269335,151.689337 172.493333,152.463996 172.568,153.36 L169.376,153.36 Z M175.172,148.516 L178.196,148.516 L178.196,150.644 L178.252,150.7 C178.737336,149.897329 179.371996,149.267336 180.156,148.81 C180.940004,148.352664 181.807995,148.124 182.76,148.124 C184.346675,148.124 185.597329,148.534663 186.512,149.356 C187.426671,150.177337 187.884,151.409325 187.884,153.052 L187.884,162.992 L184.692,162.992 L184.692,153.892 C184.654666,152.753328 184.412002,151.927336 183.964,151.414 C183.515998,150.900664 182.816005,150.644 181.864,150.644 C181.322664,150.644 180.837335,150.741999 180.408,150.938 C179.978665,151.134001 179.614668,151.404665 179.316,151.75 C179.017332,152.095335 178.784001,152.501331 178.616,152.968 C178.447999,153.434669 178.364,153.929331 178.364,154.452 L178.364,162.992 L175.172,162.992 L175.172,148.516 Z" id="poker.cloudtrust.com.cn" fill="#D1D6DD" transform="translate(32.442000, 155.670000) rotate(90.000000) translate(-32.442000, -155.670000) "></path>
        </g>
    </g>
</svg>