<?xml version="1.0" encoding="utf-8"?>
<!-- Generator: Adobe Illustrator 17.0.0, SVG Export Plug-In . SVG Version: 6.00 Build 0)  -->
<!DOCTYPE svg PUBLIC "-//W3C//DTD SVG 1.1//EN" "http://www.w3.org/Graphics/SVG/1.1/DTD/svg11.dtd">
<svg version="1.1" id="图层_1" xmlns="http://www.w3.org/2000/svg" xmlns:xlink="http://www.w3.org/1999/xlink" x="0px" y="0px"
	 width="65.2px" height="198.43px" viewBox="0 0 65.2 198.43" enable-background="new 0 0 65.2 198.43" xml:space="preserve">
<g display="none">
	<path display="inline" fill="#3E4F67" d="M1.02,6.999c0.96,0,1.893-0.08,2.8-0.24c0.906-0.16,1.727-0.426,2.46-0.8
		c0.733-0.373,1.36-0.853,1.88-1.44c0.52-0.586,0.86-1.307,1.02-2.16h3.72v28h-5v-19.76H1.02V6.999z"/>
	<path display="inline" fill="#3E4F67" d="M32.261,1.799c2,0,3.633,0.46,4.899,1.38c1.267,0.92,2.253,2.094,2.96,3.52
		c0.706,1.427,1.187,2.994,1.44,4.7c0.253,1.707,0.38,3.36,0.38,4.96s-0.127,3.254-0.38,4.96c-0.254,1.707-0.734,3.274-1.44,4.7
		c-0.707,1.427-1.693,2.6-2.96,3.52s-2.899,1.38-4.899,1.38s-3.634-0.46-4.9-1.38s-2.254-2.093-2.96-3.52
		c-0.707-1.426-1.187-2.993-1.44-4.7c-0.253-1.706-0.38-3.36-0.38-4.96s0.127-3.253,0.38-4.96c0.254-1.706,0.733-3.273,1.44-4.7
		c0.706-1.426,1.693-2.6,2.96-3.52C28.627,2.259,30.261,1.799,32.261,1.799z M32.261,27.118c0.986,0,1.812-0.286,2.479-0.86
		c0.666-0.573,1.193-1.346,1.58-2.32c0.387-0.973,0.66-2.113,0.82-3.42s0.24-2.693,0.24-4.16c0-1.466-0.08-2.846-0.24-4.14
		c-0.16-1.293-0.434-2.433-0.82-3.42c-0.387-0.986-0.914-1.766-1.58-2.34c-0.667-0.573-1.493-0.86-2.479-0.86
		c-1.014,0-1.848,0.287-2.5,0.86c-0.654,0.574-1.174,1.354-1.561,2.34c-0.387,0.987-0.66,2.127-0.819,3.42
		c-0.16,1.294-0.24,2.674-0.24,4.14c0,1.467,0.08,2.854,0.24,4.16c0.159,1.307,0.433,2.447,0.819,3.42
		c0.387,0.974,0.906,1.747,1.561,2.32C30.413,26.832,31.247,27.118,32.261,27.118z"/>
	<path display="inline" fill="#3E4F67" d="M54.5,1.799c2,0,3.633,0.46,4.9,1.38c1.266,0.92,2.253,2.094,2.96,3.52
		c0.706,1.427,1.186,2.994,1.439,4.7c0.254,1.707,0.38,3.36,0.38,4.96s-0.126,3.254-0.38,4.96c-0.254,1.707-0.733,3.274-1.439,4.7
		c-0.707,1.427-1.694,2.6-2.96,3.52c-1.268,0.92-2.9,1.38-4.9,1.38s-3.634-0.46-4.899-1.38c-1.268-0.92-2.254-2.093-2.961-3.52
		c-0.706-1.426-1.187-2.993-1.439-4.7c-0.254-1.706-0.38-3.36-0.38-4.96s0.126-3.253,0.38-4.96c0.253-1.706,0.733-3.273,1.439-4.7
		c0.707-1.426,1.693-2.6,2.961-3.52C50.866,2.259,52.5,1.799,54.5,1.799z M54.5,27.118c0.986,0,1.813-0.286,2.48-0.86
		c0.666-0.573,1.192-1.346,1.58-2.32c0.386-0.973,0.659-2.113,0.819-3.42s0.24-2.693,0.24-4.16c0-1.466-0.08-2.846-0.24-4.14
		c-0.16-1.293-0.434-2.433-0.819-3.42c-0.388-0.986-0.914-1.766-1.58-2.34c-0.667-0.573-1.494-0.86-2.48-0.86
		c-1.014,0-1.847,0.287-2.5,0.86c-0.653,0.574-1.174,1.354-1.56,2.34c-0.387,0.987-0.66,2.127-0.82,3.42
		c-0.16,1.294-0.24,2.674-0.24,4.14c0,1.467,0.08,2.854,0.24,4.16s0.434,2.447,0.82,3.42c0.386,0.974,0.906,1.747,1.56,2.32
		C52.653,26.832,53.486,27.118,54.5,27.118z"/>
</g>
<g>
	<path fill="#D1D6DD" d="M22.056,197.43v-16.184h3.024v6.356h16.968v3.5H25.08v6.328H22.056z"/>
	<path fill="#D1D6DD" d="M22.056,178.922v-9.548c0-2.202,0.476-3.854,1.428-4.956s2.278-1.652,3.976-1.652
		c0.952,0,1.741,0.141,2.366,0.421c0.626,0.279,1.13,0.606,1.512,0.979c0.383,0.374,0.658,0.742,0.826,1.106
		c0.168,0.363,0.28,0.63,0.336,0.798h0.056c0.038-0.299,0.131-0.621,0.28-0.966c0.149-0.346,0.388-0.668,0.714-0.967
		c0.327-0.298,0.751-0.546,1.274-0.741c0.523-0.196,1.176-0.295,1.96-0.295c1.176,0,2.246-0.088,3.207-0.266
		c0.961-0.177,1.647-0.452,2.058-0.826v3.752c-0.429,0.262-0.905,0.416-1.428,0.462c-0.522,0.047-1.026,0.07-1.513,0.07
		c-0.914,0-1.703,0.056-2.366,0.168c-0.662,0.112-1.213,0.317-1.652,0.616c-0.438,0.299-0.76,0.705-0.966,1.218
		c-0.206,0.514-0.308,1.172-0.308,1.975v5.151h8.232v3.5H22.056z M31.156,175.422v-5.74c0-1.119-0.266-1.969-0.798-2.548
		c-0.532-0.578-1.33-0.868-2.394-0.868c-0.634,0-1.152,0.094-1.554,0.28c-0.401,0.187-0.714,0.443-0.938,0.771
		c-0.224,0.326-0.373,0.699-0.448,1.12c-0.074,0.42-0.112,0.854-0.112,1.302v5.684H31.156z"/>
	<path fill="#D1D6DD" d="M22.056,153.863v-3.725l19.992-7.699v3.752l-5.292,1.876v7.979l5.292,1.876v3.612L22.056,153.863z
		 M34.096,155.094v-6.104l-8.596,2.996v0.084L34.096,155.094z"/>
	<path fill="#D1D6DD" d="M22.056,140.675v-3.696l14.728-9.128v-0.057H22.056v-3.332h19.992v3.696l-14.7,9.101v0.084h14.7v3.332
		H22.056z"/>
	<path fill="#D1D6DD" d="M22.056,122.223v-16.185h3.024v6.356h16.968v3.5H25.08v6.328H22.056z"/>
	<path fill="#D1D6DD" d="M22.056,103.715V89.324h3.024v10.892h5.236v-10.08h2.856v10.08h5.852V89.127h3.024v14.588H22.056z"/>
	<path fill="#D1D6DD" d="M28.412,72.579c-0.578,0.149-1.11,0.355-1.596,0.616c-0.485,0.262-0.905,0.598-1.26,1.008
		c-0.354,0.411-0.63,0.892-0.826,1.442c-0.196,0.551-0.294,1.189-0.294,1.918c0,1.063,0.215,1.983,0.644,2.758
		s1.003,1.405,1.722,1.89c0.719,0.486,1.536,0.846,2.45,1.078c0.915,0.234,1.848,0.351,2.8,0.351c0.952,0,1.886-0.116,2.8-0.351
		c0.915-0.232,1.731-0.592,2.45-1.078c0.719-0.484,1.293-1.115,1.722-1.89c0.43-0.774,0.645-1.694,0.645-2.758
		c0-0.784-0.136-1.475-0.406-2.072c-0.27-0.597-0.645-1.11-1.12-1.54c-0.476-0.429-1.031-0.765-1.666-1.008
		c-0.635-0.242-1.316-0.401-2.044-0.476v-3.416c1.195,0.074,2.287,0.331,3.276,0.77s1.844,1.031,2.562,1.778
		c0.719,0.746,1.274,1.624,1.666,2.632c0.393,1.008,0.588,2.119,0.588,3.332c0,1.493-0.275,2.833-0.825,4.018
		c-0.551,1.186-1.303,2.189-2.254,3.011c-0.952,0.821-2.063,1.451-3.333,1.89c-1.269,0.438-2.623,0.658-4.06,0.658
		c-1.418,0-2.762-0.22-4.032-0.658s-2.38-1.068-3.332-1.89c-0.952-0.821-1.708-1.825-2.268-3.011c-0.56-1.185-0.84-2.524-0.84-4.018
		c0-1.12,0.154-2.175,0.462-3.164c0.308-0.989,0.756-1.862,1.344-2.618s1.302-1.367,2.142-1.834c0.84-0.466,1.802-0.756,2.884-0.868
		V72.579z"/>
	<path fill="#D1D6DD" d="M22.056,67.764V51.579h3.024v6.356h16.968v3.5H25.08v6.328H22.056z"/>
</g>
<g display="none">
	<path display="inline" fill="#3E4F67" d="M32.044,1.04c2.208,0,4.011,0.508,5.409,1.524c1.4,1.016,2.489,2.312,3.269,3.887
		c0.781,1.576,1.309,3.306,1.589,5.19c0.28,1.885,0.421,3.71,0.421,5.476s-0.14,3.593-0.421,5.476
		c-0.28,1.885-0.809,3.615-1.589,5.19c-0.781,1.575-1.87,2.87-3.269,3.887c-1.397,1.016-3.2,1.524-5.409,1.524
		c-2.209,0-4.013-0.508-5.411-1.524c-1.399-1.016-2.489-2.311-3.269-3.887c-0.78-1.575-1.31-3.305-1.59-5.19
		c-0.28-1.884-0.419-3.71-0.419-5.476s0.14-3.592,0.419-5.476c0.28-1.884,0.81-3.614,1.59-5.19c0.78-1.575,1.87-2.87,3.269-3.887
		C28.032,1.548,29.836,1.04,32.044,1.04z M32.044,28.997c1.089,0,2.001-0.316,2.737-0.949c0.738-0.633,1.318-1.486,1.745-2.561
		c0.427-1.074,0.729-2.333,0.906-3.776s0.265-2.974,0.265-4.593c0-1.619-0.088-3.143-0.265-4.571
		c-0.177-1.428-0.479-2.686-0.906-3.776c-0.427-1.089-1.007-1.95-1.745-2.584c-0.735-0.633-1.648-0.949-2.737-0.949
		c-1.12,0-2.04,0.316-2.761,0.949c-0.722,0.633-1.296,1.494-1.723,2.584c-0.427,1.09-0.729,2.348-0.905,3.776
		c-0.177,1.429-0.265,2.952-0.265,4.571c0,1.62,0.088,3.151,0.265,4.593c0.176,1.443,0.478,2.702,0.905,3.776
		c0.426,1.075,1.001,1.928,1.723,2.561C30.004,28.681,30.925,28.997,32.044,28.997z"/>
</g>
<g display="none">
	<path display="inline" fill="#3E4F67" d="M23.333,5.64c0.96,0,1.893-0.08,2.8-0.24c0.906-0.16,1.727-0.426,2.46-0.8
		c0.733-0.373,1.36-0.853,1.88-1.44c0.521-0.586,0.86-1.307,1.021-2.16h3.72v28h-5V9.24h-6.88V5.64z"/>
</g>
<g>
	<path fill="#3E4F67" d="M41.592,30.207h-19.12c0.026-2.32,0.587-4.346,1.681-6.08c1.093-1.733,2.586-3.24,4.479-4.52
		c0.906-0.666,1.854-1.313,2.84-1.94c0.986-0.626,1.894-1.3,2.721-2.02c0.826-0.72,1.506-1.5,2.04-2.34
		c0.533-0.84,0.812-1.806,0.84-2.9c0-0.506-0.061-1.046-0.18-1.62c-0.12-0.573-0.354-1.106-0.7-1.6
		c-0.347-0.493-0.827-0.906-1.44-1.24s-1.414-0.5-2.399-0.5c-0.907,0-1.66,0.18-2.261,0.54c-0.6,0.36-1.08,0.854-1.439,1.48
		c-0.36,0.627-0.627,1.367-0.8,2.22c-0.174,0.854-0.274,1.774-0.301,2.76h-4.56c0-1.546,0.206-2.98,0.62-4.3
		c0.413-1.32,1.033-2.46,1.859-3.42c0.827-0.96,1.834-1.713,3.021-2.26c1.187-0.546,2.566-0.82,4.14-0.82
		c1.706,0,3.134,0.28,4.28,0.84c1.146,0.56,2.073,1.267,2.78,2.12c0.706,0.854,1.206,1.78,1.5,2.78c0.293,1,0.439,1.954,0.439,2.86
		c0,1.12-0.174,2.134-0.52,3.04c-0.347,0.907-0.813,1.74-1.4,2.5c-0.587,0.76-1.254,1.46-2,2.1c-0.747,0.64-1.52,1.24-2.319,1.8
		c-0.801,0.56-1.601,1.094-2.4,1.6c-0.8,0.507-1.54,1.014-2.22,1.52c-0.681,0.507-1.274,1.034-1.78,1.58
		c-0.507,0.547-0.854,1.126-1.04,1.74h13.64V30.207z"/>
</g>
</svg>
