<?xml version="1.0" encoding="utf-8"?>
<!-- Generator: Adobe Illustrator 17.0.0, SVG Export Plug-In . SVG Version: 6.00 Build 0)  -->
<!DOCTYPE svg PUBLIC "-//W3C//DTD SVG 1.1//EN" "http://www.w3.org/Graphics/SVG/1.1/DTD/svg11.dtd">
<svg version="1.1" id="图层_1" xmlns="http://www.w3.org/2000/svg" xmlns:xlink="http://www.w3.org/1999/xlink" x="0px" y="0px"
	 width="65.2px" height="198.43px" viewBox="0 0 65.2 198.43" enable-background="new 0 0 65.2 198.43" xml:space="preserve">
<g display="none">
	<path display="inline" fill="#3E4F67" d="M1.02,6.999c0.96,0,1.893-0.08,2.8-0.24c0.906-0.16,1.727-0.426,2.46-0.8
		c0.733-0.373,1.36-0.853,1.88-1.44c0.52-0.586,0.86-1.307,1.02-2.16h3.72v28h-5v-19.76H1.02V6.999z"/>
	<path display="inline" fill="#3E4F67" d="M32.261,1.799c2,0,3.633,0.46,4.899,1.38c1.267,0.92,2.253,2.094,2.96,3.52
		c0.706,1.427,1.187,2.994,1.44,4.7c0.253,1.707,0.38,3.36,0.38,4.96s-0.127,3.254-0.38,4.96c-0.254,1.707-0.734,3.274-1.44,4.7
		c-0.707,1.427-1.693,2.6-2.96,3.52s-2.899,1.38-4.899,1.38s-3.634-0.46-4.9-1.38s-2.254-2.093-2.96-3.52
		c-0.707-1.426-1.187-2.993-1.44-4.7c-0.253-1.706-0.38-3.36-0.38-4.96s0.127-3.253,0.38-4.96c0.254-1.706,0.733-3.273,1.44-4.7
		c0.706-1.426,1.693-2.6,2.96-3.52C28.627,2.259,30.261,1.799,32.261,1.799z M32.261,27.118c0.986,0,1.812-0.286,2.479-0.86
		c0.666-0.573,1.193-1.346,1.58-2.32c0.387-0.973,0.66-2.113,0.82-3.42s0.24-2.693,0.24-4.16c0-1.466-0.08-2.846-0.24-4.14
		c-0.16-1.293-0.434-2.433-0.82-3.42c-0.387-0.986-0.914-1.766-1.58-2.34c-0.667-0.573-1.493-0.86-2.479-0.86
		c-1.014,0-1.848,0.287-2.5,0.86c-0.654,0.574-1.174,1.354-1.561,2.34c-0.387,0.987-0.66,2.127-0.819,3.42
		c-0.16,1.294-0.24,2.674-0.24,4.14c0,1.467,0.08,2.854,0.24,4.16c0.159,1.307,0.433,2.447,0.819,3.42
		c0.387,0.974,0.906,1.747,1.561,2.32C30.413,26.832,31.247,27.118,32.261,27.118z"/>
	<path display="inline" fill="#3E4F67" d="M54.5,1.799c2,0,3.633,0.46,4.9,1.38c1.266,0.92,2.253,2.094,2.96,3.52
		c0.706,1.427,1.186,2.994,1.439,4.7c0.254,1.707,0.38,3.36,0.38,4.96s-0.126,3.254-0.38,4.96c-0.254,1.707-0.733,3.274-1.439,4.7
		c-0.707,1.427-1.694,2.6-2.96,3.52c-1.268,0.92-2.9,1.38-4.9,1.38s-3.634-0.46-4.899-1.38c-1.268-0.92-2.254-2.093-2.961-3.52
		c-0.706-1.426-1.187-2.993-1.439-4.7c-0.254-1.706-0.38-3.36-0.38-4.96s0.126-3.253,0.38-4.96c0.253-1.706,0.733-3.273,1.439-4.7
		c0.707-1.426,1.693-2.6,2.961-3.52C50.866,2.259,52.5,1.799,54.5,1.799z M54.5,27.118c0.986,0,1.813-0.286,2.48-0.86
		c0.666-0.573,1.192-1.346,1.58-2.32c0.386-0.973,0.659-2.113,0.819-3.42s0.24-2.693,0.24-4.16c0-1.466-0.08-2.846-0.24-4.14
		c-0.16-1.293-0.434-2.433-0.819-3.42c-0.388-0.986-0.914-1.766-1.58-2.34c-0.667-0.573-1.494-0.86-2.48-0.86
		c-1.014,0-1.847,0.287-2.5,0.86c-0.653,0.574-1.174,1.354-1.56,2.34c-0.387,0.987-0.66,2.127-0.82,3.42
		c-0.16,1.294-0.24,2.674-0.24,4.14c0,1.467,0.08,2.854,0.24,4.16s0.434,2.447,0.82,3.42c0.386,0.974,0.906,1.747,1.56,2.32
		C52.653,26.832,53.486,27.118,54.5,27.118z"/>
</g>
<g>
	<path fill="#D1D6DD" d="M22.056,197.43v-16.184h3.024v6.356h16.968v3.5H25.08v6.328H22.056z"/>
	<path fill="#D1D6DD" d="M22.056,178.922v-9.548c0-2.202,0.476-3.854,1.428-4.956s2.278-1.652,3.976-1.652
		c0.952,0,1.741,0.141,2.366,0.421c0.626,0.279,1.13,0.606,1.512,0.979c0.383,0.374,0.658,0.742,0.826,1.106
		c0.168,0.363,0.28,0.63,0.336,0.798h0.056c0.038-0.299,0.131-0.621,0.28-0.966c0.149-0.346,0.388-0.668,0.714-0.967
		c0.327-0.298,0.751-0.546,1.274-0.741c0.523-0.196,1.176-0.295,1.96-0.295c1.176,0,2.246-0.088,3.207-0.266
		c0.961-0.177,1.647-0.452,2.058-0.826v3.752c-0.429,0.262-0.905,0.416-1.428,0.462c-0.522,0.047-1.026,0.07-1.513,0.07
		c-0.914,0-1.703,0.056-2.366,0.168c-0.662,0.112-1.213,0.317-1.652,0.616c-0.438,0.299-0.76,0.705-0.966,1.218
		c-0.206,0.514-0.308,1.172-0.308,1.975v5.151h8.232v3.5H22.056z M31.156,175.422v-5.74c0-1.119-0.266-1.969-0.798-2.548
		c-0.532-0.578-1.33-0.868-2.394-0.868c-0.634,0-1.152,0.094-1.554,0.28c-0.401,0.187-0.714,0.443-0.938,0.771
		c-0.224,0.326-0.373,0.699-0.448,1.12c-0.074,0.42-0.112,0.854-0.112,1.302v5.684H31.156z"/>
	<path fill="#D1D6DD" d="M22.056,153.863v-3.725l19.992-7.699v3.752l-5.292,1.876v7.979l5.292,1.876v3.612L22.056,153.863z
		 M34.096,155.094v-6.104l-8.596,2.996v0.084L34.096,155.094z"/>
	<path fill="#D1D6DD" d="M22.056,140.675v-3.696l14.728-9.128v-0.057H22.056v-3.332h19.992v3.696l-14.7,9.101v0.084h14.7v3.332
		H22.056z"/>
	<path fill="#D1D6DD" d="M22.056,122.223v-16.185h3.024v6.356h16.968v3.5H25.08v6.328H22.056z"/>
	<path fill="#D1D6DD" d="M22.056,103.715V89.324h3.024v10.892h5.236v-10.08h2.856v10.08h5.852V89.127h3.024v14.588H22.056z"/>
	<path fill="#D1D6DD" d="M28.412,72.579c-0.578,0.149-1.11,0.355-1.596,0.616c-0.485,0.262-0.905,0.598-1.26,1.008
		c-0.354,0.411-0.63,0.892-0.826,1.442c-0.196,0.551-0.294,1.189-0.294,1.918c0,1.063,0.215,1.983,0.644,2.758
		s1.003,1.405,1.722,1.89c0.719,0.486,1.536,0.846,2.45,1.078c0.915,0.234,1.848,0.351,2.8,0.351c0.952,0,1.886-0.116,2.8-0.351
		c0.915-0.232,1.731-0.592,2.45-1.078c0.719-0.484,1.293-1.115,1.722-1.89c0.43-0.774,0.645-1.694,0.645-2.758
		c0-0.784-0.136-1.475-0.406-2.072c-0.27-0.597-0.645-1.11-1.12-1.54c-0.476-0.429-1.031-0.765-1.666-1.008
		c-0.635-0.242-1.316-0.401-2.044-0.476v-3.416c1.195,0.074,2.287,0.331,3.276,0.77s1.844,1.031,2.562,1.778
		c0.719,0.746,1.274,1.624,1.666,2.632c0.393,1.008,0.588,2.119,0.588,3.332c0,1.493-0.275,2.833-0.825,4.018
		c-0.551,1.186-1.303,2.189-2.254,3.011c-0.952,0.821-2.063,1.451-3.333,1.89c-1.269,0.438-2.623,0.658-4.06,0.658
		c-1.418,0-2.762-0.22-4.032-0.658s-2.38-1.068-3.332-1.89c-0.952-0.821-1.708-1.825-2.268-3.011c-0.56-1.185-0.84-2.524-0.84-4.018
		c0-1.12,0.154-2.175,0.462-3.164c0.308-0.989,0.756-1.862,1.344-2.618s1.302-1.367,2.142-1.834c0.84-0.466,1.802-0.756,2.884-0.868
		V72.579z"/>
	<path fill="#D1D6DD" d="M22.056,67.764V51.579h3.024v6.356h16.968v3.5H25.08v6.328H22.056z"/>
</g>
<g display="none">
	<path display="inline" fill="#3E4F67" d="M32.044,1.04c2.208,0,4.011,0.508,5.409,1.524c1.4,1.016,2.489,2.312,3.269,3.887
		c0.781,1.576,1.309,3.306,1.589,5.19c0.28,1.885,0.421,3.71,0.421,5.476s-0.14,3.593-0.421,5.476
		c-0.28,1.885-0.809,3.615-1.589,5.19c-0.781,1.575-1.87,2.87-3.269,3.887c-1.397,1.016-3.2,1.524-5.409,1.524
		c-2.209,0-4.013-0.508-5.411-1.524c-1.399-1.016-2.489-2.311-3.269-3.887c-0.78-1.575-1.31-3.305-1.59-5.19
		c-0.28-1.884-0.419-3.71-0.419-5.476s0.14-3.592,0.419-5.476c0.28-1.884,0.81-3.614,1.59-5.19c0.78-1.575,1.87-2.87,3.269-3.887
		C28.032,1.548,29.836,1.04,32.044,1.04z M32.044,28.997c1.089,0,2.001-0.316,2.737-0.949c0.738-0.633,1.318-1.486,1.745-2.561
		c0.427-1.074,0.729-2.333,0.906-3.776s0.265-2.974,0.265-4.593c0-1.619-0.088-3.143-0.265-4.571
		c-0.177-1.428-0.479-2.686-0.906-3.776c-0.427-1.089-1.007-1.95-1.745-2.584c-0.735-0.633-1.648-0.949-2.737-0.949
		c-1.12,0-2.04,0.316-2.761,0.949c-0.722,0.633-1.296,1.494-1.723,2.584c-0.427,1.09-0.729,2.348-0.905,3.776
		c-0.177,1.429-0.265,2.952-0.265,4.571c0,1.62,0.088,3.151,0.265,4.593c0.176,1.443,0.478,2.702,0.905,3.776
		c0.426,1.075,1.001,1.928,1.723,2.561C30.004,28.681,30.925,28.997,32.044,28.997z"/>
</g>
<g display="none">
	<path display="inline" fill="#3E4F67" d="M23.333,5.64c0.96,0,1.893-0.08,2.8-0.24c0.906-0.16,1.727-0.426,2.46-0.8
		c0.733-0.373,1.36-0.853,1.88-1.44c0.521-0.586,0.86-1.307,1.021-2.16h3.72v28h-5V9.24h-6.88V5.64z"/>
</g>
<g display="none">
	<path display="inline" fill="#3E4F67" d="M41.592,30.207h-19.12c0.026-2.32,0.587-4.346,1.681-6.08
		c1.093-1.733,2.586-3.24,4.479-4.52c0.906-0.666,1.854-1.313,2.84-1.94c0.986-0.626,1.894-1.3,2.721-2.02
		c0.826-0.72,1.506-1.5,2.04-2.34c0.533-0.84,0.812-1.806,0.84-2.9c0-0.506-0.061-1.046-0.18-1.62c-0.12-0.573-0.354-1.106-0.7-1.6
		c-0.347-0.493-0.827-0.906-1.44-1.24s-1.414-0.5-2.399-0.5c-0.907,0-1.66,0.18-2.261,0.54c-0.6,0.36-1.08,0.854-1.439,1.48
		c-0.36,0.627-0.627,1.367-0.8,2.22c-0.174,0.854-0.274,1.774-0.301,2.76h-4.56c0-1.546,0.206-2.98,0.62-4.3
		c0.413-1.32,1.033-2.46,1.859-3.42c0.827-0.96,1.834-1.713,3.021-2.26c1.187-0.546,2.566-0.82,4.14-0.82
		c1.706,0,3.134,0.28,4.28,0.84c1.146,0.56,2.073,1.267,2.78,2.12c0.706,0.854,1.206,1.78,1.5,2.78c0.293,1,0.439,1.954,0.439,2.86
		c0,1.12-0.174,2.134-0.52,3.04c-0.347,0.907-0.813,1.74-1.4,2.5c-0.587,0.76-1.254,1.46-2,2.1c-0.747,0.64-1.52,1.24-2.319,1.8
		c-0.801,0.56-1.601,1.094-2.4,1.6c-0.8,0.507-1.54,1.014-2.22,1.52c-0.681,0.507-1.274,1.034-1.78,1.58
		c-0.507,0.547-0.854,1.126-1.04,1.74h13.64V30.207z"/>
</g>
<g display="none">
	<path display="inline" fill="#3E4F67" d="M31.052,13.16c0.746,0.027,1.493-0.026,2.24-0.16c0.746-0.133,1.413-0.366,2-0.7
		c0.586-0.333,1.06-0.793,1.42-1.38c0.359-0.586,0.54-1.306,0.54-2.16c0-1.2-0.407-2.16-1.221-2.88
		c-0.813-0.72-1.859-1.08-3.14-1.08c-0.8,0-1.494,0.16-2.08,0.48c-0.587,0.32-1.073,0.753-1.46,1.3
		c-0.387,0.547-0.674,1.16-0.86,1.84c-0.187,0.68-0.267,1.38-0.239,2.1h-4.561c0.054-1.36,0.307-2.62,0.76-3.78
		c0.453-1.16,1.073-2.167,1.86-3.02c0.786-0.854,1.74-1.52,2.86-2S31.558,1,32.972,1c1.093,0,2.166,0.16,3.22,0.48
		c1.054,0.32,2,0.787,2.84,1.4c0.841,0.614,1.514,1.394,2.021,2.34c0.506,0.947,0.76,2.034,0.76,3.26c0,1.414-0.32,2.647-0.96,3.7
		c-0.64,1.054-1.64,1.82-3,2.3v0.08c1.6,0.32,2.847,1.114,3.74,2.38c0.893,1.267,1.34,2.807,1.34,4.62c0,1.334-0.267,2.527-0.8,3.58
		c-0.534,1.054-1.254,1.947-2.16,2.68c-0.907,0.734-1.96,1.3-3.16,1.7s-2.467,0.6-3.8,0.6c-1.627,0-3.047-0.234-4.26-0.7
		c-1.214-0.466-2.228-1.126-3.04-1.98c-0.814-0.853-1.434-1.88-1.86-3.08c-0.427-1.2-0.653-2.533-0.68-4h4.56
		c-0.054,1.707,0.366,3.127,1.26,4.26c0.894,1.134,2.233,1.7,4.021,1.7c1.52,0,2.793-0.433,3.82-1.3c1.025-0.866,1.54-2.1,1.54-3.7
		c0-1.093-0.214-1.96-0.641-2.6c-0.427-0.64-0.986-1.126-1.68-1.46c-0.694-0.333-1.474-0.54-2.34-0.62
		c-0.867-0.08-1.754-0.106-2.66-0.08V13.16z"/>
</g>
<g display="none">
	<path display="inline" fill="#3E4F67" d="M26.38,1h14.48v4.08H29.78l-1.44,7.12l0.08,0.08c0.613-0.693,1.394-1.22,2.34-1.58
		c0.946-0.36,1.887-0.54,2.82-0.54c1.386,0,2.626,0.233,3.72,0.7c1.094,0.467,2.014,1.12,2.76,1.96c0.747,0.84,1.313,1.834,1.7,2.98
		c0.387,1.147,0.58,2.387,0.58,3.72c0,1.12-0.18,2.274-0.54,3.46c-0.359,1.187-0.934,2.267-1.72,3.24
		c-0.787,0.974-1.794,1.773-3.021,2.4c-1.227,0.626-2.693,0.94-4.399,0.94c-1.36,0-2.62-0.18-3.78-0.54s-2.18-0.9-3.06-1.62
		c-0.88-0.72-1.58-1.606-2.101-2.66c-0.52-1.053-0.807-2.287-0.859-3.7h4.56c0.133,1.52,0.653,2.687,1.56,3.5
		c0.906,0.813,2.106,1.22,3.601,1.22c0.96,0,1.773-0.16,2.439-0.48c0.667-0.32,1.207-0.76,1.62-1.32s0.707-1.213,0.88-1.96
		c0.174-0.746,0.261-1.546,0.261-2.4c0-0.773-0.107-1.513-0.32-2.22c-0.214-0.706-0.534-1.326-0.96-1.86
		c-0.427-0.533-0.98-0.96-1.66-1.28c-0.68-0.32-1.474-0.48-2.38-0.48c-0.96,0-1.86,0.18-2.7,0.54c-0.84,0.36-1.446,1.034-1.819,2.02
		H23.38L26.38,1z"/>
</g>
<g display="none">
	<path display="inline" fill="#3E4F67" d="M32.667,30.072c-1.414,0-2.727-0.2-3.94-0.6s-2.26-0.98-3.14-1.74
		c-0.88-0.76-1.567-1.687-2.06-2.78c-0.494-1.093-0.74-2.32-0.74-3.68c0-1.76,0.46-3.24,1.38-4.44c0.92-1.2,2.166-2,3.74-2.4v-0.08
		c-1.28-0.48-2.261-1.22-2.94-2.22s-1.02-2.18-1.02-3.54c0-2.4,0.753-4.273,2.26-5.62c1.506-1.346,3.66-2.02,6.46-2.02
		s4.953,0.674,6.46,2.02c1.506,1.347,2.26,3.22,2.26,5.62c0,1.36-0.34,2.54-1.02,3.54c-0.681,1-1.66,1.74-2.94,2.22v0.08
		c1.573,0.4,2.82,1.2,3.74,2.4c0.92,1.2,1.38,2.68,1.38,4.44c0,1.36-0.247,2.587-0.74,3.68c-0.493,1.094-1.18,2.02-2.06,2.78
		c-0.88,0.76-1.927,1.34-3.141,1.74C35.393,29.872,34.08,30.072,32.667,30.072z M32.667,26.472c1.52,0,2.786-0.453,3.8-1.36
		c1.014-0.906,1.521-2.187,1.521-3.84c0-1.546-0.507-2.753-1.521-3.62c-1.014-0.866-2.28-1.3-3.8-1.3c-1.521,0-2.787,0.434-3.8,1.3
		c-1.014,0.867-1.521,2.074-1.521,3.62c0,1.654,0.507,2.934,1.521,3.84C29.88,26.019,31.146,26.472,32.667,26.472z M32.667,4.552
		c-1.227,0-2.267,0.367-3.12,1.1s-1.28,1.793-1.28,3.18c0,1.334,0.413,2.354,1.24,3.06c0.826,0.707,1.88,1.06,3.16,1.06
		s2.333-0.353,3.16-1.06c0.826-0.706,1.239-1.726,1.239-3.06c0-1.386-0.427-2.446-1.279-3.18
		C34.933,4.919,33.893,4.552,32.667,4.552z"/>
</g>
<g display="none">
	<path display="inline" fill="#3E4F67" d="M12.107,5.735c0.96,0,1.893-0.08,2.8-0.24c0.906-0.16,1.727-0.426,2.46-0.8
		c0.733-0.373,1.36-0.853,1.88-1.44c0.521-0.586,0.86-1.307,1.021-2.16h3.72v28h-5V9.335h-6.88V5.735z"/>
	<path display="inline" fill="#3E4F67" d="M41.347,12.695c0.746,0.027,1.493-0.026,2.24-0.16c0.746-0.133,1.413-0.366,2-0.7
		c0.586-0.333,1.06-0.793,1.42-1.38c0.359-0.586,0.54-1.306,0.54-2.16c0-1.2-0.407-2.16-1.221-2.88
		c-0.813-0.72-1.859-1.08-3.14-1.08c-0.8,0-1.494,0.16-2.08,0.48c-0.587,0.32-1.073,0.753-1.46,1.3
		c-0.387,0.547-0.674,1.16-0.86,1.84c-0.187,0.68-0.267,1.38-0.239,2.1h-4.561c0.054-1.36,0.307-2.62,0.76-3.78
		c0.453-1.16,1.073-2.167,1.86-3.02c0.786-0.854,1.74-1.52,2.86-2s2.386-0.72,3.8-0.72c1.093,0,2.166,0.16,3.22,0.48
		c1.054,0.32,2,0.787,2.84,1.4c0.841,0.614,1.514,1.394,2.021,2.34c0.506,0.947,0.76,2.034,0.76,3.26c0,1.414-0.32,2.647-0.96,3.7
		c-0.64,1.054-1.64,1.82-3,2.3v0.08c1.6,0.32,2.847,1.114,3.74,2.38c0.893,1.267,1.34,2.807,1.34,4.62c0,1.334-0.267,2.527-0.8,3.58
		c-0.534,1.054-1.254,1.947-2.16,2.68c-0.907,0.734-1.96,1.3-3.16,1.7s-2.467,0.6-3.8,0.6c-1.627,0-3.047-0.234-4.26-0.7
		c-1.214-0.466-2.228-1.126-3.04-1.98c-0.814-0.853-1.434-1.88-1.86-3.08c-0.427-1.2-0.653-2.533-0.68-4h4.56
		c-0.054,1.707,0.366,3.127,1.26,4.26c0.894,1.134,2.233,1.7,4.021,1.7c1.52,0,2.793-0.433,3.82-1.3c1.025-0.866,1.54-2.1,1.54-3.7
		c0-1.093-0.214-1.96-0.641-2.6c-0.427-0.64-0.986-1.126-1.68-1.46c-0.694-0.333-1.474-0.54-2.34-0.62
		c-0.867-0.08-1.754-0.106-2.66-0.08V12.695z"/>
</g>
<g display="none">
	<path display="inline" fill="#3E4F67" d="M30.98,29.56H11.86c0.026-2.32,0.587-4.346,1.681-6.08c1.093-1.733,2.586-3.24,4.479-4.52
		c0.906-0.666,1.854-1.313,2.84-1.94c0.986-0.626,1.894-1.3,2.721-2.02c0.826-0.72,1.506-1.5,2.04-2.34
		c0.533-0.84,0.812-1.806,0.84-2.9c0-0.506-0.061-1.046-0.18-1.62c-0.12-0.573-0.354-1.106-0.7-1.6
		c-0.347-0.493-0.827-0.906-1.44-1.24s-1.414-0.5-2.399-0.5c-0.907,0-1.66,0.18-2.261,0.54c-0.6,0.36-1.08,0.854-1.439,1.48
		c-0.36,0.627-0.627,1.367-0.8,2.22c-0.174,0.854-0.274,1.774-0.301,2.76h-4.56c0-1.546,0.206-2.98,0.62-4.3
		c0.413-1.32,1.033-2.46,1.859-3.42c0.827-0.96,1.834-1.713,3.021-2.26C19.067,1.274,20.447,1,22.02,1c1.706,0,3.134,0.28,4.28,0.84
		c1.146,0.56,2.073,1.267,2.78,2.12c0.706,0.854,1.206,1.78,1.5,2.78c0.293,1,0.439,1.954,0.439,2.86c0,1.12-0.174,2.134-0.52,3.04
		c-0.347,0.907-0.813,1.74-1.4,2.5c-0.587,0.76-1.254,1.46-2,2.1c-0.747,0.64-1.52,1.24-2.319,1.8c-0.801,0.56-1.601,1.094-2.4,1.6
		c-0.8,0.507-1.54,1.014-2.22,1.52c-0.681,0.507-1.274,1.034-1.78,1.58c-0.507,0.547-0.854,1.126-1.04,1.74h13.64V29.56z"/>
	<path display="inline" fill="#3E4F67" d="M43.661,1c2,0,3.633,0.46,4.899,1.38c1.267,0.92,2.254,2.094,2.961,3.52
		c0.706,1.427,1.186,2.994,1.439,4.7c0.253,1.707,0.38,3.36,0.38,4.96s-0.127,3.254-0.38,4.96c-0.254,1.707-0.733,3.274-1.439,4.7
		c-0.707,1.427-1.694,2.6-2.961,3.52c-1.267,0.92-2.899,1.38-4.899,1.38s-3.634-0.46-4.9-1.38c-1.267-0.92-2.254-2.093-2.96-3.52
		c-0.707-1.426-1.187-2.993-1.439-4.7c-0.254-1.706-0.38-3.36-0.38-4.96s0.126-3.253,0.38-4.96c0.253-1.706,0.732-3.273,1.439-4.7
		c0.706-1.426,1.693-2.6,2.96-3.52C40.027,1.46,41.661,1,43.661,1z M43.661,26.32c0.986,0,1.813-0.286,2.479-0.86
		c0.667-0.573,1.193-1.346,1.58-2.32c0.387-0.973,0.66-2.113,0.82-3.42s0.24-2.693,0.24-4.16c0-1.466-0.08-2.846-0.24-4.14
		c-0.16-1.293-0.434-2.433-0.82-3.42c-0.387-0.986-0.913-1.766-1.58-2.34c-0.666-0.573-1.493-0.86-2.479-0.86
		c-1.014,0-1.847,0.287-2.5,0.86C40.506,6.234,39.987,7.014,39.6,8c-0.387,0.987-0.659,2.127-0.819,3.42
		c-0.16,1.294-0.24,2.674-0.24,4.14c0,1.467,0.08,2.854,0.24,4.16s0.433,2.447,0.819,3.42c0.387,0.974,0.906,1.747,1.561,2.32
		C41.814,26.034,42.647,26.32,43.661,26.32z"/>
</g>
<g display="none">
	<path display="inline" fill="#3E4F67" d="M30.932,22.92h-3.6v6.64h-4.32v-6.64h-12V18.4l12-16.84h4.32v17.76h3.6V22.92z
		 M14.532,19.32h8.479V7h-0.08L14.532,19.32z"/>
	<path display="inline" fill="#3E4F67" d="M43.412,1c2,0,3.633,0.46,4.899,1.38c1.267,0.92,2.254,2.094,2.961,3.52
		c0.706,1.427,1.186,2.994,1.439,4.7c0.253,1.707,0.38,3.36,0.38,4.96s-0.127,3.254-0.38,4.96c-0.254,1.707-0.733,3.274-1.439,4.7
		c-0.707,1.427-1.694,2.6-2.961,3.52c-1.267,0.92-2.899,1.38-4.899,1.38s-3.634-0.46-4.9-1.38c-1.267-0.92-2.254-2.093-2.96-3.52
		c-0.707-1.426-1.187-2.993-1.439-4.7c-0.254-1.706-0.38-3.36-0.38-4.96s0.126-3.253,0.38-4.96c0.253-1.706,0.732-3.273,1.439-4.7
		c0.706-1.426,1.693-2.6,2.96-3.52C39.778,1.46,41.412,1,43.412,1z M43.412,26.32c0.986,0,1.813-0.286,2.479-0.86
		c0.667-0.573,1.193-1.346,1.58-2.32c0.387-0.973,0.66-2.113,0.82-3.42s0.24-2.693,0.24-4.16c0-1.466-0.08-2.846-0.24-4.14
		c-0.16-1.293-0.434-2.433-0.82-3.42c-0.387-0.986-0.913-1.766-1.58-2.34c-0.666-0.573-1.493-0.86-2.479-0.86
		c-1.014,0-1.847,0.287-2.5,0.86C40.258,6.234,39.738,7.014,39.352,8c-0.387,0.987-0.659,2.127-0.819,3.42
		c-0.16,1.294-0.24,2.674-0.24,4.14c0,1.467,0.08,2.854,0.24,4.16s0.433,2.447,0.819,3.42c0.387,0.974,0.906,1.747,1.561,2.32
		C41.566,26.034,42.399,26.32,43.412,26.32z"/>
</g>
<g display="none">
	<path display="inline" fill="#3E4F67" d="M5.141,6.88c0.96,0,1.893-0.08,2.8-0.24c0.906-0.16,1.727-0.426,2.46-0.8
		c0.733-0.373,1.36-0.853,1.88-1.44c0.521-0.586,0.86-1.307,1.021-2.16h3.72v28h-5V10.48h-6.88V6.88z"/>
	<path display="inline" fill="#3E4F67" d="M35.86,1h4.36L28.741,30.92h-4.36L35.86,1z"/>
	<path display="inline" fill="#3E4F67" d="M60.019,30.24h-19.12c0.026-2.32,0.587-4.346,1.681-6.08
		c1.093-1.733,2.586-3.24,4.479-4.52c0.906-0.666,1.854-1.313,2.84-1.94c0.986-0.626,1.894-1.3,2.721-2.02
		c0.826-0.72,1.506-1.5,2.04-2.34c0.533-0.84,0.812-1.806,0.84-2.9c0-0.506-0.061-1.046-0.18-1.62c-0.12-0.573-0.354-1.106-0.7-1.6
		c-0.347-0.493-0.827-0.906-1.44-1.24s-1.414-0.5-2.399-0.5c-0.907,0-1.66,0.18-2.261,0.54c-0.6,0.36-1.08,0.854-1.439,1.48
		c-0.36,0.627-0.627,1.367-0.8,2.22c-0.174,0.854-0.274,1.774-0.301,2.76h-4.56c0-1.546,0.206-2.98,0.62-4.3
		c0.413-1.32,1.033-2.46,1.859-3.42c0.827-0.96,1.834-1.713,3.021-2.26c1.187-0.546,2.566-0.82,4.14-0.82
		c1.706,0,3.134,0.28,4.28,0.84c1.146,0.56,2.073,1.267,2.78,2.12c0.706,0.854,1.206,1.78,1.5,2.78c0.293,1,0.439,1.954,0.439,2.86
		c0,1.12-0.174,2.134-0.52,3.04c-0.347,0.907-0.813,1.74-1.4,2.5c-0.587,0.76-1.254,1.46-2,2.1c-0.747,0.64-1.52,1.24-2.319,1.8
		c-0.801,0.56-1.601,1.094-2.4,1.6c-0.8,0.507-1.54,1.014-2.22,1.52c-0.681,0.507-1.274,1.034-1.78,1.58
		c-0.507,0.547-0.854,1.126-1.04,1.74h13.64V30.24z"/>
</g>
<g display="none">
	<path display="inline" fill="#3E4F67" d="M47.007,8c0,1.014-0.147,1.954-0.44,2.82c-0.294,0.867-0.727,1.62-1.3,2.26
		c-0.574,0.64-1.267,1.147-2.08,1.52c-0.813,0.374-1.74,0.56-2.78,0.56c-0.827,0-1.594-0.126-2.3-0.38
		c-0.707-0.253-1.374-0.593-2-1.02c-0.627-0.426-1.227-0.906-1.8-1.44c-0.574-0.533-1.114-1.08-1.62-1.64
		c-0.561,0.56-1.114,1.106-1.66,1.64c-0.547,0.534-1.12,1-1.72,1.4c-0.601,0.4-1.247,0.727-1.94,0.98s-1.479,0.38-2.359,0.38
		c-1.015,0-1.935-0.18-2.761-0.54s-1.533-0.846-2.12-1.46c-0.587-0.613-1.033-1.346-1.34-2.2c-0.307-0.853-0.46-1.786-0.46-2.8
		c0-0.986,0.153-1.906,0.46-2.76c0.307-0.853,0.74-1.6,1.3-2.24c0.561-0.64,1.247-1.14,2.061-1.5s1.727-0.54,2.74-0.54
		c0.853,0,1.646,0.134,2.38,0.4C28,1.707,28.68,2.06,29.307,2.5c0.626,0.44,1.213,0.94,1.76,1.5c0.546,0.56,1.086,1.147,1.62,1.76
		c0.506-0.586,1.04-1.166,1.6-1.74c0.561-0.573,1.16-1.08,1.8-1.52c0.641-0.44,1.32-0.8,2.04-1.08C38.847,1.14,39.619,1,40.446,1
		c1.014,0,1.927,0.18,2.74,0.54s1.5,0.854,2.06,1.48c0.561,0.627,0.993,1.367,1.301,2.22C46.853,6.094,47.007,7.014,47.007,8z
		 M30.486,8.16c-0.347-0.346-0.733-0.72-1.16-1.12s-0.88-0.773-1.359-1.12c-0.48-0.346-0.987-0.633-1.521-0.86
		s-1.054-0.34-1.56-0.34c-0.96,0-1.721,0.34-2.28,1.02c-0.56,0.68-0.84,1.474-0.84,2.38c0,0.987,0.286,1.787,0.859,2.4
		c0.573,0.614,1.366,0.92,2.381,0.92c0.506,0,1.02-0.1,1.54-0.3c0.52-0.2,1.013-0.46,1.479-0.78c0.466-0.32,0.913-0.673,1.34-1.06
		C29.793,8.914,30.166,8.534,30.486,8.16z M43.567,8.12c0-0.986-0.28-1.806-0.84-2.46c-0.561-0.653-1.347-0.98-2.36-0.98
		c-0.533,0-1.054,0.114-1.56,0.34c-0.507,0.227-0.994,0.52-1.46,0.88c-0.467,0.36-0.907,0.747-1.32,1.16
		c-0.414,0.414-0.794,0.793-1.14,1.14c0.346,0.374,0.732,0.753,1.16,1.14c0.426,0.387,0.873,0.74,1.34,1.06
		c0.466,0.32,0.96,0.58,1.479,0.78c0.521,0.2,1.061,0.3,1.62,0.3c0.986,0,1.746-0.326,2.28-0.98
		C43.3,9.847,43.567,9.054,43.567,8.12z"/>
</g>
<g display="none">
	<path display="inline" fill="#3E4F67" d="M1.02,6.2c0.96,0,1.893-0.08,2.8-0.24c0.906-0.16,1.727-0.426,2.46-0.8
		c0.733-0.373,1.36-0.853,1.88-1.44c0.52-0.586,0.86-1.307,1.02-2.16h3.72v28h-5V9.8H1.02V6.2z"/>
	<path display="inline" fill="#3E4F67" d="M32.261,1c2,0,3.633,0.46,4.899,1.38c1.267,0.92,2.253,2.094,2.96,3.52
		c0.706,1.427,1.187,2.994,1.44,4.7c0.253,1.707,0.38,3.36,0.38,4.96s-0.127,3.254-0.38,4.96c-0.254,1.707-0.734,3.274-1.44,4.7
		c-0.707,1.427-1.693,2.6-2.96,3.52s-2.899,1.38-4.899,1.38s-3.634-0.46-4.9-1.38s-2.254-2.093-2.96-3.52
		c-0.707-1.426-1.187-2.993-1.44-4.7c-0.253-1.706-0.38-3.36-0.38-4.96s0.127-3.253,0.38-4.96c0.254-1.706,0.733-3.273,1.44-4.7
		c0.706-1.426,1.693-2.6,2.96-3.52C28.627,1.46,30.261,1,32.261,1z M32.261,26.32c0.986,0,1.812-0.286,2.479-0.86
		c0.666-0.573,1.193-1.346,1.58-2.32c0.387-0.973,0.66-2.113,0.82-3.42s0.24-2.693,0.24-4.16c0-1.466-0.08-2.846-0.24-4.14
		c-0.16-1.293-0.434-2.433-0.82-3.42c-0.387-0.986-0.914-1.766-1.58-2.34c-0.667-0.573-1.493-0.86-2.479-0.86
		c-1.014,0-1.848,0.287-2.5,0.86C29.107,6.234,28.587,7.014,28.2,8c-0.387,0.987-0.66,2.127-0.819,3.42
		c-0.16,1.294-0.24,2.674-0.24,4.14c0,1.467,0.08,2.854,0.24,4.16c0.159,1.307,0.433,2.447,0.819,3.42
		c0.387,0.974,0.906,1.747,1.561,2.32C30.413,26.034,31.247,26.32,32.261,26.32z"/>
	<path display="inline" fill="#3E4F67" d="M54.5,1c2,0,3.633,0.46,4.9,1.38c1.266,0.92,2.253,2.094,2.96,3.52
		c0.706,1.427,1.186,2.994,1.439,4.7c0.254,1.707,0.38,3.36,0.38,4.96s-0.126,3.254-0.38,4.96c-0.254,1.707-0.733,3.274-1.439,4.7
		c-0.707,1.427-1.694,2.6-2.96,3.52c-1.268,0.92-2.9,1.38-4.9,1.38s-3.634-0.46-4.899-1.38c-1.268-0.92-2.254-2.093-2.961-3.52
		c-0.706-1.426-1.187-2.993-1.439-4.7c-0.254-1.706-0.38-3.36-0.38-4.96s0.126-3.253,0.38-4.96c0.253-1.706,0.733-3.273,1.439-4.7
		c0.707-1.426,1.693-2.6,2.961-3.52C50.866,1.46,52.5,1,54.5,1z M54.5,26.32c0.986,0,1.813-0.286,2.48-0.86
		c0.666-0.573,1.192-1.346,1.58-2.32c0.386-0.973,0.659-2.113,0.819-3.42s0.24-2.693,0.24-4.16c0-1.466-0.08-2.846-0.24-4.14
		c-0.16-1.293-0.434-2.433-0.819-3.42c-0.388-0.986-0.914-1.766-1.58-2.34C56.314,5.087,55.486,4.8,54.5,4.8
		c-1.014,0-1.847,0.287-2.5,0.86c-0.653,0.574-1.174,1.354-1.56,2.34c-0.387,0.987-0.66,2.127-0.82,3.42
		c-0.16,1.294-0.24,2.674-0.24,4.14c0,1.467,0.08,2.854,0.24,4.16s0.434,2.447,0.82,3.42c0.386,0.974,0.906,1.747,1.56,2.32
		C52.653,26.034,53.486,26.32,54.5,26.32z"/>
</g>
<g display="none">
	<path display="inline" fill="#3E4F67" d="M22.884,11.76c0-1.466,0.22-2.8,0.66-4c0.439-1.2,1.08-2.226,1.92-3.08
		c0.84-0.853,1.854-1.513,3.04-1.98C29.69,2.234,31.017,2,32.483,2c1.227,0,2.366,0.18,3.421,0.54c1.053,0.36,1.973,0.88,2.76,1.56
		c0.786,0.68,1.406,1.527,1.859,2.54c0.453,1.014,0.681,2.16,0.681,3.44c0,0.934-0.101,1.74-0.3,2.42
		c-0.2,0.68-0.468,1.267-0.801,1.76c-0.333,0.494-0.714,0.934-1.14,1.32c-0.427,0.387-0.854,0.767-1.28,1.14
		c-0.507,0.427-0.974,0.84-1.399,1.24c-0.427,0.4-0.801,0.847-1.12,1.34c-0.32,0.494-0.567,1.074-0.74,1.74
		c-0.174,0.667-0.26,1.48-0.26,2.44h-4.32c0-1.173,0.061-2.167,0.18-2.98c0.12-0.813,0.313-1.526,0.58-2.14
		c0.267-0.613,0.594-1.153,0.98-1.62c0.386-0.466,0.846-0.926,1.38-1.38c0.426-0.373,0.833-0.72,1.22-1.04
		c0.387-0.32,0.733-0.673,1.04-1.06c0.307-0.386,0.547-0.82,0.72-1.3c0.174-0.48,0.261-1.053,0.261-1.72
		c0-0.8-0.141-1.486-0.42-2.06c-0.28-0.573-0.62-1.033-1.021-1.38c-0.399-0.346-0.827-0.6-1.28-0.76
		C33.03,5.88,32.63,5.8,32.284,5.8c-1.654,0-2.874,0.54-3.66,1.62c-0.787,1.08-1.181,2.527-1.181,4.34H22.884z M29.244,26.24h5.359
		v5h-5.359V26.24z"/>
</g>
<g>
	<polygon fill="#3E4F67" points="34.855,26.693 27.589,26.693 28.359,28.027 34.085,28.027 	"/>
	<polygon fill="#3E4F67" points="23.443,29.78 39.001,29.78 41.091,28.447 21.353,28.447 	"/>
	<polygon fill="#3E4F67" points="31.618,13.761 31.251,8.462 33.476,5.523 31.08,1 32.127,5.308 29.17,8.456 	"/>
	<polygon fill="#3E4F67" points="33.973,9.669 35.857,13.696 35.575,9.673 37.288,7.441 35.443,4.008 36.25,7.279 	"/>
	<polygon fill="#3E4F67" points="24.498,9.669 26.383,13.696 26.1,9.673 27.813,7.441 25.969,4.008 26.774,7.279 	"/>
	<polygon fill="#3E4F67" points="43.454,15.213 40.837,15.213 40.837,14.336 21.607,14.336 21.607,18.418 40.837,18.418 
		40.837,16.265 42.928,16.265 42.928,20.747 38.166,22.178 40.752,18.979 21.692,18.979 27.589,26.272 34.855,26.272 36.992,23.629 
		43.605,21.642 43.98,21.138 43.98,15.739 	"/>
</g>
</svg>
