<?xml version="1.0" encoding="UTF-8"?>
<svg width="65px" height="236px" viewBox="0 0 65 236" version="1.1" xmlns="http://www.w3.org/2000/svg" xmlns:xlink="http://www.w3.org/1999/xlink" style="background: #FFFFFF;">
    <!-- Generator: Sketch 43.2 (39069) - http://www.bohemiancoding.com/sketch -->
    <title>Artboard Copy 2</title>
    <desc>Created with Sketch.</desc>
    <defs></defs>
    <g id="Page-1" stroke="none" stroke-width="1" fill="none" fill-rule="evenodd">
        <g id="Artboard-Copy-2">
            <path d="M-46.516,137.864 C-46.6653341,137.28533 -46.8706654,136.753336 -47.132,136.268 C-47.3933346,135.782664 -47.7293313,135.362668 -48.14,135.008 C-48.5506687,134.653332 -49.0313306,134.378001 -49.582,134.182 C-50.1326694,133.985999 -50.7719964,133.888 -51.5,133.888 C-52.5640053,133.888 -53.4833295,134.102665 -54.258,134.532 C-55.0326705,134.961335 -55.6626642,135.53533 -56.148,136.254 C-56.6333358,136.97267 -56.9926655,137.789329 -57.226,138.704 C-57.4593345,139.618671 -57.576,140.551995 -57.576,141.504 C-57.576,142.456005 -57.4593345,143.389329 -57.226,144.304 C-56.9926655,145.218671 -56.6333358,146.03533 -56.148,146.754 C-55.6626642,147.47267 -55.0326705,148.046665 -54.258,148.476 C-53.4833295,148.905335 -52.5640053,149.12 -51.5,149.12 C-50.7159961,149.12 -50.0253363,148.984668 -49.428,148.714 C-48.8306637,148.443332 -48.3173355,148.070002 -47.888,147.594 C-47.4586645,147.117998 -47.1226679,146.56267 -46.88,145.928 C-46.6373321,145.29333 -46.478667,144.612004 -46.404,143.884 L-42.988,143.884 C-43.062667,145.078673 -43.3193311,146.170662 -43.758,147.16 C-44.1966689,148.149338 -44.7893296,149.00333 -45.536,149.722 C-46.2826704,150.44067 -47.159995,150.995998 -48.168,151.388 C-49.176005,151.780002 -50.2866606,151.976 -51.5,151.976 C-52.9933408,151.976 -54.3326607,151.700669 -55.518,151.15 C-56.7033393,150.599331 -57.7066626,149.848005 -58.528,148.896 C-59.3493374,147.943995 -59.9793311,146.83334 -60.418,145.564 C-60.8566689,144.29466 -61.076,142.941341 -61.076,141.504 C-61.076,140.085326 -60.8566689,138.74134 -60.418,137.472 C-59.9793311,136.20266 -59.3493374,135.092005 -58.528,134.14 C-57.7066626,133.187995 -56.7033393,132.432003 -55.518,131.872 C-54.3326607,131.311997 -52.9933408,131.032 -51.5,131.032 C-50.3799944,131.032 -49.3253383,131.185998 -48.336,131.494 C-47.3466617,131.802002 -46.4740038,132.249997 -45.718,132.838 C-44.9619962,133.426003 -44.350669,134.139996 -43.884,134.98 C-43.417331,135.820004 -43.1280006,136.781328 -43.016,137.864 L-46.516,137.864 Z M-39.796,131.508 L-36.296,131.508 L-36.296,148.476 L-26.132,148.476 L-26.132,151.5 L-39.796,151.5 L-39.796,131.508 Z M-15.212,133.888 C-16.2760053,133.888 -17.1953295,134.102665 -17.97,134.532 C-18.7446705,134.961335 -19.3746642,135.53533 -19.86,136.254 C-20.3453358,136.97267 -20.7046655,137.789329 -20.938,138.704 C-21.1713345,139.618671 -21.288,140.551995 -21.288,141.504 C-21.288,142.456005 -21.1713345,143.389329 -20.938,144.304 C-20.7046655,145.218671 -20.3453358,146.03533 -19.86,146.754 C-19.3746642,147.47267 -18.7446705,148.046665 -17.97,148.476 C-17.1953295,148.905335 -16.2760053,149.12 -15.212,149.12 C-14.1479947,149.12 -13.2286705,148.905335 -12.454,148.476 C-11.6793295,148.046665 -11.0493358,147.47267 -10.564,146.754 C-10.0786642,146.03533 -9.7193345,145.218671 -9.486,144.304 C-9.2526655,143.389329 -9.136,142.456005 -9.136,141.504 C-9.136,140.551995 -9.2526655,139.618671 -9.486,138.704 C-9.7193345,137.789329 -10.0786642,136.97267 -10.564,136.254 C-11.0493358,135.53533 -11.6793295,134.961335 -12.454,134.532 C-13.2286705,134.102665 -14.1479947,133.888 -15.212,133.888 Z M-15.212,131.032 C-13.7186592,131.032 -12.3793393,131.311997 -11.194,131.872 C-10.0086607,132.432003 -9.00533744,133.187995 -8.184,134.14 C-7.36266256,135.092005 -6.73266886,136.20266 -6.294,137.472 C-5.85533114,138.74134 -5.636,140.085326 -5.636,141.504 C-5.636,142.941341 -5.85533114,144.29466 -6.294,145.564 C-6.73266886,146.83334 -7.36266256,147.943995 -8.184,148.896 C-9.00533744,149.848005 -10.0086607,150.599331 -11.194,151.15 C-12.3793393,151.700669 -13.7186592,151.976 -15.212,151.976 C-16.7053408,151.976 -18.0446607,151.700669 -19.23,151.15 C-20.4153393,150.599331 -21.4186626,149.848005 -22.24,148.896 C-23.0613374,147.943995 -23.6913311,146.83334 -24.13,145.564 C-24.5686689,144.29466 -24.788,142.941341 -24.788,141.504 C-24.788,140.085326 -24.5686689,138.74134 -24.13,137.472 C-23.6913311,136.20266 -23.0613374,135.092005 -22.24,134.14 C-21.4186626,133.187995 -20.4153393,132.432003 -19.23,131.872 C-18.0446607,131.311997 -16.7053408,131.032 -15.212,131.032 Z M-2.668,131.508 L0.832,131.508 L0.832,143.156 C0.832,143.828003 0.86466634,144.50933 0.93,145.2 C0.99533366,145.89067 1.18199846,146.511331 1.49,147.062 C1.79800154,147.612669 2.26466354,148.065332 2.89,148.42 C3.51533646,148.774668 4.39732764,148.952 5.536,148.952 C6.67467236,148.952 7.55666354,148.774668 8.182,148.42 C8.80733646,148.065332 9.27399846,147.612669 9.582,147.062 C9.89000154,146.511331 10.0766663,145.89067 10.142,145.2 C10.2073337,144.50933 10.24,143.828003 10.24,143.156 L10.24,131.508 L13.74,131.508 L13.74,144.304 C13.74,145.592006 13.544002,146.711995 13.152,147.664 C12.759998,148.616005 12.2046703,149.413997 11.486,150.058 C10.7673297,150.702003 9.90400504,151.182665 8.896,151.5 C7.88799496,151.817335 6.76800616,151.976 5.536,151.976 C4.30399384,151.976 3.18400504,151.817335 2.176,151.5 C1.16799496,151.182665 0.30467026,150.702003 -0.414,150.058 C-1.13267026,149.413997 -1.68799804,148.616005 -2.08,147.664 C-2.47200196,146.711995 -2.668,145.592006 -2.668,144.304 L-2.668,131.508 Z M17.772,131.508 L26.06,131.508 C27.5906743,131.508 28.9159944,131.769331 30.036,132.292 C31.1560056,132.814669 32.0706631,133.528662 32.78,134.434 C33.4893369,135.339338 34.0166649,136.398661 34.362,137.612 C34.7073351,138.825339 34.88,140.12266 34.88,141.504 C34.88,142.88534 34.7073351,144.182661 34.362,145.396 C34.0166649,146.609339 33.4893369,147.668662 32.78,148.574 C32.0706631,149.479338 31.1560056,150.193331 30.036,150.716 C28.9159944,151.238669 27.5906743,151.5 26.06,151.5 L17.772,151.5 L17.772,131.508 Z M21.272,148.644 L24.716,148.644 C26.0786735,148.644 27.1939957,148.462002 28.062,148.098 C28.9300043,147.733998 29.6113309,147.230003 30.106,146.586 C30.6006691,145.941997 30.9366658,145.186004 31.114,144.318 C31.2913342,143.449996 31.38,142.512005 31.38,141.504 C31.38,140.495995 31.2913342,139.558004 31.114,138.69 C30.9366658,137.821996 30.6006691,137.066003 30.106,136.422 C29.6113309,135.777997 28.9300043,135.274002 28.062,134.91 C27.1939957,134.545998 26.0786735,134.364 24.716,134.364 L21.272,134.364 L21.272,148.644 Z M36.084,131.508 L52.268,131.508 L52.268,134.532 L45.912,134.532 L45.912,151.5 L42.412,151.5 L42.412,134.532 L36.084,134.532 L36.084,131.508 Z M54.592,131.508 L64.14,131.508 C66.3426777,131.508 67.9946612,131.983995 69.096,132.936 C70.1973388,133.888005 70.748,135.213325 70.748,136.912 C70.748,137.864005 70.6080014,138.652664 70.328,139.278 C70.0479986,139.903336 69.7213352,140.407331 69.348,140.79 C68.9746648,141.172669 68.6060018,141.447999 68.242,141.616 C67.8779982,141.784001 67.6120008,141.896 67.444,141.952 L67.444,142.008 C67.7426682,142.045334 68.0646649,142.138666 68.41,142.288 C68.7553351,142.437334 69.0773318,142.675332 69.376,143.002 C69.6746682,143.328668 69.921999,143.753331 70.118,144.276 C70.314001,144.798669 70.412,145.451996 70.412,146.236 C70.412,147.412006 70.5006658,148.480662 70.678,149.442 C70.8553342,150.403338 71.1306648,151.089331 71.504,151.5 L67.752,151.5 C67.4906654,151.070665 67.3366669,150.594669 67.29,150.072 C67.2433331,149.549331 67.22,149.045336 67.22,148.56 C67.22,147.645329 67.1640006,146.85667 67.052,146.194 C66.9399994,145.53133 66.7346682,144.980669 66.436,144.542 C66.1373318,144.103331 65.7313359,143.781334 65.218,143.576 C64.7046641,143.370666 64.0466707,143.268 63.244,143.268 L58.092,143.268 L58.092,151.5 L54.592,151.5 L54.592,131.508 Z M58.092,140.608 L63.832,140.608 C64.9520056,140.608 65.8013304,140.342003 66.38,139.81 C66.9586696,139.277997 67.248,138.480005 67.248,137.416 C67.248,136.78133 67.1546676,136.263335 66.968,135.862 C66.7813324,135.460665 66.5246683,135.148001 66.198,134.924 C65.8713317,134.699999 65.4980021,134.550667 65.078,134.476 C64.6579979,134.401333 64.2240022,134.364 63.776,134.364 L58.092,134.364 L58.092,140.608 Z M74.08,131.508 L77.58,131.508 L77.58,143.156 C77.58,143.828003 77.6126663,144.50933 77.678,145.2 C77.7433337,145.89067 77.9299985,146.511331 78.238,147.062 C78.5460015,147.612669 79.0126635,148.065332 79.638,148.42 C80.2633365,148.774668 81.1453276,148.952 82.284,148.952 C83.4226724,148.952 84.3046635,148.774668 84.93,148.42 C85.5553365,148.065332 86.0219985,147.612669 86.33,147.062 C86.6380015,146.511331 86.8246663,145.89067 86.89,145.2 C86.9553337,144.50933 86.988,143.828003 86.988,143.156 L86.988,131.508 L90.488,131.508 L90.488,144.304 C90.488,145.592006 90.292002,146.711995 89.9,147.664 C89.507998,148.616005 88.9526703,149.413997 88.234,150.058 C87.5153297,150.702003 86.652005,151.182665 85.644,151.5 C84.635995,151.817335 83.5160062,151.976 82.284,151.976 C81.0519938,151.976 79.932005,151.817335 78.924,151.5 C77.915995,151.182665 77.0526703,150.702003 76.334,150.058 C75.6153297,149.413997 75.060002,148.616005 74.668,147.664 C74.275998,146.711995 74.08,145.592006 74.08,144.304 L74.08,131.508 Z M96.816,144.836 C96.816,145.601337 96.9466654,146.254664 97.208,146.796 C97.4693346,147.337336 97.833331,147.780665 98.3,148.126 C98.766669,148.471335 99.3033303,148.723333 99.91,148.882 C100.51667,149.040667 101.174663,149.12 101.884,149.12 C102.649337,149.12 103.302664,149.031334 103.844,148.854 C104.385336,148.676666 104.823998,148.448001 105.16,148.168 C105.496002,147.887999 105.738666,147.566002 105.888,147.202 C106.037334,146.837998 106.112,146.469335 106.112,146.096 C106.112,145.330663 105.939335,144.766002 105.594,144.402 C105.248665,144.037998 104.870669,143.781334 104.46,143.632 C103.750663,143.370665 102.924671,143.123334 101.982,142.89 C101.039329,142.656666 99.8773402,142.353335 98.496,141.98 C97.637329,141.755999 96.9233362,141.462002 96.354,141.098 C95.7846638,140.733998 95.3320017,140.328002 94.996,139.88 C94.6599983,139.431998 94.4220007,138.956003 94.282,138.452 C94.1419993,137.947997 94.072,137.434669 94.072,136.912 C94.072,135.903995 94.2819979,135.031337 94.702,134.294 C95.1220021,133.556663 95.6773299,132.945336 96.368,132.46 C97.0586701,131.974664 97.8426623,131.615334 98.72,131.382 C99.5973377,131.148665 100.483996,131.032 101.38,131.032 C102.425339,131.032 103.409995,131.167332 104.334,131.438 C105.258005,131.708668 106.069997,132.114664 106.77,132.656 C107.470004,133.197336 108.025331,133.864663 108.436,134.658 C108.846669,135.451337 109.052,136.370661 109.052,137.416 L105.552,137.416 C105.458666,136.127994 105.020004,135.218003 104.236,134.686 C103.451996,134.153997 102.453339,133.888 101.24,133.888 C100.829331,133.888 100.409335,133.93 99.98,134.014 C99.5506645,134.098 99.1586684,134.237999 98.804,134.434 C98.4493316,134.630001 98.1553345,134.895998 97.922,135.232 C97.6886655,135.568002 97.572,135.987997 97.572,136.492 C97.572,137.201337 97.7913311,137.756665 98.23,138.158 C98.6686689,138.559335 99.2426631,138.862666 99.952,139.068 C100.026667,139.086667 100.320664,139.165999 100.834,139.306 C101.347336,139.446001 101.92133,139.599999 102.556,139.768 C103.19067,139.936001 103.81133,140.099333 104.418,140.258 C105.02467,140.416667 105.458665,140.533333 105.72,140.608 C106.373337,140.813334 106.942664,141.093332 107.428,141.448 C107.913336,141.802668 108.319332,142.208664 108.646,142.666 C108.972668,143.123336 109.215333,143.613331 109.374,144.136 C109.532667,144.658669 109.612,145.181331 109.612,145.704 C109.612,146.824006 109.383336,147.780663 108.926,148.574 C108.468664,149.367337 107.86667,150.015997 107.12,150.52 C106.37333,151.024003 105.524005,151.392665 104.572,151.626 C103.619995,151.859334 102.649338,151.976 101.66,151.976 C100.521328,151.976 99.448005,151.836001 98.44,151.556 C97.431995,151.275999 96.5546704,150.84667 95.808,150.268 C95.0613296,149.68933 94.4640022,148.947338 94.016,148.042 C93.5679978,147.136662 93.3346668,146.068006 93.316,144.836 L96.816,144.836 Z M110.76,131.508 L126.944,131.508 L126.944,134.532 L120.588,134.532 L120.588,151.5 L117.088,151.5 L117.088,134.532 L110.76,134.532 L110.76,131.508 Z" id="CLOUDTRUST" fill="#D1D6DD" transform="translate(32.934000, 141.504000) rotate(-90.000000) translate(-32.934000, -141.504000) "></path>
            <g id="infinity_bottom" transform="translate(18.000000, 1.000000)" fill-rule="nonzero" fill="#3E4F67">
                <path d="M28.68,7 C28.68,8.014 28.533,8.954 28.24,9.82 C27.946,10.687 27.513,11.44 26.94,12.08 C26.366,12.72 25.673,13.227 24.86,13.6 C24.047,13.974 23.12,14.16 22.08,14.16 C21.253,14.16 20.486,14.034 19.78,13.78 C19.073,13.527 18.406,13.187 17.78,12.76 C17.153,12.334 16.553,11.854 15.98,11.32 C15.406,10.787 14.866,10.24 14.36,9.68 C13.799,10.24 13.246,10.786 12.7,11.32 C12.153,11.854 11.58,12.32 10.98,12.72 C10.379,13.12 9.733,13.447 9.04,13.7 C8.347,13.953 7.561,14.08 6.681,14.08 C5.666,14.08 4.746,13.9 3.92,13.54 C3.094,13.18 2.387,12.694 1.8,12.08 C1.213,11.467 0.767,10.734 0.46,9.88 C0.153,9.027 0,8.094 0,7.08 C0,6.094 0.153,5.174 0.46,4.32 C0.767,3.467 1.2,2.72 1.76,2.08 C2.321,1.44 3.007,0.94 3.821,0.58 C4.635,0.22 5.548,0.04 6.561,0.04 C7.414,0.04 8.207,0.174 8.941,0.44 C9.673,0.707 10.353,1.06 10.98,1.5 C11.606,1.94 12.193,2.44 12.74,3 C13.286,3.56 13.826,4.147 14.36,4.76 C14.866,4.174 15.4,3.594 15.96,3.02 C16.521,2.447 17.12,1.94 17.76,1.5 C18.401,1.06 19.08,0.7 19.8,0.42 C20.52,0.14 21.292,0 22.119,0 C23.133,0 24.046,0.18 24.859,0.54 C25.672,0.9 26.359,1.394 26.919,2.02 C27.48,2.647 27.912,3.387 28.22,4.24 C28.526,5.094 28.68,6.014 28.68,7 Z M12.159,7.16 C11.812,6.814 11.426,6.44 10.999,6.04 C10.572,5.64 10.119,5.267 9.64,4.92 C9.16,4.574 8.653,4.287 8.119,4.06 C7.585,3.833 7.065,3.72 6.559,3.72 C5.599,3.72 4.838,4.06 4.279,4.74 C3.719,5.42 3.439,6.214 3.439,7.12 C3.439,8.107 3.725,8.907 4.298,9.52 C4.871,10.134 5.664,10.44 6.679,10.44 C7.185,10.44 7.699,10.34 8.219,10.14 C8.739,9.94 9.232,9.68 9.698,9.36 C10.164,9.04 10.611,8.687 11.038,8.3 C11.466,7.914 11.839,7.534 12.159,7.16 Z M25.24,7.12 C25.24,6.134 24.96,5.314 24.4,4.66 C23.839,4.007 23.053,3.68 22.04,3.68 C21.507,3.68 20.986,3.794 20.48,4.02 C19.973,4.247 19.486,4.54 19.02,4.9 C18.553,5.26 18.113,5.647 17.7,6.06 C17.286,6.474 16.906,6.853 16.56,7.2 C16.906,7.574 17.292,7.953 17.72,8.34 C18.146,8.727 18.593,9.08 19.06,9.4 C19.526,9.72 20.02,9.98 20.539,10.18 C21.06,10.38 21.6,10.48 22.159,10.48 C23.145,10.48 23.905,10.154 24.439,9.5 C24.973,8.847 25.24,8.054 25.24,7.12 Z" id="Shape"></path>
            </g>
        </g>
    </g>
</svg>