<?xml version="1.0" encoding="UTF-8"?>
<svg width="58px" height="26px" viewBox="0 0 58 26" version="1.1" xmlns="http://www.w3.org/2000/svg" xmlns:xlink="http://www.w3.org/1999/xlink">
    <!-- Generator: Sketch 43.2 (39069) - http://www.bohemiancoding.com/sketch -->
    <title>Artboard Copy</title>
    <desc>Created with Sketch.</desc>
    <defs></defs>
    <g id="Poker" stroke="none" stroke-width="1" fill="none" fill-rule="evenodd">
        <g id="Artboard-1" transform="translate(-1267.000000, -2055.000000)"></g>
        <g id="Artboard-Copy" fill="#FFFFFF">
            <g id="Group-9-Copy-4" transform="translate(16.000000, 0.000000)">
                <path d="M16.1963279,18.8687151 C16.0231371,18.8687151 15.8553092,18.8917371 15.695722,18.9348955 C15.4181542,17.7335082 14.3441332,16.8380952 13.0615325,16.8380952 C11.7018307,16.8380952 10.5765391,17.8443958 10.3860485,19.1547414 C10.2642137,19.1370831 10.1396299,19.1279432 10.0129169,19.1279432 C8.58504088,19.1279432 7.42751863,20.2885467 7.42751863,21.7202238 C7.42751863,22.1664976 7.53999002,22.5864325 7.73806233,22.9530862 C8.14427543,23.7105553 8.74782677,24.3455595 9.4795848,24.7894631 C9.60152297,24.8603124 9.72541667,24.9281529 9.85116489,24.9928835 C9.90253166,25.0181042 9.95441571,25.0424289 10.0067968,25.0658372 C11.1079078,25.6099355 12.3357316,25.9110775 13.6540196,25.9110775 C14.4197672,25.9110775 15.161405,25.8075766 15.8657768,25.6137659 C15.4903486,25.7170664 15.1043336,25.7947113 14.7097239,25.844703 C17.9552271,25.424975 20.8245017,23.80122 22.858283,21.4349522 C22.9354698,21.3450236 23.0056341,21.2611662 23.0747528,21.176418 C20.5633375,23.1458096 16.1150724,24.3072707 13.6086141,23.562864 C10.6813293,22.6928229 11.1588808,19.8420329 12.7226419,19.7035927 C14.0269342,19.5881649 14.1777324,20.8689359 14.1777324,20.8689359 C14.1777324,20.8689359 13.9254271,20.4085277 13.6036574,20.2830138 C13.4761258,20.2240581 13.2553946,20.1838216 13.1063166,20.1906672 C12.5991718,20.2141049 12.2076127,20.6562621 12.2317253,21.1772854 C12.2588152,21.7598594 12.8523331,22.9842939 14.7244779,23.0140318 C15.6646076,23.0290085 16.588418,22.8801328 17.2061778,22.4017907 C17.7501036,22.0728268 18.1138317,21.4746647 18.1138317,20.7913232 C18.1138317,20.3229841 17.9429789,19.894656 17.6603582,19.5655811 C17.3215587,19.1396869 16.7905037,18.8687151 16.1963279,18.8687151 Z" id="Combined-Shape"></path>
                <path d="M9.84943229,7.04236245 C10.0226231,7.04236245 10.1904511,7.01934042 10.3500382,6.97618201 C10.627606,8.17756937 11.701627,9.0729823 12.9842277,9.0729823 C14.3439295,9.0729823 15.4692211,8.06668177 15.6597117,6.75633613 C15.7815465,6.77399441 15.9061303,6.78313438 16.0328433,6.78313438 C17.4607193,6.78313438 18.6182416,5.6225308 18.6182416,4.19085373 C18.6182416,3.74457989 18.5057702,3.32464508 18.3076979,2.9579913 C17.9014848,2.20052222 17.2979334,1.56551803 16.5661754,1.12161444 C16.4442372,1.05076515 16.3203435,0.982924593 16.1945953,0.918194079 C16.1432285,0.892973307 16.0913445,0.868648611 16.0389634,0.845240307 C14.9378524,0.301141989 13.7100286,0 12.3917406,0 C11.625993,0 10.8843552,0.103500978 10.1799834,0.297311664 C10.5554116,0.194011098 10.9414266,0.116366265 11.3360363,0.0663745458 C8.09053313,0.486102545 5.22125848,2.10985749 3.18747724,4.47612538 C3.11029041,4.56605395 3.0401261,4.64991132 2.97100745,4.73465954 C5.48242267,2.76526795 9.93068779,1.60380688 12.4371461,2.34821357 C15.3644309,3.21825464 14.8868794,6.06904461 13.3231183,6.20748488 C12.018826,6.32291261 11.8680278,5.04214164 11.8680278,5.04214164 C11.8680278,5.04214164 12.1203331,5.50254986 12.4421028,5.62806374 C12.5696344,5.68701948 12.7903656,5.72725589 12.9394436,5.72041034 C13.4465884,5.69697268 13.8381475,5.25481541 13.8140349,4.73379217 C13.786945,4.15121811 13.1934271,2.92678365 11.3212824,2.89704577 C10.3811526,2.88206903 9.45734219,3.03094476 8.83958244,3.50928681 C8.29565656,3.83825072 7.93192854,4.43641282 7.93192854,5.1197543 C7.93192854,5.58809341 8.10278133,6.0164215 8.38540205,6.34549641 C8.72420149,6.77139067 9.25525648,7.04236245 9.84943229,7.04236245 Z" id="Combined-Shape-Copy-2"></path>
                <path d="M7.02366543,16.2207233 C7.02366543,16.0470715 7.00070451,15.8787968 6.95766069,15.7187848 C8.15585845,15.4404781 9.04889411,14.363598 9.04889411,13.077583 C9.04889411,11.7142618 8.04526524,10.5859746 6.73839849,10.3949769 C6.75600989,10.2728178 6.76512559,10.1479023 6.76512559,10.0208521 C6.76512559,8.58917501 5.60760334,7.42857143 4.17972728,7.42857143 C3.73463827,7.42857143 3.31581836,7.54134222 2.95013802,7.7399418 C2.19467997,8.14723624 1.56136168,8.75239423 1.11863663,9.48610021 C1.04797543,9.60836298 0.98031499,9.73258649 0.915756332,9.85866945 C0.89060252,9.91017295 0.866342404,9.96219513 0.842996248,10.0147156 C0.300342476,11.1187578 0,12.3498501 0,13.6716473 C0,14.4394334 0.103226189,15.1830454 0.29652232,15.8892923 C0.193496011,15.5128647 0.11605732,15.1258221 0.0661983256,14.7301619 C0.484811974,17.9843047 2.10425596,20.8612173 4.46424155,22.9004125 C4.55393137,22.9778048 4.6375661,23.0481559 4.72208932,23.1174586 C2.75792634,20.5993579 1.59954887,16.1392515 2.34197922,13.626121 C3.20971038,10.6910438 6.05293168,11.1698666 6.1910044,12.7377904 C6.30612568,14.0455546 5.02875508,14.1967543 5.02875508,14.1967543 C5.02875508,14.1967543 5.48794094,13.9437774 5.61312159,13.6211511 C5.67192081,13.49328 5.71205039,13.2719612 5.70522302,13.1224864 C5.68184758,12.6139916 5.24086421,12.2213901 4.72122426,12.245567 C4.14019689,12.2727289 2.91901322,12.8678268 2.8893543,14.7449552 C2.87441732,15.6875876 3.02289779,16.6138572 3.49996988,17.2332614 C3.82806041,17.7786352 4.42463443,18.1433315 5.10616167,18.1433315 C5.57325738,18.1433315 6.00044828,17.9720239 6.32864952,17.6886508 C6.75341306,17.3489495 7.02366543,16.8164808 7.02366543,16.2207233 Z" id="Combined-Shape-Copy-3"></path>
                <path d="M18.8609376,9.8681638 C18.8609376,10.0418156 18.8838985,10.2100904 18.9269423,10.3701023 C17.7287445,10.648409 16.8357089,11.7252891 16.8357089,13.0113041 C16.8357089,14.3746254 17.8393377,15.5029125 19.1462045,15.6939102 C19.1285931,15.8160693 19.1194774,15.9409848 19.1194774,16.068035 C19.1194774,17.4997121 20.2769997,18.6603157 21.7048757,18.6603157 C22.1499647,18.6603157 22.5687846,18.5475449 22.934465,18.3489453 C23.689923,17.9416509 24.3232413,17.3364929 24.7659664,16.6027869 C24.8366276,16.4805241 24.904288,16.3563006 24.9688467,16.2302177 C24.9940005,16.1787142 25.0182606,16.126692 25.0416067,16.0741715 C25.5842605,14.9701293 25.884603,13.739037 25.884603,12.4172398 C25.884603,11.6494538 25.7813768,10.9058417 25.5880807,10.1995948 C25.691107,10.5760225 25.7685457,10.963065 25.8184047,11.3587252 C25.399791,8.10458245 23.780347,5.22766978 21.4203614,3.1884746 C21.3306716,3.1110823 21.2470369,3.04073121 21.1625137,2.97142857 C23.1266767,5.48952918 24.2850541,9.94963561 23.5426238,12.4627661 C22.6748926,15.3978434 19.8316713,14.9190206 19.6935986,13.3510968 C19.5784773,12.0433325 20.8558479,11.8921328 20.8558479,11.8921328 C20.8558479,11.8921328 20.3966621,12.1451097 20.2714814,12.467736 C20.2126822,12.5956071 20.1725526,12.8169259 20.17938,12.9664007 C20.2027554,13.4748956 20.6437388,13.867497 21.1633787,13.8433202 C21.7444061,13.8161582 22.9655898,13.2210603 22.9952487,11.3439319 C23.0101857,10.4012995 22.8617052,9.47502995 22.3846331,8.85562573 C22.0565426,8.31025192 21.4599686,7.94555565 20.7784413,7.94555565 C20.3113456,7.94555565 19.8841547,8.11686325 19.5559535,8.40023631 C19.1311899,8.73993763 18.8609376,9.27240629 18.8609376,9.8681638 Z" id="Combined-Shape-Copy-4"></path>
            </g>
        </g>
    </g>
</svg>