<?xml version="1.0" encoding="UTF-8"?>
<svg width="180px" height="33px" viewBox="0 0 180 33" version="1.1" xmlns="http://www.w3.org/2000/svg" xmlns:xlink="http://www.w3.org/1999/xlink">
    <!-- Generator: Sketch 43.2 (39069) - http://www.bohemiancoding.com/sketch -->
    <title>Artboard</title>
    <desc>Created with Sketch.</desc>
    <defs></defs>
    <g id="Poker" stroke="none" stroke-width="1" fill="none" fill-rule="evenodd">
        <g id="Artboard-1" transform="translate(-1034.000000, -2055.000000)"></g>
        <g id="Artboard" fill="#FFFFFF">
            <g id="Group-16" transform="translate(0.000000, 2.000000)">
                <path d="M1.69791045,25.1054933 L2.82166311,25.1054933 C2.98746352,25.1054933 3.14712077,25.0931201 3.30063966,25.0683733 C3.45415855,25.0436265 3.58925315,24.9956804 3.70592751,24.9245333 C3.82260186,24.8533863 3.91624698,24.752854 3.98686567,24.6229333 C4.05748436,24.4930127 4.09279318,24.3228811 4.09279318,24.1125333 C4.09279318,23.9021856 4.05748436,23.732054 3.98686567,23.6021333 C3.91624698,23.4722127 3.82260186,23.3716804 3.70592751,23.3005333 C3.58925315,23.2293863 3.45415855,23.1814401 3.30063966,23.1566933 C3.14712077,23.1319465 2.98746352,23.1195733 2.82166311,23.1195733 L1.69791045,23.1195733 L1.69791045,25.1054933 Z M0.251769723,21.9874133 L3.21773987,21.9874133 C3.6291705,21.9874133 3.97918832,22.0477327 4.26780384,22.1683733 C4.55641935,22.2890139 4.79129973,22.448319 4.97245203,22.6462933 C5.15360432,22.8442677 5.28562858,23.0700787 5.36852878,23.3237333 C5.45142899,23.5773879 5.49287846,23.8403186 5.49287846,24.1125333 C5.49287846,24.3785613 5.45142899,24.6399454 5.36852878,24.8966933 C5.28562858,25.1534413 5.15360432,25.380799 4.97245203,25.5787733 C4.79129973,25.7767477 4.55641935,25.9360527 4.26780384,26.0566933 C3.97918832,26.1773339 3.6291705,26.2376533 3.21773987,26.2376533 L1.69791045,26.2376533 L1.69791045,28.6133333 L0.251769723,28.6133333 L0.251769723,21.9874133 Z M13.6876759,21.9874133 L13.6876759,28.6133333 L18.3392751,28.6133333 L18.3392751,27.3883733 L15.1338166,27.3883733 L15.1338166,21.9874133 L13.6876759,21.9874133 Z M28.0999574,26.0520533 L29.8040085,26.0520533 L28.9750107,23.6206933 L28.9565885,23.6206933 L28.0999574,26.0520533 Z M28.2381237,21.9874133 L29.7211087,21.9874133 L32.1804691,28.6133333 L30.6790618,28.6133333 L30.1816631,27.1378133 L27.7223028,27.1378133 L27.2064819,28.6133333 L25.7511301,28.6133333 L28.2381237,21.9874133 Z M40.0436674,21.9874133 L40.0436674,28.6133333 L41.3976972,28.6133333 L41.3976972,24.1774933 L41.4161194,24.1774933 L44.1518124,28.6133333 L45.5979531,28.6133333 L45.5979531,21.9874133 L44.2439232,21.9874133 L44.2439232,26.4325333 L44.2255011,26.4325333 L41.480597,21.9874133 L40.0436674,21.9874133 Z M54.161194,21.9874133 L54.161194,28.6133333 L55.5152239,28.6133333 L55.5152239,24.1774933 L55.5336461,24.1774933 L58.269339,28.6133333 L59.7154797,28.6133333 L59.7154797,21.9874133 L58.3614499,21.9874133 L58.3614499,26.4325333 L58.3430277,26.4325333 L55.5981237,21.9874133 L54.161194,21.9874133 Z M68.2787207,21.9874133 L68.2787207,28.6133333 L69.7248614,28.6133333 L69.7248614,21.9874133 L68.2787207,21.9874133 Z M78.2881023,21.9874133 L78.2881023,28.6133333 L79.6421322,28.6133333 L79.6421322,24.1774933 L79.6605544,24.1774933 L82.3962473,28.6133333 L83.8423881,28.6133333 L83.8423881,21.9874133 L82.4883582,21.9874133 L82.4883582,26.4325333 L82.469936,26.4325333 L79.725032,21.9874133 L78.2881023,21.9874133 Z M97.1585501,27.8616533 L97.3059275,28.6133333 L98.2270362,28.6133333 L98.2270362,25.0312533 L95.46371,25.0312533 L95.46371,26.1170133 L96.9190618,26.1170133 C96.8760765,26.5810157 96.7240951,26.9351988 96.463113,27.1795733 C96.2021309,27.4239479 95.8321559,27.5461333 95.353177,27.5461333 C95.0277169,27.5461333 94.7513871,27.4827206 94.5241791,27.3558933 C94.2969711,27.229066 94.1127512,27.0604811 93.9715139,26.8501333 C93.8302765,26.6397856 93.7274204,26.403148 93.6629424,26.1402133 C93.5984645,25.8772787 93.566226,25.6066147 93.566226,25.3282133 C93.566226,25.0374385 93.5984645,24.755948 93.6629424,24.4837333 C93.7274204,24.2115186 93.8302765,23.9686944 93.9715139,23.7552533 C94.1127512,23.5418123 94.2969711,23.3716806 94.5241791,23.2448533 C94.7513871,23.118026 95.0277169,23.0546133 95.353177,23.0546133 C95.7032,23.0546133 96.0010222,23.1474124 96.2466525,23.3330133 C96.4922827,23.5186143 96.6580806,23.7970115 96.7440512,24.1682133 L98.1257143,24.1682133 C98.0888698,23.7908248 97.9875488,23.4567481 97.8217484,23.1659733 C97.655948,22.8751985 97.4456303,22.6308277 97.1907889,22.4328533 C96.9359476,22.234879 96.6504067,22.0848538 96.3341578,21.9827733 C96.0179089,21.8806928 95.6909185,21.8296533 95.353177,21.8296533 C94.849635,21.8296533 94.3967611,21.9193591 93.9945416,22.0987733 C93.5923221,22.2781876 93.2530504,22.5256518 92.9767164,22.8411733 C92.7003824,23.1566949 92.4885295,23.5263445 92.3411514,23.9501333 C92.1937733,24.3739221 92.1200853,24.8332775 92.1200853,25.3282133 C92.1200853,25.8107757 92.1937733,26.2608512 92.3411514,26.6784533 C92.4885295,27.0960554 92.7003824,27.4595185 92.9767164,27.7688533 C93.2530504,28.0781882 93.5923221,28.3210125 93.9945416,28.4973333 C94.3967611,28.6736542 94.849635,28.7618133 95.353177,28.7618133 C95.6724963,28.7618133 95.9887404,28.6953073 96.301919,28.5622933 C96.6150975,28.4292793 96.9006384,28.195735 97.1585501,27.8616533 Z M117.987889,25.1054933 L119.111642,25.1054933 C119.277442,25.1054933 119.437099,25.0931201 119.590618,25.0683733 C119.744137,25.0436265 119.879232,24.9956804 119.995906,24.9245333 C120.112581,24.8533863 120.206226,24.752854 120.276844,24.6229333 C120.347463,24.4930127 120.382772,24.3228811 120.382772,24.1125333 C120.382772,23.9021856 120.347463,23.732054 120.276844,23.6021333 C120.206226,23.4722127 120.112581,23.3716804 119.995906,23.3005333 C119.879232,23.2293863 119.744137,23.1814401 119.590618,23.1566933 C119.437099,23.1319465 119.277442,23.1195733 119.111642,23.1195733 L117.987889,23.1195733 L117.987889,25.1054933 Z M116.541748,21.9874133 L119.507719,21.9874133 C119.919149,21.9874133 120.269167,22.0477327 120.557783,22.1683733 C120.846398,22.2890139 121.081278,22.448319 121.262431,22.6462933 C121.443583,22.8442677 121.575607,23.0700787 121.658507,23.3237333 C121.741408,23.5773879 121.782857,23.8403186 121.782857,24.1125333 C121.782857,24.3785613 121.741408,24.6399454 121.658507,24.8966933 C121.575607,25.1534413 121.443583,25.380799 121.262431,25.5787733 C121.081278,25.7767477 120.846398,25.9360527 120.557783,26.0566933 C120.269167,26.1773339 119.919149,26.2376533 119.507719,26.2376533 L117.987889,26.2376533 L117.987889,28.6133333 L116.541748,28.6133333 L116.541748,21.9874133 Z M131.138252,25.3282133 C131.138252,25.6066147 131.17049,25.8772787 131.234968,26.1402133 C131.299446,26.403148 131.402302,26.6397856 131.543539,26.8501333 C131.684777,27.0604811 131.868997,27.229066 132.096205,27.3558933 C132.323413,27.4827206 132.599743,27.5461333 132.925203,27.5461333 C133.250663,27.5461333 133.526992,27.4827206 133.7542,27.3558933 C133.981408,27.229066 134.165628,27.0604811 134.306866,26.8501333 C134.448103,26.6397856 134.550959,26.403148 134.615437,26.1402133 C134.679915,25.8772787 134.712154,25.6066147 134.712154,25.3282133 C134.712154,25.0374385 134.679915,24.755948 134.615437,24.4837333 C134.550959,24.2115186 134.448103,23.9686944 134.306866,23.7552533 C134.165628,23.5418123 133.981408,23.3716806 133.7542,23.2448533 C133.526992,23.118026 133.250663,23.0546133 132.925203,23.0546133 C132.599743,23.0546133 132.323413,23.118026 132.096205,23.2448533 C131.868997,23.3716806 131.684777,23.5418123 131.543539,23.7552533 C131.402302,23.9686944 131.299446,24.2115186 131.234968,24.4837333 C131.17049,24.755948 131.138252,25.0374385 131.138252,25.3282133 Z M129.692111,25.3282133 C129.692111,24.8332775 129.765799,24.3739221 129.913177,23.9501333 C130.060555,23.5263445 130.272408,23.1566949 130.548742,22.8411733 C130.825076,22.5256518 131.164348,22.2781876 131.566567,22.0987733 C131.968787,21.9193591 132.421661,21.8296533 132.925203,21.8296533 C133.434885,21.8296533 133.889294,21.9193591 134.288443,22.0987733 C134.687593,22.2781876 135.025329,22.5256518 135.301663,22.8411733 C135.577997,23.1566949 135.78985,23.5263445 135.937228,23.9501333 C136.084606,24.3739221 136.158294,24.8332775 136.158294,25.3282133 C136.158294,25.8107757 136.084606,26.2608512 135.937228,26.6784533 C135.78985,27.0960554 135.577997,27.4595185 135.301663,27.7688533 C135.025329,28.0781882 134.687593,28.3210125 134.288443,28.4973333 C133.889294,28.6736542 133.434885,28.7618133 132.925203,28.7618133 C132.421661,28.7618133 131.968787,28.6736542 131.566567,28.4973333 C131.164348,28.3210125 130.825076,28.0781882 130.548742,27.7688533 C130.272408,27.4595185 130.060555,27.0960554 129.913177,26.6784533 C129.765799,26.2608512 129.692111,25.8107757 129.692111,25.3282133 Z M144.435991,21.9874133 L144.435991,28.6133333 L145.882132,28.6133333 L145.882132,26.4789333 L146.71113,25.6344533 L148.691514,28.6133333 L150.506098,28.6133333 L147.687505,24.6043733 L150.257399,21.9874133 L148.452026,21.9874133 L145.882132,24.7342933 L145.882132,21.9874133 L144.435991,21.9874133 Z M158.378507,21.9874133 L158.378507,28.6133333 L163.370917,28.6133333 L163.370917,27.3883733 L159.824648,27.3883733 L159.824648,25.7643733 L163.011684,25.7643733 L163.011684,24.6322133 L159.824648,24.6322133 L159.824648,23.2123733 L163.297228,23.2123733 L163.297228,21.9874133 L158.378507,21.9874133 Z M173.085544,24.9848533 L174.669851,24.9848533 C175.001452,24.9848533 175.250148,24.9106141 175.415949,24.7621333 C175.581749,24.6136526 175.664648,24.372375 175.664648,24.0382933 C175.664648,23.7165851 175.581749,23.4830407 175.415949,23.3376533 C175.250148,23.1922659 175.001452,23.1195733 174.669851,23.1195733 L173.085544,23.1195733 L173.085544,24.9848533 Z M171.639403,21.9874133 L175.185672,21.9874133 C175.480428,21.9874133 175.746012,22.0353595 175.982431,22.1312533 C176.21885,22.2271471 176.421492,22.3586125 176.590362,22.5256533 C176.759233,22.6926942 176.888187,22.8860256 176.977228,23.1056533 C177.066269,23.3252811 177.110789,23.5619187 177.110789,23.8155733 C177.110789,24.2053353 177.029425,24.5425052 176.866695,24.8270933 C176.703965,25.1116814 176.438381,25.3282126 176.069936,25.4766933 L176.069936,25.4952533 C176.248018,25.5447469 176.395394,25.6205328 176.512068,25.7226133 C176.628743,25.8246938 176.723923,25.9453326 176.797612,26.0845333 C176.871301,26.223734 176.925032,26.3768525 176.958806,26.5438933 C176.99258,26.7109342 177.015608,26.8779725 177.027889,27.0450133 C177.03403,27.1501872 177.040171,27.2739193 177.046311,27.4162133 C177.052452,27.5585074 177.063198,27.7038926 177.07855,27.8523733 C177.093902,28.0008541 177.118465,28.1415993 177.152239,28.2746133 C177.186013,28.4076273 177.236673,28.5205329 177.304222,28.6133333 L175.858081,28.6133333 C175.778251,28.4029856 175.729126,28.1524281 175.710704,27.8616533 C175.692281,27.5708785 175.664648,27.2924813 175.627804,27.0264533 C175.578678,26.6799983 175.474287,26.4263475 175.314627,26.2654933 C175.154967,26.1046392 174.893989,26.0242133 174.531684,26.0242133 L173.085544,26.0242133 L173.085544,28.6133333 L171.639403,28.6133333 L171.639403,21.9874133 Z" id="PLANNING-POKER-Copy-10" fill-opacity="0.24682971"></path>
                <path d="M4.29850746,5.96704 C4.29850746,4.48688 4.77978678,3.6192 6.65424307,3.6192 C7.87010661,3.6192 9.54191898,3.77232 11.0110874,4.02752 L11.5430277,0.6844 C9.87121535,0.32712 8.35138593,0.14848 6.65424307,0.14848 C2.39872068,0.14848 0.498933902,2.26664 0.498933902,5.35456 L0.498933902,12.44912 C0.498933902,15.53704 2.39872068,17.6552 6.65424307,17.6552 C8.35138593,17.6552 9.87121535,17.47656 11.5430277,17.11928 L11.0110874,13.77616 C9.54191898,14.03136 7.87010661,14.18448 6.65424307,14.18448 C4.77978678,14.18448 4.29850746,13.3168 4.29850746,11.83664 L4.29850746,5.96704 Z M28.5207889,17.4 L28.5207889,14.00584 L21.8335394,14.00584 L21.8335394,0.40368 L18.0339659,0.40368 L18.0339659,17.4 L28.5207889,17.4 Z M47.3223454,5.35456 L47.3223454,12.44912 C47.3223454,15.02664 45.5492111,17.6552 40.7870789,17.6552 C36.0249467,17.6552 34.2518124,15.02664 34.2518124,12.44912 L34.2518124,5.35456 C34.2518124,2.77704 36.0249467,0.14848 40.7870789,0.14848 C45.5492111,0.14848 47.3223454,2.77704 47.3223454,5.35456 Z M43.5227719,12.11736 L43.5227719,5.68632 C43.5227719,4.35928 42.6868657,3.54264 40.7870789,3.54264 C38.8872921,3.54264 38.0513859,4.35928 38.0513859,5.68632 L38.0513859,12.11736 C38.0513859,13.4444 38.8872921,14.26104 40.7870789,14.26104 C42.6868657,14.26104 43.5227719,13.4444 43.5227719,12.11736 Z M62.9829211,0.40368 L62.9829211,12.09184 C62.9829211,13.46992 62.3243284,14.26104 60.4245416,14.26104 C58.5247548,14.26104 57.866162,13.46992 57.866162,12.09184 L57.866162,0.40368 L54.0665885,0.40368 L54.0665885,12.44912 C54.0665885,15.02664 55.6624094,17.6552 60.4245416,17.6552 C65.1866738,17.6552 66.7824947,15.02664 66.7824947,12.44912 L66.7824947,0.40368 L62.9829211,0.40368 Z M86.141322,12.98504 C86.141322,15.25632 84.596162,17.4 80.4419616,17.4 L73.9066951,17.4 L73.9066951,0.40368 L80.4419616,0.40368 C84.596162,0.40368 86.141322,2.52184 86.141322,4.81864 L86.141322,12.98504 Z M82.3417484,11.93872 L82.3417484,5.86496 C82.3417484,4.53792 81.8857996,3.79784 79.9860128,3.79784 L77.7062687,3.79784 L77.7062687,14.00584 L79.9860128,14.00584 C81.8857996,14.00584 82.3417484,13.26576 82.3417484,11.93872 Z M104.537591,3.79784 L104.537591,0.40368 L91.6697015,0.40368 L91.6697015,3.79784 L96.2038593,3.79784 L96.2038593,17.4 L100.003433,17.4 L100.003433,3.79784 L104.537591,3.79784 Z M120.198166,17.4 L116.474584,12.11736 L114.245501,12.11736 L114.245501,17.4 L110.445928,17.4 L110.445928,0.40368 L117.462473,0.40368 C121.566013,0.40368 123.085842,2.03696 123.085842,5.22696 L123.085842,7.3196 C123.085842,9.43776 122.325928,10.86688 120.628785,11.58144 L124.706994,17.4 L120.198166,17.4 Z M119.286269,6.9368 L119.286269,5.58424 C119.286269,4.30824 118.804989,3.79784 117.259829,3.79784 L114.245501,3.79784 L114.245501,8.79976 L117.259829,8.79976 C118.880981,8.79976 119.286269,8.2128 119.286269,6.9368 Z M139.481002,0.40368 L139.481002,12.09184 C139.481002,13.46992 138.822409,14.26104 136.922623,14.26104 C135.022836,14.26104 134.364243,13.46992 134.364243,12.09184 L134.364243,0.40368 L130.56467,0.40368 L130.56467,12.44912 C130.56467,15.02664 132.16049,17.6552 136.922623,17.6552 C141.684755,17.6552 143.280576,15.02664 143.280576,12.44912 L143.280576,0.40368 L139.481002,0.40368 Z M161.524861,12.62776 C161.524861,9.28464 161.296887,8.39144 156.737399,7.29408 C154.077697,6.65608 154.001706,6.63056 154.001706,4.99728 C154.001706,3.7468 154.381663,3.44056 156.078806,3.44056 C157.598635,3.44056 158.839829,3.59368 160.764947,3.92544 L161.144904,0.70992 C159.270448,0.3016 157.497313,0.14848 156.028145,0.14848 C151.392665,0.14848 150.202132,1.50104 150.202132,4.8952 C150.202132,8.57008 150.810064,9.38672 154.888273,10.27992 C157.649296,10.8924 157.725288,11.07104 157.725288,12.60224 C157.725288,14.03136 157.34533,14.41416 155.394883,14.41416 C153.647079,14.41416 152.076588,14.0824 150.531429,13.59752 L149.898166,16.55784 C151.342004,17.22136 153.393774,17.6552 155.344222,17.6552 C160.43565,17.6552 161.524861,15.9964 161.524861,12.62776 Z M179.667825,3.79784 L179.667825,0.40368 L166.799936,0.40368 L166.799936,3.79784 L171.334094,3.79784 L171.334094,17.4 L175.133667,17.4 L175.133667,3.79784 L179.667825,3.79784 Z" id="CLOUDTRUST-Copy-4"></path>
            </g>
        </g>
    </g>
</svg>