<?xml version="1.0" encoding="UTF-8" standalone="no"?>
<svg width="182px" height="35px" viewBox="0 0 182 35" version="1.1" xmlns="http://www.w3.org/2000/svg" xmlns:xlink="http://www.w3.org/1999/xlink">
    <!-- Generator: Sketch 3.6.1 (26313) - http://www.bohemiancoding.com/sketch -->
    <title>Artboard 1</title>
    <desc>Created with Sketch.</desc>
    <defs></defs>
    <g id="Page-1" stroke="none" stroke-width="1" fill="none" fill-rule="evenodd">
        <g id="Artboard-1" fill="#FFFFFF">
            <g id="text_new-01-(1)" transform="translate(1.000000, 1.000000)">
                <g id="Artboard-1_1_">
                    <g id="LOGO">
                        <g id="Artboard-1">
                            <path d="M11.862,4.766 L19.77,4.766 L19.77,0.81 L0,0.81 L0,4.766 L7.908,4.766 L7.908,20.59 L11.862,20.59 L11.862,4.766 L11.862,4.766 L11.862,4.766 Z" id="Combined-Shape"></path>
                            <path d="M104.876,4.766 L112.685,4.766 L112.685,0.81 L92.916,0.81 L92.916,4.766 L100.923,4.766 L100.923,20.59 L104.877,20.59 L104.877,4.766 L104.876,4.766 L104.876,4.766 Z" id="Combined-Shape_1_"></path>
                            <path d="M172.092,4.766 L180,4.766 L180,0.81 L160.231,0.81 L160.231,4.766 L168.139,4.766 L168.139,20.59 L172.093,20.59 L172.093,4.766 L172.092,4.766 L172.092,4.766 Z" id="Combined-Shape_2_"></path>
                            <path d="M39.365,12.399 C41.759,11.635 43.493,9.392 43.493,6.744 C43.493,3.466 40.837,0.81 37.562,0.81 L34.597,0.81 L25.7,0.81 L25.7,4.766 L37.561,4.766 C38.653,4.766 39.538,5.651 39.538,6.744 C39.538,7.836 38.653,8.722 37.561,8.722 L25.7,8.722 L25.7,10.749 L25.7,20.59 L29.654,20.59 L29.654,12.678 L34.597,12.678 L35.552,12.678 L39.539,20.59 L43.493,20.59 L39.365,12.399 L39.365,12.399 L39.365,12.399 Z" id="Combined-Shape_3_"></path>
                            <path d="M83.031,8.747 L83.031,8.722 C83.031,6.537 81.261,4.766 79.077,4.766 C76.893,4.766 75.123,6.537 75.123,8.722 L75.123,8.747 L75.123,20.59 L71.17,20.59 L71.17,8.623 L71.171,8.623 C71.224,4.299 74.744,0.81 79.078,0.81 C83.412,0.81 86.932,4.299 86.985,8.623 L86.986,8.623 L86.986,20.59 L83.032,20.59 L83.031,8.747 L83.031,8.747 L83.031,8.747 Z" id="Combined-Shape_4_"></path>
                            <path d="M61.285,8.747 L61.285,8.722 C61.285,6.537 59.515,4.766 57.331,4.766 C55.147,4.766 53.377,6.537 53.377,8.722 L53.377,8.747 L53.377,20.59 L49.423,20.59 L49.423,8.623 L49.424,8.623 C49.477,4.299 52.997,0.81 57.331,0.81 C61.665,0.81 65.185,4.299 65.238,8.623 L65.239,8.623 L65.239,20.59 L61.285,20.59 L61.285,8.747 L61.285,8.747 L61.285,8.747 Z" id="Combined-Shape_5_"></path>
                            <path d="M130.478,12.678 L128.55,12.678 L120.593,12.678 L120.593,14.656 C120.593,15.748 121.477,16.634 122.57,16.634 L134.531,16.634 L134.531,20.59 L125.981,20.59 L121.581,20.59 C118.852,20.59 116.64,18.376 116.64,15.645 L116.64,5.755 C116.64,3.024 118.853,0.81 121.581,0.81 L125.981,0.81 L134.531,0.81 L134.531,4.766 L122.57,4.766 C121.478,4.766 120.593,5.652 120.593,6.744 L120.593,8.722 L128.55,8.722 L130.478,8.722 L130.478,12.678 L130.478,12.678 L130.478,12.678 Z" id="Combined-Shape_6_"></path>
                            <path d="M156.277,20.59 L149.358,20.59 L146.392,20.59 C142.025,20.59 138.485,17.048 138.485,12.678 L138.485,8.722 C138.485,4.352 142.025,0.81 146.392,0.81 L149.358,0.81 L156.277,0.81 L156.277,4.766 L146.392,4.766 C144.209,4.766 142.439,6.537 142.439,8.722 L142.439,12.678 C142.439,14.864 144.209,16.634 146.392,16.634 L156.277,16.634 L156.277,20.59 L156.277,20.59 L156.277,20.59 Z" id="Combined-Shape_7_"></path>
                            <circle id="Oval-3-Copy-2" cx="57.331" cy="12.678" r="1.978"></circle>
                        </g>
                    </g>
                </g>
                <g id="Group" opacity="0.5" transform="translate(0.000000, 25.000000)">
                    <path d="M3.91,0.67 C4.356,0.67 4.736,0.734 5.05,0.864 C5.364,0.994 5.618,1.166 5.815,1.38 C6.012,1.593 6.155,1.836 6.245,2.109 C6.335,2.382 6.38,2.666 6.38,2.96 C6.38,3.246 6.335,3.528 6.245,3.805 C6.155,4.081 6.012,4.326 5.815,4.54 C5.618,4.753 5.363,4.925 5.05,5.055 C4.737,5.185 4.356,5.25 3.91,5.25 L2.26,5.25 L2.26,7.81 L0.69,7.81 L0.69,0.67 L3.91,0.67 L3.91,0.67 Z M3.48,4.03 C3.66,4.03 3.834,4.017 4,3.99 C4.167,3.964 4.313,3.912 4.44,3.836 C4.566,3.759 4.669,3.65 4.745,3.511 C4.822,3.37 4.86,3.188 4.86,2.961 C4.86,2.734 4.822,2.551 4.745,2.41 C4.668,2.27 4.566,2.162 4.44,2.086 C4.313,2.008 4.167,1.957 4,1.93 C3.833,1.903 3.66,1.89 3.48,1.89 L2.26,1.89 L2.26,4.03 L3.48,4.03 L3.48,4.03 Z" id="Shape"></path>
                    <path d="M21.58,0.67 L21.58,6.489 L25.06,6.489 L25.06,7.809 L20.01,7.809 L20.01,0.669 L21.58,0.669 L21.58,0.67 Z" id="Shape"></path>
                    <path d="M42.149,0.67 L44.819,7.81 L43.189,7.81 L42.649,6.22 L39.979,6.22 L39.418,7.81 L37.84,7.81 L40.539,0.67 L42.149,0.67 L42.149,0.67 Z M42.239,5.05 L41.34,2.43 L41.319,2.43 L40.389,5.05 L42.239,5.05 L42.239,5.05 Z" id="Shape"></path>
                    <path d="M59.649,0.67 L62.629,5.46 L62.649,5.46 L62.649,0.67 L64.119,0.67 L64.119,7.81 L62.55,7.81 L59.579,3.03 L59.559,3.03 L59.559,7.81 L58.089,7.81 L58.089,0.67 L59.649,0.67 L59.649,0.67 Z" id="Shape"></path>
                    <path d="M96.8,0.67 C97.246,0.67 97.626,0.734 97.94,0.864 C98.254,0.994 98.508,1.166 98.706,1.38 C98.902,1.593 99.046,1.836 99.136,2.109 C99.226,2.382 99.271,2.666 99.271,2.96 C99.271,3.246 99.226,3.528 99.136,3.805 C99.046,4.082 98.903,4.326 98.706,4.54 C98.509,4.753 98.254,4.925 97.94,5.055 C97.626,5.185 97.247,5.25 96.8,5.25 L95.15,5.25 L95.15,7.81 L93.58,7.81 L93.58,0.67 L96.8,0.67 L96.8,0.67 Z M96.37,4.03 C96.55,4.03 96.723,4.017 96.89,3.99 C97.057,3.964 97.203,3.912 97.33,3.836 C97.456,3.759 97.558,3.65 97.635,3.511 C97.711,3.37 97.75,3.188 97.75,2.961 C97.75,2.734 97.711,2.551 97.635,2.41 C97.558,2.27 97.456,2.162 97.33,2.086 C97.203,2.009 97.057,1.957 96.89,1.931 C96.723,1.905 96.55,1.891 96.37,1.891 L95.149,1.891 L95.149,4.031 L96.37,4.031 L96.37,4.03 Z" id="Shape"></path>
                    <path d="M112.83,2.785 C112.99,2.329 113.22,1.931 113.519,1.591 C113.82,1.251 114.188,0.985 114.624,0.791 C115.06,0.597 115.553,0.501 116.099,0.501 C116.653,0.501 117.146,0.598 117.579,0.791 C118.012,0.984 118.379,1.251 118.679,1.591 C118.979,1.931 119.209,2.329 119.369,2.785 C119.529,3.242 119.609,3.737 119.609,4.27 C119.609,4.791 119.529,5.275 119.369,5.725 C119.209,6.175 118.978,6.567 118.679,6.9 C118.379,7.234 118.013,7.495 117.579,7.685 C117.145,7.875 116.652,7.97 116.099,7.97 C115.553,7.97 115.061,7.875 114.624,7.685 C114.187,7.495 113.819,7.234 113.519,6.9 C113.219,6.567 112.99,6.175 112.83,5.725 C112.67,5.275 112.59,4.79 112.59,4.27 C112.59,3.737 112.67,3.242 112.83,2.785 L112.83,2.785 Z M114.265,5.145 C114.335,5.428 114.447,5.683 114.6,5.91 C114.753,6.138 114.954,6.319 115.201,6.455 C115.447,6.592 115.747,6.66 116.1,6.66 C116.453,6.66 116.753,6.592 117,6.455 C117.246,6.319 117.446,6.138 117.6,5.91 C117.753,5.683 117.866,5.429 117.935,5.145 C118.005,4.862 118.04,4.57 118.04,4.27 C118.04,3.957 118.005,3.654 117.935,3.36 C117.866,3.067 117.753,2.805 117.6,2.575 C117.447,2.346 117.246,2.162 117,2.025 C116.753,1.888 116.453,1.82 116.1,1.82 C115.747,1.82 115.447,1.888 115.201,2.025 C114.954,2.162 114.754,2.345 114.6,2.575 C114.447,2.805 114.335,3.067 114.265,3.36 C114.196,3.654 114.161,3.957 114.161,4.27 C114.16,4.57 114.195,4.862 114.265,5.145 L114.265,5.145 Z" id="Shape"></path>
                    <path d="M134.899,0.67 L134.899,3.63 L137.689,0.67 L139.649,0.67 L136.859,3.489 L139.92,7.809 L137.949,7.809 L135.8,4.6 L134.9,5.51 L134.9,7.81 L133.331,7.81 L133.331,0.67 L134.899,0.67 L134.899,0.67 Z" id="Shape"></path>
                    <path d="M158.54,0.67 L158.54,1.989 L154.769,1.989 L154.769,3.519 L158.229,3.519 L158.229,4.739 L154.769,4.739 L154.769,6.489 L158.62,6.489 L158.62,7.809 L153.2,7.809 L153.2,0.669 L158.54,0.669 L158.54,0.67 Z" id="Shape"></path>
                </g>
                <path d="M176.18,25.67 C176.5,25.67 176.788,25.722 177.045,25.824 C177.302,25.928 177.522,26.069 177.705,26.25 C177.888,26.43 178.028,26.638 178.125,26.875 C178.222,27.111 178.27,27.366 178.27,27.64 C178.27,28.06 178.182,28.423 178.005,28.73 C177.828,29.037 177.54,29.27 177.14,29.43 L177.14,29.45 C177.333,29.504 177.494,29.586 177.62,29.695 C177.746,29.805 177.849,29.935 177.93,30.086 C178.01,30.235 178.069,30.4 178.105,30.58 C178.142,30.761 178.167,30.94 178.18,31.12 C178.187,31.234 178.194,31.367 178.201,31.52 C178.207,31.673 178.219,31.83 178.236,31.99 C178.252,32.15 178.279,32.302 178.315,32.445 C178.352,32.589 178.407,32.711 178.48,32.81 L176.911,32.81 C176.824,32.583 176.77,32.314 176.751,32 C176.73,31.687 176.701,31.387 176.661,31.1 C176.607,30.727 176.494,30.454 176.321,30.28 C176.147,30.107 175.864,30.02 175.47,30.02 L173.9,30.02 L173.9,32.81 L172.331,32.81 L172.331,25.67 L176.18,25.67 L176.18,25.67 Z M175.62,28.9 C175.979,28.9 176.25,28.82 176.43,28.66 C176.611,28.501 176.701,28.24 176.701,27.881 C176.701,27.534 176.611,27.282 176.43,27.126 C176.25,26.969 175.98,26.891 175.62,26.891 L173.899,26.891 L173.899,28.901 L175.62,28.901 L175.62,28.9 Z" id="Shape" opacity="0.5"></path>
            </g>
        </g>
    </g>
</svg>