<?xml version="1.0" encoding="utf-8"?>
<!-- Generator: Adobe Illustrator 17.0.0, SVG Export Plug-In . SVG Version: 6.00 Build 0)  -->
<!DOCTYPE svg PUBLIC "-//W3C//DTD SVG 1.1//EN" "http://www.w3.org/Graphics/SVG/1.1/DTD/svg11.dtd">
<svg version="1.1" id="图层_1" xmlns="http://www.w3.org/2000/svg" xmlns:xlink="http://www.w3.org/1999/xlink" x="0px" y="0px"
	 width="58px" height="27px" viewBox="0 14.667 58 27" enable-background="new 0 14.667 58 27" xml:space="preserve">
<g>
	<path fill="#FFFFFF" d="M4.094,22.58c0,0,2.556-0.704,4.445,0.112c0,0,1.5,0.53,3.002,2.483c0,0,1.745,1.83,3.011,2.366
		c0,0,1.341,0.725,3.591,0.743c0,0,0.687-0.127,0.752-0.625c0,0,0.142-0.748-0.618-0.885c0,0-1.639,0.016-3.096-0.718
		c0,0-1.203-0.522-2.717-2.677c0,0-1.117-1.689-3.048-2.502c0,0-2.014-0.976-5.474-0.314c0,0-1.044,0.085-0.899,1.271
		C3.041,21.834,3.147,22.551,4.094,22.58z"/>
	<path fill="#FFFFFF" d="M2.698,27.546c0,0,2.491-0.821,4.398-0.107c0,0,1.508,0.449,3.088,2.306c0,0,1.814,1.722,3.092,2.19
		c0,0,1.361,0.649,3.585,0.558c0,0,0.672-0.16,0.712-0.655c0,0,0.104-0.746-0.654-0.844c0,0-1.619,0.097-3.095-0.558
		c0,0-1.215-0.457-2.816-2.513c0,0-1.188-1.614-3.135-2.322c0,0-2.038-0.865-5.425-0.041c0,0-1.027,0.134-0.826,1.3
		C1.621,26.86,1.761,27.563,2.698,27.546z"/>
	<path fill="#FFFFFF" d="M1.263,32.172c0,0,2.361-0.936,4.246-0.354c0,0,1.483,0.349,3.116,2.054c0,0,1.852,1.562,3.113,1.941
		c0,0,1.353,0.551,3.499,0.335c0,0,0.641-0.192,0.651-0.674c0,0,0.058-0.727-0.68-0.779c0,0-1.56,0.185-3.024-0.363
		c0,0-1.201-0.373-2.866-2.269c0,0-1.24-1.493-3.163-2.067c0,0-2.02-0.72-5.247,0.269c0,0-0.986,0.189-0.725,1.304
		C0.183,31.571,0.358,32.242,1.263,32.172z"/>
</g>
<g>
	<path fill="#FFFFFF" d="M53.906,22.58c0,0-2.556-0.704-4.445,0.112c0,0-1.5,0.53-3.002,2.483c0,0-1.745,1.83-3.011,2.366
		c0,0-1.341,0.725-3.591,0.743c0,0-0.687-0.127-0.752-0.625c0,0-0.142-0.748,0.618-0.885c0,0,1.639,0.016,3.096-0.718
		c0,0,1.203-0.522,2.717-2.677c0,0,1.117-1.689,3.048-2.502c0,0,2.014-0.976,5.474-0.314c0,0,1.044,0.085,0.899,1.271
		C54.959,21.834,54.853,22.551,53.906,22.58z"/>
	<path fill="#FFFFFF" d="M55.302,27.546c0,0-2.491-0.821-4.398-0.107c0,0-1.508,0.449-3.088,2.306c0,0-1.814,1.722-3.092,2.19
		c0,0-1.361,0.649-3.586,0.558c0,0-0.672-0.16-0.712-0.655c0,0-0.104-0.746,0.654-0.844c0,0,1.619,0.097,3.095-0.558
		c0,0,1.215-0.457,2.816-2.513c0,0,1.188-1.614,3.135-2.322c0,0,2.038-0.865,5.425-0.041c0,0,1.027,0.134,0.826,1.3
		C56.379,26.86,56.239,27.563,55.302,27.546z"/>
	<path fill="#FFFFFF" d="M56.737,32.172c0,0-2.361-0.936-4.246-0.354c0,0-1.483,0.349-3.116,2.054c0,0-1.852,1.562-3.113,1.941
		c0,0-1.353,0.551-3.499,0.335c0,0-0.641-0.192-0.651-0.674c0,0-0.058-0.727,0.68-0.779c0,0,1.56,0.185,3.024-0.363
		c0,0,1.201-0.373,2.866-2.269c0,0,1.24-1.493,3.163-2.067c0,0,2.02-0.72,5.247,0.269c0,0,0.986,0.189,0.725,1.304
		C57.817,31.571,57.642,32.242,56.737,32.172z"/>
</g>
<path fill="#FFFFFF" d="M24.254,24.984c0,0.247-0.2,0.447-0.447,0.447h-0.998c-0.247,0-0.447-0.2-0.447-0.447V16.4
	c0-0.247,0.2-0.447,0.447-0.447h0.998c0.247,0,0.447,0.2,0.447,0.447V24.984z"/>
<path fill="#FFFFFF" d="M36.178,25.3c-0.174,0.174-0.457,0.174-0.632,0l-0.706-0.705c-0.174-0.174-0.174-0.457,0-0.632l6.069-6.069
	c0.174-0.174,0.457-0.174,0.632,0l0.706,0.705c0.174,0.174,0.174,0.457,0,0.632L36.178,25.3z"/>
<path fill="#FFFFFF" d="M37.501,26.366H20.498c-0.513,0-0.928,0.502-0.928,1.122v12.05c0,0.619,0.416,1.122,0.928,1.122h17.003
	c0.513,0,0.928-0.503,0.928-1.122v-12.05C38.429,26.868,38.013,26.366,37.501,26.366z M24.727,33.114
	c-0.719,0-1.301-0.583-1.301-1.3c0-0.719,0.582-1.301,1.301-1.301c0.718,0,1.3,0.582,1.3,1.301
	C26.027,32.531,25.445,33.114,24.727,33.114z M33.473,33.114c-0.718,0-1.3-0.583-1.3-1.3c0-0.719,0.582-1.301,1.3-1.301
	s1.301,0.582,1.301,1.301C34.774,32.531,34.192,33.114,33.473,33.114z"/>
</svg>
