<?xml version="1.0" encoding="utf-8"?>
<!-- Generator: Adobe Illustrator 17.0.0, SVG Export Plug-In . SVG Version: 6.00 Build 0)  -->
<!DOCTYPE svg PUBLIC "-//W3C//DTD SVG 1.1//EN" "http://www.w3.org/Graphics/SVG/1.1/DTD/svg11.dtd">
<svg version="1.1" id="图层_1" xmlns="http://www.w3.org/2000/svg" xmlns:xlink="http://www.w3.org/1999/xlink" x="0px" y="0px"
	 width="65.2px" height="303.31px" viewBox="0 0 65.2 303.31" enable-background="new 0 0 65.2 303.31" xml:space="preserve">
<g display="none">
	<path display="inline" fill="#3E4F67" d="M0.598,278.034c0.96,0,1.893-0.08,2.8-0.24c0.906-0.16,1.727-0.426,2.46-0.8
		c0.733-0.373,1.36-0.853,1.88-1.44c0.52-0.586,0.86-1.307,1.02-2.16h3.72v28h-5v-19.76h-6.88V278.034z"/>
	<path display="inline" fill="#3E4F67" d="M31.839,272.834c2,0,3.633,0.46,4.899,1.38c1.267,0.92,2.253,2.094,2.96,3.52
		c0.706,1.427,1.187,2.994,1.44,4.7c0.253,1.707,0.38,3.36,0.38,4.96s-0.127,3.254-0.38,4.96c-0.254,1.707-0.734,3.274-1.44,4.7
		c-0.707,1.427-1.693,2.6-2.96,3.52s-2.899,1.38-4.899,1.38s-3.634-0.46-4.9-1.38s-2.254-2.093-2.96-3.52
		c-0.707-1.426-1.187-2.993-1.44-4.7c-0.253-1.706-0.38-3.36-0.38-4.96s0.127-3.253,0.38-4.96c0.254-1.706,0.733-3.273,1.44-4.7
		c0.706-1.426,1.693-2.6,2.96-3.52C28.205,273.294,29.839,272.834,31.839,272.834z M31.839,298.154c0.986,0,1.812-0.286,2.479-0.86
		c0.666-0.573,1.193-1.346,1.58-2.32c0.387-0.973,0.66-2.113,0.82-3.42s0.24-2.693,0.24-4.16c0-1.466-0.08-2.846-0.24-4.14
		c-0.16-1.293-0.434-2.433-0.82-3.42c-0.387-0.986-0.914-1.766-1.58-2.34c-0.667-0.573-1.493-0.86-2.479-0.86
		c-1.014,0-1.848,0.287-2.5,0.86c-0.654,0.574-1.174,1.354-1.561,2.34c-0.387,0.987-0.66,2.127-0.819,3.42
		c-0.16,1.294-0.24,2.674-0.24,4.14c0,1.467,0.08,2.854,0.24,4.16c0.159,1.307,0.433,2.447,0.819,3.42
		c0.387,0.974,0.906,1.747,1.561,2.32C29.991,297.868,30.825,298.154,31.839,298.154z"/>
	<path display="inline" fill="#3E4F67" d="M54.078,272.834c2,0,3.633,0.46,4.9,1.38c1.266,0.92,2.253,2.094,2.96,3.52
		c0.706,1.427,1.186,2.994,1.439,4.7c0.254,1.707,0.38,3.36,0.38,4.96s-0.126,3.254-0.38,4.96c-0.254,1.707-0.733,3.274-1.439,4.7
		c-0.707,1.427-1.694,2.6-2.96,3.52c-1.268,0.92-2.9,1.38-4.9,1.38s-3.634-0.46-4.899-1.38c-1.268-0.92-2.254-2.093-2.961-3.52
		c-0.706-1.426-1.187-2.993-1.439-4.7c-0.254-1.706-0.38-3.36-0.38-4.96s0.126-3.253,0.38-4.96c0.253-1.706,0.733-3.273,1.439-4.7
		c0.707-1.426,1.693-2.6,2.961-3.52C50.444,273.294,52.078,272.834,54.078,272.834z M54.078,298.154c0.986,0,1.813-0.286,2.48-0.86
		c0.666-0.573,1.192-1.346,1.58-2.32c0.386-0.973,0.659-2.113,0.819-3.42s0.24-2.693,0.24-4.16c0-1.466-0.08-2.846-0.24-4.14
		c-0.16-1.293-0.434-2.433-0.819-3.42c-0.388-0.986-0.914-1.766-1.58-2.34c-0.667-0.573-1.494-0.86-2.48-0.86
		c-1.014,0-1.847,0.287-2.5,0.86c-0.653,0.574-1.174,1.354-1.56,2.34c-0.387,0.987-0.66,2.127-0.82,3.42
		c-0.16,1.294-0.24,2.674-0.24,4.14c0,1.467,0.08,2.854,0.24,4.16s0.434,2.447,0.82,3.42c0.386,0.974,0.906,1.747,1.56,2.32
		C52.231,297.868,53.064,298.154,54.078,298.154z"/>
</g>
<g>
	<path fill="#D1D6DD" d="M40.133,1.566v3.63l-11.58,3.03v0.061l11.58,2.909v3.45l-11.58,2.79v0.061l11.58,3.149v3.48l-15.51-4.86
		v-3.51l11.52-2.88v-0.061l-11.52-2.85v-3.6L40.133,1.566z"/>
	<path fill="#D1D6DD" d="M40.133,24.906v3.63l-11.58,3.03v0.061l11.58,2.909v3.45l-11.58,2.79v0.061l11.58,3.149v3.48l-15.51-4.86
		v-3.51l11.52-2.88v-0.061l-11.52-2.85v-3.6L40.133,24.906z"/>
	<path fill="#D1D6DD" d="M40.133,48.246v3.63l-11.58,3.03v0.061l11.58,2.909v3.45l-11.58,2.79v0.061l11.58,3.149v3.48l-15.51-4.86
		v-3.51l11.52-2.88v-0.061l-11.52-2.85v-3.6L40.133,48.246z"/>
	<path fill="#D1D6DD" d="M28.673,71.617v4.17h-4.05v-4.17H28.673z"/>
	<path fill="#D1D6DD" d="M40.133,78.127v2.58h4.65v3.42h-4.65v3.09h-2.55v-3.09h-8.28c-0.36,0-0.67,0.015-0.93,0.045
		c-0.26,0.03-0.48,0.1-0.66,0.21c-0.18,0.109-0.315,0.274-0.405,0.495c-0.09,0.22-0.135,0.52-0.135,0.899
		c0,0.24,0.005,0.48,0.015,0.721c0.01,0.239,0.045,0.479,0.105,0.72h-2.64c-0.04-0.38-0.08-0.75-0.12-1.11
		c-0.04-0.359-0.06-0.73-0.06-1.109c0-0.9,0.085-1.626,0.255-2.176c0.17-0.55,0.42-0.979,0.75-1.29c0.33-0.31,0.745-0.52,1.245-0.63
		c0.5-0.109,1.07-0.175,1.71-0.194h9.15v-2.58H40.133z"/>
	<path fill="#D1D6DD" d="M40.133,89.677v3.21h-3v0.061c0.42,0.1,0.83,0.295,1.23,0.585c0.399,0.289,0.765,0.64,1.095,1.05
		c0.33,0.409,0.595,0.865,0.795,1.365c0.2,0.499,0.3,1.01,0.3,1.529c0,0.4-0.01,0.676-0.03,0.825c-0.02,0.15-0.04,0.305-0.06,0.465
		h-3.3c0.04-0.239,0.075-0.484,0.105-0.734c0.03-0.251,0.045-0.495,0.045-0.735c0-0.58-0.115-1.125-0.345-1.635
		c-0.23-0.51-0.57-0.955-1.02-1.335c-0.45-0.38-1.005-0.681-1.665-0.9c-0.66-0.22-1.42-0.33-2.28-0.33h-7.38v-3.42H40.133z"/>
	<path fill="#D1D6DD" d="M28.074,113.226c-0.42,0-0.72,0.055-0.9,0.165c-0.18,0.109-0.27,0.325-0.27,0.645c0,0.101,0,0.221,0,0.36
		s0.02,0.3,0.06,0.48h-2.37c-0.04-0.12-0.085-0.275-0.135-0.466c-0.05-0.189-0.095-0.385-0.135-0.585s-0.07-0.4-0.09-0.6
		c-0.02-0.2-0.03-0.37-0.03-0.51c0-0.7,0.14-1.28,0.42-1.74s0.77-0.761,1.47-0.9c-0.66-0.68-1.14-1.515-1.44-2.505
		c-0.3-0.99-0.45-1.945-0.45-2.865c0-0.7,0.095-1.37,0.285-2.01c0.189-0.64,0.469-1.205,0.84-1.694
		c0.37-0.491,0.84-0.881,1.41-1.171c0.57-0.29,1.234-0.435,1.995-0.435c0.96,0,1.74,0.175,2.34,0.525c0.6,0.35,1.069,0.81,1.41,1.38
		c0.34,0.569,0.585,1.21,0.735,1.92c0.15,0.71,0.265,1.425,0.345,2.145c0.12,0.62,0.205,1.21,0.255,1.771
		c0.05,0.56,0.135,1.055,0.255,1.484c0.12,0.431,0.305,0.771,0.555,1.021s0.625,0.375,1.125,0.375c0.44,0,0.8-0.105,1.08-0.315
		c0.28-0.21,0.495-0.47,0.645-0.779c0.15-0.311,0.25-0.655,0.3-1.035s0.075-0.74,0.075-1.08c0-0.96-0.2-1.75-0.6-2.37
		c-0.4-0.62-1.02-0.971-1.86-1.05v-3.42c1,0.06,1.83,0.3,2.49,0.72c0.66,0.42,1.19,0.955,1.59,1.605
		c0.4,0.649,0.68,1.384,0.84,2.204c0.16,0.82,0.24,1.66,0.24,2.521c0,0.76-0.081,1.51-0.24,2.25c-0.16,0.739-0.42,1.404-0.78,1.995
		c-0.36,0.59-0.825,1.064-1.395,1.425c-0.57,0.36-1.265,0.54-2.085,0.54H28.074z M32.393,109.807c-0.34-0.521-0.545-1.16-0.615-1.92
		c-0.07-0.761-0.175-1.521-0.315-2.28c-0.06-0.36-0.145-0.71-0.255-1.05c-0.11-0.341-0.26-0.641-0.45-0.9s-0.44-0.465-0.75-0.614
		c-0.31-0.15-0.685-0.226-1.125-0.226c-0.38,0-0.7,0.109-0.96,0.33c-0.26,0.22-0.465,0.484-0.615,0.795
		c-0.15,0.31-0.255,0.649-0.315,1.021c-0.06,0.369-0.09,0.705-0.09,1.005c0,0.38,0.05,0.79,0.15,1.229
		c0.1,0.439,0.27,0.855,0.51,1.245c0.24,0.39,0.545,0.715,0.915,0.976c0.37,0.259,0.825,0.39,1.365,0.39H32.393z"/>
	<path fill="#D1D6DD" d="M40.133,116.916v3.24h-2.28l-0.06,0.06c0.86,0.521,1.535,1.2,2.025,2.04c0.49,0.841,0.735,1.771,0.735,2.79
		c0,1.7-0.44,3.04-1.32,4.021c-0.88,0.979-2.2,1.47-3.96,1.47h-10.65v-3.42h9.75c1.22-0.04,2.104-0.3,2.655-0.78
		c0.55-0.479,0.825-1.229,0.825-2.25c0-0.58-0.105-1.1-0.315-1.56c-0.21-0.461-0.5-0.851-0.87-1.17
		c-0.37-0.32-0.805-0.57-1.305-0.75c-0.5-0.181-1.031-0.271-1.59-0.271h-9.15v-3.42H40.133z"/>
	<path fill="#D1D6DD" d="M40.133,132.576v2.58h4.65v3.42h-4.65v3.09h-2.55v-3.09h-8.28c-0.36,0-0.67,0.015-0.93,0.045
		c-0.26,0.03-0.48,0.1-0.66,0.21c-0.18,0.109-0.315,0.274-0.405,0.495c-0.09,0.22-0.135,0.52-0.135,0.899
		c0,0.24,0.005,0.48,0.015,0.721c0.01,0.239,0.045,0.479,0.105,0.72h-2.64c-0.04-0.38-0.08-0.75-0.12-1.11
		c-0.04-0.359-0.06-0.73-0.06-1.109c0-0.9,0.085-1.626,0.255-2.176c0.17-0.55,0.42-0.979,0.75-1.29c0.33-0.31,0.745-0.52,1.245-0.63
		c0.5-0.109,1.07-0.175,1.71-0.194h9.15v-2.58H40.133z"/>
	<path fill="#D1D6DD" d="M31.493,146.796c-0.6,0-1.181,0.085-1.74,0.255c-0.56,0.17-1.05,0.425-1.47,0.766
		c-0.42,0.34-0.755,0.77-1.005,1.29c-0.25,0.52-0.375,1.14-0.375,1.859c0,1,0.215,1.805,0.645,2.415s1.075,1.065,1.935,1.365v3.24
		c-0.84-0.18-1.59-0.49-2.25-0.93c-0.66-0.44-1.215-0.971-1.665-1.591c-0.45-0.62-0.79-1.315-1.02-2.085
		c-0.229-0.77-0.345-1.574-0.345-2.415c0-1.22,0.2-2.3,0.6-3.239c0.4-0.94,0.96-1.735,1.68-2.386c0.72-0.649,1.58-1.14,2.58-1.47
		c1-0.33,2.1-0.495,3.3-0.495c1.1,0,2.145,0.175,3.135,0.525c0.99,0.35,1.86,0.85,2.61,1.5c0.75,0.649,1.345,1.435,1.785,2.354
		c0.439,0.92,0.66,1.96,0.66,3.12c0,1.22-0.255,2.314-0.765,3.285c-0.51,0.97-1.185,1.774-2.025,2.415
		c-0.84,0.64-1.805,1.104-2.895,1.395c-1.09,0.29-2.215,0.365-3.375,0.226V146.796z M33.743,154.776
		c0.54-0.04,1.06-0.155,1.56-0.345c0.5-0.19,0.935-0.45,1.305-0.78s0.67-0.73,0.9-1.2s0.345-0.995,0.345-1.575
		c0-0.6-0.105-1.145-0.315-1.635s-0.5-0.91-0.87-1.26c-0.37-0.351-0.805-0.63-1.305-0.84c-0.5-0.21-1.041-0.326-1.62-0.346V154.776z
		"/>
	<path fill="#D1D6DD" d="M34.943,171.275c0.96-0.14,1.685-0.524,2.175-1.154c0.49-0.63,0.735-1.425,0.735-2.385
		c0-0.44-0.075-0.911-0.225-1.41c-0.15-0.5-0.43-0.96-0.84-1.38c-0.41-0.421-0.98-0.771-1.71-1.051
		c-0.73-0.28-1.685-0.42-2.865-0.42c-0.64,0-1.28,0.075-1.92,0.226c-0.64,0.149-1.21,0.39-1.71,0.72
		c-0.5,0.33-0.905,0.755-1.215,1.275c-0.311,0.52-0.465,1.149-0.465,1.89c0,1,0.31,1.825,0.93,2.475
		c0.62,0.65,1.49,1.055,2.61,1.215v3.421c-2.02-0.32-3.565-1.086-4.635-2.296c-1.07-1.21-1.605-2.814-1.605-4.814
		c0-1.221,0.205-2.295,0.615-3.225c0.41-0.931,0.97-1.716,1.68-2.355c0.709-0.641,1.555-1.125,2.535-1.455
		c0.979-0.33,2.04-0.495,3.18-0.495c1.16,0,2.25,0.16,3.27,0.48c1.02,0.319,1.905,0.8,2.655,1.439s1.339,1.436,1.77,2.386
		c0.43,0.949,0.645,2.064,0.645,3.345c0,0.899-0.116,1.755-0.345,2.564c-0.23,0.811-0.575,1.53-1.035,2.16s-1.04,1.145-1.74,1.545
		c-0.7,0.4-1.53,0.64-2.49,0.721V171.275z"/>
	<path fill="#D1D6DD" d="M40.133,175.926v2.58h4.65v3.42h-4.65v3.09h-2.55v-3.09h-8.28c-0.36,0-0.67,0.015-0.93,0.045
		c-0.26,0.03-0.48,0.1-0.66,0.21c-0.18,0.109-0.315,0.274-0.405,0.495c-0.09,0.22-0.135,0.52-0.135,0.899
		c0,0.24,0.005,0.48,0.015,0.721c0.01,0.239,0.045,0.479,0.105,0.72h-2.64c-0.04-0.38-0.08-0.75-0.12-1.11
		c-0.04-0.359-0.06-0.73-0.06-1.109c0-0.9,0.085-1.626,0.255-2.176c0.17-0.55,0.42-0.979,0.75-1.29c0.33-0.31,0.745-0.52,1.245-0.63
		c0.5-0.109,1.07-0.175,1.71-0.194h9.15v-2.58H40.133z"/>
	<path fill="#D1D6DD" d="M28.673,187.746v4.17h-4.05v-4.17H28.673z"/>
	<path fill="#D1D6DD" d="M34.943,206.285c0.96-0.14,1.685-0.524,2.175-1.154c0.49-0.63,0.735-1.425,0.735-2.385
		c0-0.44-0.075-0.911-0.225-1.41c-0.15-0.5-0.43-0.96-0.84-1.38c-0.41-0.421-0.98-0.771-1.71-1.051
		c-0.73-0.28-1.685-0.42-2.865-0.42c-0.64,0-1.28,0.075-1.92,0.226c-0.64,0.149-1.21,0.39-1.71,0.72
		c-0.5,0.33-0.905,0.755-1.215,1.275c-0.311,0.52-0.465,1.149-0.465,1.89c0,1,0.31,1.825,0.93,2.475
		c0.62,0.65,1.49,1.055,2.61,1.215v3.421c-2.02-0.32-3.565-1.086-4.635-2.296c-1.07-1.21-1.605-2.814-1.605-4.814
		c0-1.221,0.205-2.295,0.615-3.225c0.41-0.931,0.97-1.716,1.68-2.355c0.709-0.641,1.555-1.125,2.535-1.455
		c0.979-0.33,2.04-0.495,3.18-0.495c1.16,0,2.25,0.16,3.27,0.48c1.02,0.319,1.905,0.8,2.655,1.439s1.339,1.436,1.77,2.386
		c0.43,0.949,0.645,2.064,0.645,3.345c0,0.899-0.116,1.755-0.345,2.564c-0.23,0.811-0.575,1.53-1.035,2.16s-1.04,1.145-1.74,1.545
		c-0.7,0.4-1.53,0.64-2.49,0.721V206.285z"/>
	<path fill="#D1D6DD" d="M24.203,219.605c0-1.24,0.205-2.346,0.615-3.315s0.975-1.79,1.695-2.46c0.72-0.67,1.58-1.18,2.58-1.529
		c1-0.351,2.1-0.525,3.3-0.525c1.18,0,2.27,0.175,3.27,0.525c1,0.35,1.86,0.859,2.58,1.529c0.72,0.67,1.285,1.49,1.695,2.46
		c0.41,0.97,0.615,2.075,0.615,3.315c0,1.239-0.206,2.345-0.615,3.314c-0.41,0.971-0.975,1.79-1.695,2.46
		c-0.72,0.67-1.58,1.181-2.58,1.53c-1,0.35-2.09,0.525-3.27,0.525c-1.2,0-2.3-0.176-3.3-0.525c-1-0.35-1.86-0.86-2.58-1.53
		c-0.72-0.67-1.286-1.489-1.695-2.46C24.409,221.95,24.203,220.845,24.203,219.605z M26.903,219.605c0,0.76,0.16,1.42,0.48,1.979
		s0.74,1.021,1.26,1.38c0.52,0.36,1.105,0.625,1.755,0.796c0.65,0.169,1.315,0.255,1.995,0.255c0.66,0,1.32-0.086,1.98-0.255
		c0.66-0.171,1.245-0.436,1.755-0.796c0.51-0.359,0.925-0.82,1.245-1.38c0.32-0.56,0.48-1.22,0.48-1.979
		c0-0.761-0.16-1.421-0.48-1.98c-0.32-0.56-0.735-1.02-1.245-1.38c-0.51-0.359-1.095-0.625-1.755-0.795s-1.32-0.255-1.98-0.255
		c-0.68,0-1.345,0.085-1.995,0.255s-1.235,0.436-1.755,0.795c-0.521,0.36-0.94,0.82-1.26,1.38S26.903,218.845,26.903,219.605z"/>
	<path fill="#D1D6DD" d="M40.133,230.285v3.24h-2.16v0.09c0.379,0.26,0.73,0.54,1.05,0.84s0.59,0.635,0.81,1.005
		c0.22,0.37,0.395,0.795,0.525,1.275c0.13,0.48,0.195,1.03,0.195,1.65c0,0.939-0.21,1.814-0.63,2.625
		c-0.42,0.81-1.07,1.385-1.95,1.725c0.8,0.58,1.43,1.25,1.89,2.01c0.459,0.76,0.69,1.71,0.69,2.851c0,1.64-0.4,2.914-1.2,3.824
		c-0.8,0.91-2.14,1.365-4.02,1.365h-10.71v-3.42h9.06c0.62,0,1.185-0.021,1.695-0.06c0.51-0.041,0.95-0.155,1.32-0.346
		c0.37-0.189,0.655-0.475,0.855-0.854c0.2-0.38,0.3-0.9,0.3-1.561c0-1.16-0.36-2-1.08-2.52c-0.72-0.521-1.74-0.78-3.06-0.78h-9.09
		v-3.42h9.96c1.08,0,1.895-0.195,2.445-0.585s0.825-1.105,0.825-2.145c0-0.44-0.09-0.865-0.27-1.275s-0.44-0.771-0.78-1.08
		c-0.34-0.311-0.76-0.56-1.26-0.75s-1.07-0.285-1.71-0.285h-9.21v-3.42H40.133z"/>
</g>
<g display="none">
	<path display="inline" fill="#3E4F67" d="M33.044,270.157c2.208,0,4.011,0.508,5.409,1.524c1.4,1.016,2.489,2.312,3.269,3.887
		c0.781,1.576,1.309,3.306,1.589,5.19c0.28,1.885,0.421,3.71,0.421,5.476s-0.14,3.593-0.421,5.476
		c-0.28,1.885-0.809,3.615-1.589,5.19c-0.781,1.575-1.87,2.87-3.269,3.887c-1.397,1.016-3.2,1.524-5.409,1.524
		c-2.209,0-4.013-0.508-5.411-1.524c-1.399-1.016-2.489-2.311-3.269-3.887c-0.78-1.575-1.31-3.305-1.59-5.19
		c-0.28-1.884-0.419-3.71-0.419-5.476s0.14-3.592,0.419-5.476c0.28-1.884,0.81-3.614,1.59-5.19c0.78-1.575,1.87-2.87,3.269-3.887
		C29.032,270.665,30.836,270.157,33.044,270.157z M33.044,298.114c1.089,0,2.001-0.316,2.737-0.949
		c0.738-0.633,1.318-1.486,1.745-2.561c0.427-1.074,0.729-2.333,0.906-3.776s0.265-2.974,0.265-4.593
		c0-1.619-0.088-3.143-0.265-4.571c-0.177-1.428-0.479-2.686-0.906-3.776c-0.427-1.089-1.007-1.95-1.745-2.584
		c-0.735-0.633-1.648-0.949-2.737-0.949c-1.12,0-2.04,0.316-2.761,0.949c-0.722,0.633-1.296,1.494-1.723,2.584
		c-0.427,1.09-0.729,2.348-0.905,3.776c-0.177,1.429-0.265,2.952-0.265,4.571c0,1.62,0.088,3.151,0.265,4.593
		c0.176,1.443,0.478,2.702,0.905,3.776c0.426,1.075,1.001,1.928,1.723,2.561C31.004,297.798,31.925,298.114,33.044,298.114z"/>
</g>
<g display="none">
	<path display="inline" fill="#3E4F67" d="M5.141,278.27c0.96,0,1.893-0.08,2.8-0.24c0.906-0.16,1.727-0.426,2.46-0.8
		c0.733-0.373,1.36-0.853,1.88-1.44c0.521-0.586,0.86-1.307,1.021-2.16h3.72v28h-5v-19.76h-6.88V278.27z"/>
	<path display="inline" fill="#3E4F67" d="M35.86,272.39h4.36l-11.479,29.92h-4.36L35.86,272.39z"/>
	<path display="inline" fill="#3E4F67" d="M60.019,301.63h-19.12c0.026-2.32,0.587-4.346,1.681-6.08
		c1.093-1.733,2.586-3.24,4.479-4.52c0.906-0.666,1.854-1.313,2.84-1.94c0.986-0.626,1.894-1.3,2.721-2.02
		c0.826-0.72,1.506-1.5,2.04-2.34c0.533-0.84,0.812-1.806,0.84-2.9c0-0.506-0.061-1.046-0.18-1.62c-0.12-0.573-0.354-1.106-0.7-1.6
		c-0.347-0.493-0.827-0.906-1.44-1.24s-1.414-0.5-2.399-0.5c-0.907,0-1.66,0.18-2.261,0.54c-0.6,0.36-1.08,0.854-1.439,1.48
		c-0.36,0.627-0.627,1.367-0.8,2.22c-0.174,0.854-0.274,1.774-0.301,2.76h-4.56c0-1.546,0.206-2.98,0.62-4.3
		c0.413-1.32,1.033-2.46,1.859-3.42c0.827-0.96,1.834-1.713,3.021-2.26c1.187-0.546,2.566-0.82,4.14-0.82
		c1.706,0,3.134,0.28,4.28,0.84c1.146,0.56,2.073,1.267,2.78,2.12c0.706,0.854,1.206,1.78,1.5,2.78c0.293,1,0.439,1.954,0.439,2.86
		c0,1.12-0.174,2.134-0.52,3.04c-0.347,0.907-0.813,1.74-1.4,2.5c-0.587,0.76-1.254,1.46-2,2.1c-0.747,0.64-1.52,1.24-2.319,1.8
		c-0.801,0.56-1.601,1.094-2.4,1.6c-0.8,0.507-1.54,1.014-2.22,1.52c-0.681,0.507-1.274,1.034-1.78,1.58
		c-0.507,0.547-0.854,1.126-1.04,1.74h13.64V301.63z"/>
</g>
<g>
	<path fill="#3E4F67" d="M26.333,278.95c0.96,0,1.893-0.08,2.8-0.24c0.906-0.16,1.727-0.426,2.46-0.8
		c0.733-0.373,1.36-0.853,1.88-1.44c0.521-0.586,0.86-1.307,1.021-2.16h3.72v28h-5v-19.76h-6.88V278.95z"/>
</g>
<g display="none">
	<path display="inline" fill="#3E4F67" d="M42.592,302.31h-19.12c0.026-2.32,0.587-4.346,1.681-6.08
		c1.093-1.733,2.586-3.24,4.479-4.52c0.906-0.666,1.854-1.313,2.84-1.94c0.986-0.626,1.894-1.3,2.721-2.02
		c0.826-0.72,1.506-1.5,2.04-2.34c0.533-0.84,0.812-1.806,0.84-2.9c0-0.506-0.061-1.046-0.18-1.62c-0.12-0.573-0.354-1.106-0.7-1.6
		c-0.347-0.493-0.827-0.906-1.44-1.24s-1.414-0.5-2.399-0.5c-0.907,0-1.66,0.18-2.261,0.54c-0.6,0.36-1.08,0.854-1.439,1.48
		c-0.36,0.627-0.627,1.367-0.8,2.22c-0.174,0.854-0.274,1.774-0.301,2.76h-4.56c0-1.546,0.206-2.98,0.62-4.3
		c0.413-1.32,1.033-2.46,1.859-3.42c0.827-0.96,1.834-1.713,3.021-2.26c1.187-0.546,2.566-0.82,4.14-0.82
		c1.706,0,3.134,0.28,4.28,0.84c1.146,0.56,2.073,1.267,2.78,2.12c0.706,0.854,1.206,1.78,1.5,2.78c0.293,1,0.439,1.954,0.439,2.86
		c0,1.12-0.174,2.134-0.52,3.04c-0.347,0.907-0.813,1.74-1.4,2.5c-0.587,0.76-1.254,1.46-2,2.1c-0.747,0.64-1.52,1.24-2.319,1.8
		c-0.801,0.56-1.601,1.094-2.4,1.6c-0.8,0.507-1.54,1.014-2.22,1.52c-0.681,0.507-1.274,1.034-1.78,1.58
		c-0.507,0.547-0.854,1.126-1.04,1.74h13.64V302.31z"/>
</g>
<g display="none">
	<path display="inline" fill="#3E4F67" d="M31.052,285.35c0.746,0.027,1.493-0.026,2.24-0.16c0.746-0.133,1.413-0.366,2-0.7
		c0.586-0.333,1.06-0.793,1.42-1.38c0.359-0.586,0.54-1.306,0.54-2.16c0-1.2-0.407-2.16-1.221-2.88
		c-0.813-0.72-1.859-1.08-3.14-1.08c-0.8,0-1.494,0.16-2.08,0.48c-0.587,0.32-1.073,0.753-1.46,1.3
		c-0.387,0.547-0.674,1.16-0.86,1.84c-0.187,0.68-0.267,1.38-0.239,2.1h-4.561c0.054-1.36,0.307-2.62,0.76-3.78
		c0.453-1.16,1.073-2.167,1.86-3.02c0.786-0.854,1.74-1.52,2.86-2s2.386-0.72,3.8-0.72c1.093,0,2.166,0.16,3.22,0.48
		c1.054,0.32,2,0.787,2.84,1.4c0.841,0.614,1.514,1.394,2.021,2.34c0.506,0.947,0.76,2.034,0.76,3.26c0,1.414-0.32,2.647-0.96,3.7
		c-0.64,1.054-1.64,1.82-3,2.3v0.08c1.6,0.32,2.847,1.114,3.74,2.38c0.893,1.267,1.34,2.807,1.34,4.62c0,1.334-0.267,2.527-0.8,3.58
		c-0.534,1.054-1.254,1.947-2.16,2.68c-0.907,0.734-1.96,1.3-3.16,1.7s-2.467,0.6-3.8,0.6c-1.627,0-3.047-0.234-4.26-0.7
		c-1.214-0.466-2.228-1.126-3.04-1.98c-0.814-0.853-1.434-1.88-1.86-3.08c-0.427-1.2-0.653-2.533-0.68-4h4.56
		c-0.054,1.707,0.366,3.127,1.26,4.26c0.894,1.134,2.233,1.7,4.021,1.7c1.52,0,2.793-0.433,3.82-1.3c1.025-0.866,1.54-2.1,1.54-3.7
		c0-1.093-0.214-1.96-0.641-2.6c-0.427-0.64-0.986-1.126-1.68-1.46c-0.694-0.333-1.474-0.54-2.34-0.62
		c-0.867-0.08-1.754-0.106-2.66-0.08V285.35z"/>
</g>
</svg>
